<svg width="209" height="16" viewBox="0 0 209 16" fill="none" xmlns="http://www.w3.org/2000/svg">
<path d="M0.198509 12V1.09091H4.19354C4.96768 1.09091 5.60867 1.21875 6.11648 1.47443C6.62429 1.72656 7.00426 2.06925 7.25639 2.50249C7.50852 2.93217 7.63459 3.4169 7.63459 3.95668C7.63459 4.41122 7.55114 4.79474 7.38423 5.10724C7.21733 5.41619 6.99361 5.66477 6.71307 5.85298C6.43608 6.03764 6.13068 6.17259 5.79688 6.25781V6.36435C6.15909 6.3821 6.51243 6.49929 6.85689 6.71591C7.2049 6.92898 7.49254 7.2326 7.71982 7.62678C7.94709 8.02095 8.06072 8.50036 8.06072 9.06499C8.06072 9.62251 7.92933 10.1232 7.66655 10.5671C7.40732 11.0075 7.00604 11.3572 6.46271 11.6165C5.91939 11.8722 5.22514 12 4.37997 12H0.198509ZM1.84446 10.5884H4.22017C5.00852 10.5884 5.57315 10.4357 5.91406 10.1303C6.25497 9.82493 6.42543 9.44318 6.42543 8.98509C6.42543 8.64062 6.33842 8.32457 6.16442 8.03693C5.99041 7.74929 5.74183 7.52024 5.41868 7.34979C5.09908 7.17933 4.71911 7.09411 4.27876 7.09411H1.84446V10.5884ZM1.84446 5.81037H4.04972C4.41903 5.81037 4.75107 5.73935 5.04581 5.5973C5.34411 5.45526 5.58026 5.25639 5.75426 5.00071C5.93182 4.74148 6.0206 4.43608 6.0206 4.08452C6.0206 3.63352 5.86257 3.25533 5.54652 2.94993C5.23047 2.64453 4.74574 2.49183 4.09233 2.49183H1.84446V5.81037ZM10.013 1.09091H12.0105L15.4835 9.57102H15.6113L19.0843 1.09091H21.0819V12H19.5158V4.10582H19.4146L16.1973 11.984H14.8975L11.6802 4.1005H11.579V12H10.013V1.09091ZM25.1208 1.09091V12H23.4749V1.09091H25.1208ZM30.9496 2.50781V1.09091H39.3924V2.50781H35.9886V12H34.348V2.50781H30.9496ZM40.2806 12V3.81818H41.82V5.1179H41.9053C42.0544 4.67756 42.3172 4.33132 42.6936 4.07919C43.0736 3.82351 43.5033 3.69567 43.9827 3.69567C44.0821 3.69567 44.1993 3.69922 44.3343 3.70632C44.4727 3.71342 44.5811 3.7223 44.6592 3.73295V5.25639C44.5953 5.23864 44.4816 5.21911 44.3183 5.1978C44.1549 5.17294 43.9916 5.16051 43.8282 5.16051C43.4518 5.16051 43.1162 5.24041 42.8215 5.40021C42.5303 5.55646 42.2994 5.77486 42.129 6.0554C41.9585 6.33239 41.8733 6.64844 41.8733 7.00355V12H40.2806ZM48.3453 12.1811C47.8268 12.1811 47.358 12.0852 46.939 11.8935C46.52 11.6982 46.1879 11.4158 45.9429 11.0465C45.7014 10.6772 45.5807 10.2244 45.5807 9.68821C45.5807 9.22656 45.6695 8.84659 45.847 8.5483C46.0246 8.25 46.2643 8.01385 46.5661 7.83984C46.868 7.66584 47.2053 7.53445 47.5782 7.44567C47.9511 7.35689 48.3311 7.28942 48.7181 7.24325C49.2082 7.18643 49.6059 7.14027 49.9113 7.10476C50.2167 7.0657 50.4387 7.00355 50.5771 6.91832C50.7156 6.8331 50.7849 6.6946 50.7849 6.50284V6.46555C50.7849 6.00035 50.6535 5.63991 50.3907 5.38423C50.1315 5.12855 49.7444 5.00071 49.2295 5.00071C48.6933 5.00071 48.2707 5.11967 47.9617 5.3576C47.6563 5.59197 47.445 5.85298 47.3279 6.14062L45.8311 5.79972C46.0086 5.30256 46.2678 4.90128 46.6088 4.59588C46.9532 4.28693 47.3492 4.06321 47.7966 3.92472C48.2441 3.78267 48.7146 3.71165 49.2082 3.71165C49.5349 3.71165 49.8811 3.75071 50.2469 3.82884C50.6162 3.90341 50.9607 4.0419 51.2803 4.24432C51.6034 4.44673 51.868 4.73615 52.074 5.11257C52.2799 5.48544 52.3829 5.97017 52.3829 6.56676V12H50.8275V10.8814H50.7636C50.6606 11.0874 50.5061 11.2898 50.3002 11.4886C50.0942 11.6875 49.8296 11.8526 49.5065 11.984C49.1833 12.1154 48.7963 12.1811 48.3453 12.1811ZM48.6915 10.9027C49.1318 10.9027 49.5083 10.8157 49.8208 10.6417C50.1368 10.4677 50.3765 10.2404 50.5399 9.95987C50.7068 9.67578 50.7902 9.37216 50.7902 9.04901V7.99432C50.7334 8.05114 50.6233 8.1044 50.46 8.15412C50.3002 8.20028 50.1173 8.24112 49.9113 8.27663C49.7053 8.30859 49.5047 8.33878 49.3094 8.36719C49.1141 8.39205 48.9507 8.41335 48.8193 8.43111C48.5104 8.47017 48.2281 8.53587 47.9724 8.6282C47.7203 8.72053 47.5178 8.85369 47.3651 9.0277C47.216 9.19815 47.1414 9.42543 47.1414 9.70952C47.1414 10.1037 47.287 10.402 47.5782 10.6044C47.8694 10.8033 48.2405 10.9027 48.6915 10.9027ZM57.9506 12.1651C57.1587 12.1651 56.4769 11.9858 55.9052 11.6271C55.337 11.2649 54.9002 10.766 54.5948 10.1303C54.2894 9.49467 54.1367 8.76669 54.1367 7.94638C54.1367 7.11541 54.293 6.3821 54.6055 5.74645C54.918 5.10724 55.3583 4.60831 55.9265 4.24964C56.4947 3.89098 57.1641 3.71165 57.9347 3.71165C58.5561 3.71165 59.1101 3.82706 59.5966 4.05788C60.0831 4.28516 60.4755 4.60476 60.7738 5.01669C61.0756 5.42862 61.255 5.9098 61.3118 6.46023H59.7617C59.6765 6.0767 59.4812 5.74645 59.1758 5.46946C58.8739 5.19247 58.4691 5.05398 57.9613 5.05398C57.5174 5.05398 57.1286 5.17116 56.7947 5.40554C56.4645 5.63636 56.207 5.96662 56.0224 6.39631C55.8377 6.82244 55.7454 7.3267 55.7454 7.90909C55.7454 8.50568 55.8359 9.0206 56.017 9.45384C56.1982 9.88707 56.4538 10.2227 56.7841 10.4606C57.1179 10.6985 57.5103 10.8175 57.9613 10.8175C58.2631 10.8175 58.5366 10.7624 58.7816 10.6523C59.0302 10.5387 59.2379 10.3771 59.4048 10.1676C59.5753 9.9581 59.6942 9.70597 59.7617 9.41122H61.3118C61.255 9.94034 61.0827 10.4126 60.7951 10.8281C60.5075 11.2436 60.1222 11.5703 59.6392 11.8082C59.1598 12.0462 58.5969 12.1651 57.9506 12.1651ZM64.4798 9.22479L64.4692 7.28054H64.7462L68.0061 3.81818H69.9131L66.195 7.75994H65.9447L64.4798 9.22479ZM63.015 12V1.09091H64.6077V12H63.015ZM68.1819 12L65.2522 8.11151L66.3495 6.99822L70.1368 12H68.1819ZM71.3646 12V3.81818H72.9573V12H71.3646ZM72.1689 2.55575C71.892 2.55575 71.654 2.46342 71.4552 2.27876C71.2599 2.09055 71.1622 1.86683 71.1622 1.6076C71.1622 1.34482 71.2599 1.12109 71.4552 0.936434C71.654 0.748224 71.892 0.654119 72.1689 0.654119C72.4459 0.654119 72.6821 0.748224 72.8774 0.936434C73.0763 1.12109 73.1757 1.34482 73.1757 1.6076C73.1757 1.86683 73.0763 2.09055 72.8774 2.27876C72.6821 2.46342 72.4459 2.55575 72.1689 2.55575ZM76.6926 7.14205V12H75.1V3.81818H76.6287V5.14986H76.7299C76.9181 4.71662 77.2129 4.36861 77.6142 4.10582C78.019 3.84304 78.5286 3.71165 79.1429 3.71165C79.7005 3.71165 80.1887 3.82884 80.6078 4.06321C81.0268 4.29403 81.3517 4.63849 81.5826 5.09659C81.8134 5.55469 81.9288 6.12109 81.9288 6.79581V12H80.3361V6.98757C80.3361 6.39453 80.1816 5.93111 79.8727 5.5973C79.5637 5.25994 79.1394 5.09126 78.5996 5.09126C78.2303 5.09126 77.9018 5.17116 77.6142 5.33097C77.3301 5.49077 77.1046 5.72514 76.9377 6.03409C76.7743 6.33949 76.6926 6.70881 76.6926 7.14205ZM87.4952 15.2386C86.8453 15.2386 86.286 15.1534 85.8173 14.983C85.3521 14.8125 84.9721 14.587 84.6774 14.3065C84.3826 14.0259 84.1625 13.7188 84.0169 13.3849L85.3858 12.8203C85.4817 12.9766 85.6096 13.1417 85.7694 13.3157C85.9327 13.4933 86.1529 13.6442 86.4299 13.7685C86.7104 13.8928 87.0708 13.9549 87.5112 13.9549C88.1149 13.9549 88.6138 13.8075 89.008 13.5128C89.4022 13.2216 89.5993 12.7564 89.5993 12.1172V10.5085H89.498C89.4022 10.6825 89.2637 10.8761 89.0826 11.0891C88.905 11.3022 88.66 11.4869 88.3475 11.6431C88.035 11.7994 87.6284 11.8775 87.1277 11.8775C86.4814 11.8775 85.899 11.7266 85.3805 11.4247C84.8656 11.1193 84.4572 10.6701 84.1554 10.0771C83.8571 9.48047 83.7079 8.74716 83.7079 7.87713C83.7079 7.0071 83.8553 6.26136 84.15 5.63991C84.4483 5.01847 84.8567 4.54261 85.3752 4.21236C85.8936 3.87855 86.4814 3.71165 87.1383 3.71165C87.6461 3.71165 88.0563 3.79688 88.3688 3.96733C88.6813 4.13423 88.9245 4.32955 89.0985 4.55327C89.2761 4.77699 89.4128 4.97408 89.5087 5.14453H89.6259V3.81818H91.1866V12.1811C91.1866 12.8842 91.0233 13.4613 90.6966 13.9123C90.3699 14.3633 89.9277 14.6971 89.3702 14.9137C88.8162 15.1303 88.1912 15.2386 87.4952 15.2386ZM87.4792 10.5565C87.9373 10.5565 88.3244 10.4499 88.6404 10.2369C88.96 10.0202 89.2015 9.71129 89.3649 9.31001C89.5318 8.90518 89.6152 8.42045 89.6152 7.85582C89.6152 7.3054 89.5336 6.82067 89.3702 6.40163C89.2069 5.9826 88.9672 5.65589 88.6511 5.42152C88.335 5.18359 87.9444 5.06463 87.4792 5.06463C86.9998 5.06463 86.6003 5.18892 86.2807 5.4375C85.9611 5.68253 85.7196 6.01633 85.5563 6.43892C85.3965 6.86151 85.3166 7.33381 85.3166 7.85582C85.3166 8.39205 85.3983 8.86257 85.5616 9.2674C85.725 9.67223 85.9664 9.98828 86.286 10.2156C86.6092 10.4428 87.0069 10.5565 87.4792 10.5565ZM97.4202 12V1.09091H101.415C102.189 1.09091 102.83 1.21875 103.338 1.47443C103.846 1.72656 104.226 2.06925 104.478 2.50249C104.73 2.93217 104.856 3.4169 104.856 3.95668C104.856 4.41122 104.773 4.79474 104.606 5.10724C104.439 5.41619 104.215 5.66477 103.935 5.85298C103.658 6.03764 103.352 6.17259 103.019 6.25781V6.36435C103.381 6.3821 103.734 6.49929 104.079 6.71591C104.427 6.92898 104.714 7.2326 104.941 7.62678C105.169 8.02095 105.282 8.50036 105.282 9.06499C105.282 9.62251 105.151 10.1232 104.888 10.5671C104.629 11.0075 104.228 11.3572 103.684 11.6165C103.141 11.8722 102.447 12 101.602 12H97.4202ZM99.0661 10.5884H101.442C102.23 10.5884 102.795 10.4357 103.136 10.1303C103.477 9.82493 103.647 9.44318 103.647 8.98509C103.647 8.64062 103.56 8.32457 103.386 8.03693C103.212 7.74929 102.964 7.52024 102.64 7.34979C102.321 7.17933 101.941 7.09411 101.5 7.09411H99.0661V10.5884ZM99.0661 5.81037H101.271C101.641 5.81037 101.973 5.73935 102.267 5.5973C102.566 5.45526 102.802 5.25639 102.976 5.00071C103.153 4.74148 103.242 4.43608 103.242 4.08452C103.242 3.63352 103.084 3.25533 102.768 2.94993C102.452 2.64453 101.967 2.49183 101.314 2.49183H99.0661V5.81037ZM109.488 12.1811C108.969 12.1811 108.501 12.0852 108.082 11.8935C107.663 11.6982 107.331 11.4158 107.085 11.0465C106.844 10.6772 106.723 10.2244 106.723 9.68821C106.723 9.22656 106.812 8.84659 106.99 8.5483C107.167 8.25 107.407 8.01385 107.709 7.83984C108.011 7.66584 108.348 7.53445 108.721 7.44567C109.094 7.35689 109.474 7.28942 109.861 7.24325C110.351 7.18643 110.748 7.14027 111.054 7.10476C111.359 7.0657 111.581 7.00355 111.72 6.91832C111.858 6.8331 111.927 6.6946 111.927 6.50284V6.46555C111.927 6.00035 111.796 5.63991 111.533 5.38423C111.274 5.12855 110.887 5.00071 110.372 5.00071C109.836 5.00071 109.413 5.11967 109.104 5.3576C108.799 5.59197 108.588 5.85298 108.47 6.14062L106.974 5.79972C107.151 5.30256 107.41 4.90128 107.751 4.59588C108.096 4.28693 108.492 4.06321 108.939 3.92472C109.387 3.78267 109.857 3.71165 110.351 3.71165C110.677 3.71165 111.024 3.75071 111.389 3.82884C111.759 3.90341 112.103 4.0419 112.423 4.24432C112.746 4.44673 113.011 4.73615 113.217 5.11257C113.422 5.48544 113.525 5.97017 113.525 6.56676V12H111.97V10.8814H111.906C111.803 11.0874 111.649 11.2898 111.443 11.4886C111.237 11.6875 110.972 11.8526 110.649 11.984C110.326 12.1154 109.939 12.1811 109.488 12.1811ZM109.834 10.9027C110.274 10.9027 110.651 10.8157 110.963 10.6417C111.279 10.4677 111.519 10.2404 111.682 9.95987C111.849 9.67578 111.933 9.37216 111.933 9.04901V7.99432C111.876 8.05114 111.766 8.1044 111.603 8.15412C111.443 8.20028 111.26 8.24112 111.054 8.27663C110.848 8.30859 110.647 8.33878 110.452 8.36719C110.257 8.39205 110.093 8.41335 109.962 8.43111C109.653 8.47017 109.371 8.53587 109.115 8.6282C108.863 8.72053 108.66 8.85369 108.508 9.0277C108.359 9.19815 108.284 9.42543 108.284 9.70952C108.284 10.1037 108.43 10.402 108.721 10.6044C109.012 10.8033 109.383 10.9027 109.834 10.9027ZM115.647 12V3.81818H117.186V5.1179H117.271C117.421 4.67756 117.683 4.33132 118.06 4.07919C118.44 3.82351 118.869 3.69567 119.349 3.69567C119.448 3.69567 119.566 3.69922 119.7 3.70632C119.839 3.71342 119.947 3.7223 120.025 3.73295V5.25639C119.961 5.23864 119.848 5.21911 119.684 5.1978C119.521 5.17294 119.358 5.16051 119.194 5.16051C118.818 5.16051 118.482 5.24041 118.188 5.40021C117.896 5.55646 117.666 5.77486 117.495 6.0554C117.325 6.33239 117.24 6.64844 117.24 7.00355V12H115.647ZM132.884 4.53729C132.781 4.21413 132.643 3.92472 132.469 3.66903C132.298 3.4098 132.094 3.18963 131.856 3.00852C131.618 2.82386 131.346 2.68359 131.041 2.58771C130.739 2.49183 130.407 2.44389 130.045 2.44389C129.431 2.44389 128.877 2.60192 128.383 2.91797C127.889 3.23402 127.499 3.69744 127.211 4.30824C126.927 4.91548 126.785 5.65945 126.785 6.54013C126.785 7.42436 126.929 8.17187 127.216 8.78267C127.504 9.39347 127.898 9.85689 128.399 10.1729C128.9 10.489 129.47 10.647 130.109 10.647C130.702 10.647 131.219 10.5263 131.659 10.2848C132.103 10.0433 132.445 9.70241 132.687 9.26207C132.932 8.81818 133.055 8.29616 133.055 7.69602L133.481 7.77592H130.359V6.41761H134.647V7.65874C134.647 8.57493 134.452 9.37038 134.061 10.0451C133.674 10.7163 133.138 11.2347 132.453 11.6005C131.771 11.9663 130.99 12.1491 130.109 12.1491C129.122 12.1491 128.255 11.9219 127.509 11.4673C126.767 11.0128 126.188 10.3683 125.773 9.53374C125.357 8.69567 125.15 7.70135 125.15 6.55078C125.15 5.68075 125.27 4.8995 125.512 4.20703C125.753 3.51456 126.093 2.92685 126.529 2.44389C126.97 1.95739 127.486 1.58629 128.079 1.33061C128.676 1.07138 129.328 0.941761 130.034 0.941761C130.624 0.941761 131.172 1.02876 131.68 1.20277C132.192 1.37678 132.646 1.62358 133.044 1.94318C133.445 2.26278 133.777 2.64276 134.04 3.0831C134.303 3.51989 134.48 4.00462 134.573 4.53729H132.884ZM136.609 12V3.81818H138.148V5.1179H138.233C138.383 4.67756 138.645 4.33132 139.022 4.07919C139.402 3.82351 139.831 3.69567 140.311 3.69567C140.41 3.69567 140.527 3.69922 140.662 3.70632C140.801 3.71342 140.909 3.7223 140.987 3.73295V5.25639C140.923 5.23864 140.81 5.21911 140.646 5.1978C140.483 5.17294 140.32 5.16051 140.156 5.16051C139.78 5.16051 139.444 5.24041 139.15 5.40021C138.858 5.55646 138.628 5.77486 138.457 6.0554C138.287 6.33239 138.201 6.64844 138.201 7.00355V12H136.609ZM144.673 12.1811C144.155 12.1811 143.686 12.0852 143.267 11.8935C142.848 11.6982 142.516 11.4158 142.271 11.0465C142.03 10.6772 141.909 10.2244 141.909 9.68821C141.909 9.22656 141.998 8.84659 142.175 8.5483C142.353 8.25 142.592 8.01385 142.894 7.83984C143.196 7.66584 143.533 7.53445 143.906 7.44567C144.279 7.35689 144.659 7.28942 145.046 7.24325C145.536 7.18643 145.934 7.14027 146.239 7.10476C146.545 7.0657 146.767 7.00355 146.905 6.91832C147.044 6.8331 147.113 6.6946 147.113 6.50284V6.46555C147.113 6.00035 146.982 5.63991 146.719 5.38423C146.46 5.12855 146.073 5.00071 145.558 5.00071C145.021 5.00071 144.599 5.11967 144.29 5.3576C143.984 5.59197 143.773 5.85298 143.656 6.14062L142.159 5.79972C142.337 5.30256 142.596 4.90128 142.937 4.59588C143.281 4.28693 143.677 4.06321 144.125 3.92472C144.572 3.78267 145.043 3.71165 145.536 3.71165C145.863 3.71165 146.209 3.75071 146.575 3.82884C146.944 3.90341 147.289 4.0419 147.608 4.24432C147.932 4.44673 148.196 4.73615 148.402 5.11257C148.608 5.48544 148.711 5.97017 148.711 6.56676V12H147.156V10.8814H147.092C146.989 11.0874 146.834 11.2898 146.628 11.4886C146.422 11.6875 146.158 11.8526 145.835 11.984C145.511 12.1154 145.124 12.1811 144.673 12.1811ZM145.02 10.9027C145.46 10.9027 145.836 10.8157 146.149 10.6417C146.465 10.4677 146.705 10.2404 146.868 9.95987C147.035 9.67578 147.118 9.37216 147.118 9.04901V7.99432C147.062 8.05114 146.951 8.1044 146.788 8.15412C146.628 8.20028 146.445 8.24112 146.239 8.27663C146.033 8.30859 145.833 8.33878 145.638 8.36719C145.442 8.39205 145.279 8.41335 145.147 8.43111C144.839 8.47017 144.556 8.53587 144.301 8.6282C144.048 8.72053 143.846 8.85369 143.693 9.0277C143.544 9.19815 143.47 9.42543 143.47 9.70952C143.47 10.1037 143.615 10.402 143.906 10.6044C144.198 10.8033 144.569 10.9027 145.02 10.9027ZM150.832 15.0682V3.81818H152.388V5.14453H152.521C152.613 4.97408 152.746 4.77699 152.92 4.55327C153.094 4.32955 153.336 4.13423 153.645 3.96733C153.954 3.79688 154.362 3.71165 154.87 3.71165C155.531 3.71165 156.12 3.87855 156.638 4.21236C157.157 4.54616 157.564 5.02734 157.858 5.65589C158.157 6.28445 158.306 7.04084 158.306 7.92507C158.306 8.8093 158.158 9.56747 157.864 10.1996C157.569 10.8281 157.164 11.3129 156.649 11.6538C156.134 11.9911 155.547 12.1598 154.886 12.1598C154.389 12.1598 153.982 12.0763 153.666 11.9094C153.354 11.7425 153.109 11.5472 152.931 11.3235C152.754 11.0998 152.617 10.9009 152.521 10.7269H152.425V15.0682H150.832ZM152.393 7.90909C152.393 8.48437 152.477 8.98864 152.643 9.42188C152.81 9.85511 153.052 10.1942 153.368 10.4393C153.684 10.6808 154.071 10.8015 154.529 10.8015C155.005 10.8015 155.403 10.6754 155.722 10.4233C156.042 10.1676 156.283 9.82138 156.447 9.38459C156.614 8.9478 156.697 8.45597 156.697 7.90909C156.697 7.36932 156.615 6.88459 156.452 6.4549C156.292 6.02521 156.051 5.68608 155.728 5.4375C155.408 5.18892 155.009 5.06463 154.529 5.06463C154.067 5.06463 153.677 5.18359 153.357 5.42152C153.041 5.65945 152.801 5.99148 152.638 6.41761C152.475 6.84375 152.393 7.34091 152.393 7.90909ZM161.683 7.14205V12H160.09V1.09091H161.662V5.14986H161.763C161.955 4.70952 162.248 4.35973 162.642 4.1005C163.036 3.84126 163.551 3.71165 164.186 3.71165C164.748 3.71165 165.238 3.82706 165.657 4.05788C166.079 4.28871 166.406 4.63317 166.637 5.09126C166.871 5.54581 166.988 6.11399 166.988 6.79581V12H165.396V6.98757C165.396 6.38743 165.241 5.92223 164.932 5.59197C164.623 5.25817 164.194 5.09126 163.643 5.09126C163.267 5.09126 162.929 5.17116 162.631 5.33097C162.336 5.49077 162.104 5.72514 161.933 6.03409C161.766 6.33949 161.683 6.70881 161.683 7.14205ZM173.062 12V10.8068L176.753 6.98224C177.148 6.56676 177.473 6.20277 177.728 5.89027C177.987 5.57422 178.181 5.27415 178.309 4.99006C178.437 4.70597 178.501 4.40412 178.501 4.08452C178.501 3.7223 178.415 3.4098 178.245 3.14702C178.074 2.88068 177.842 2.67649 177.547 2.53445C177.252 2.38885 176.92 2.31605 176.551 2.31605C176.16 2.31605 175.82 2.39595 175.528 2.55575C175.237 2.71555 175.013 2.94105 174.857 3.23224C174.701 3.52344 174.623 3.86435 174.623 4.25497H173.051C173.051 3.59091 173.204 3.0103 173.509 2.51314C173.815 2.01598 174.234 1.63068 174.767 1.35724C175.299 1.08026 175.905 0.941761 176.583 0.941761C177.268 0.941761 177.872 1.07848 178.394 1.35192C178.92 1.6218 179.33 1.99112 179.625 2.45987C179.919 2.92507 180.067 3.45064 180.067 4.03658C180.067 4.44141 179.99 4.83736 179.838 5.22443C179.688 5.61151 179.427 6.04297 179.055 6.51882C178.682 6.99112 178.163 7.56463 177.499 8.23935L175.331 10.5085V10.5884H180.242V12H173.062ZM186.059 12.1811C185.218 12.1776 184.498 11.9556 183.902 11.5153C183.305 11.0749 182.849 10.4339 182.533 9.59233C182.217 8.75071 182.059 7.73686 182.059 6.55078C182.059 5.36825 182.217 4.35795 182.533 3.51989C182.853 2.68182 183.311 2.04261 183.907 1.60227C184.507 1.16193 185.225 0.941761 186.059 0.941761C186.894 0.941761 187.609 1.16371 188.206 1.6076C188.802 2.04794 189.259 2.68714 189.575 3.52521C189.894 4.35973 190.054 5.36825 190.054 6.55078C190.054 7.74041 189.896 8.75604 189.58 9.59766C189.264 10.4357 188.808 11.0767 188.211 11.5206C187.615 11.9609 186.897 12.1811 186.059 12.1811ZM186.059 10.7589C186.798 10.7589 187.375 10.3984 187.79 9.67756C188.209 8.95668 188.419 7.91442 188.419 6.55078C188.419 5.64524 188.323 4.87997 188.131 4.25497C187.943 3.62642 187.671 3.15057 187.316 2.82741C186.965 2.50071 186.546 2.33736 186.059 2.33736C185.324 2.33736 184.747 2.69957 184.328 3.42401C183.909 4.14844 183.698 5.1907 183.694 6.55078C183.694 7.45987 183.788 8.22869 183.976 8.85724C184.168 9.48224 184.44 9.95632 184.791 10.2795C185.143 10.5991 185.566 10.7589 186.059 10.7589ZM191.944 12V10.8068L195.635 6.98224C196.029 6.56676 196.354 6.20277 196.61 5.89027C196.869 5.57422 197.063 5.27415 197.191 4.99006C197.319 4.70597 197.382 4.40412 197.382 4.08452C197.382 3.7223 197.297 3.4098 197.127 3.14702C196.956 2.88068 196.724 2.67649 196.429 2.53445C196.134 2.38885 195.802 2.31605 195.433 2.31605C195.042 2.31605 194.701 2.39595 194.41 2.55575C194.119 2.71555 193.895 2.94105 193.739 3.23224C193.583 3.52344 193.505 3.86435 193.505 4.25497H191.933C191.933 3.59091 192.086 3.0103 192.391 2.51314C192.697 2.01598 193.116 1.63068 193.648 1.35724C194.181 1.08026 194.787 0.941761 195.465 0.941761C196.15 0.941761 196.754 1.07848 197.276 1.35192C197.801 1.6218 198.212 1.99112 198.506 2.45987C198.801 2.92507 198.949 3.45064 198.949 4.03658C198.949 4.44141 198.872 4.83736 198.719 5.22443C198.57 5.61151 198.309 6.04297 197.936 6.51882C197.564 6.99112 197.045 7.56463 196.381 8.23935L194.213 10.5085V10.5884H199.124V12H191.944ZM204.941 12.1491C204.21 12.1491 203.556 12.0231 202.981 11.771C202.409 11.5188 201.956 11.169 201.623 10.7216C201.292 10.2706 201.115 9.74858 201.09 9.15554H202.762C202.784 9.47869 202.892 9.75923 203.087 9.99716C203.286 10.2315 203.545 10.4126 203.865 10.5405C204.185 10.6683 204.54 10.7322 204.93 10.7322C205.36 10.7322 205.74 10.6577 206.07 10.5085C206.404 10.3594 206.665 10.1516 206.853 9.8853C207.042 9.61541 207.136 9.30469 207.136 8.95312C207.136 8.58736 207.042 8.26598 206.853 7.98899C206.669 7.70845 206.397 7.48828 206.038 7.32848C205.683 7.16868 205.254 7.08878 204.749 7.08878H203.828V5.74645H204.749C205.154 5.74645 205.509 5.67365 205.815 5.52805C206.124 5.38246 206.365 5.18004 206.539 4.92081C206.713 4.65803 206.8 4.35085 206.8 3.99929C206.8 3.66193 206.724 3.36896 206.571 3.12038C206.422 2.86825 206.209 2.67116 205.932 2.52912C205.658 2.38707 205.335 2.31605 204.962 2.31605C204.607 2.31605 204.275 2.38175 203.966 2.51314C203.661 2.64098 203.412 2.82564 203.221 3.06712C203.029 3.30504 202.926 3.59091 202.912 3.92472H201.319C201.337 3.33523 201.511 2.81676 201.841 2.36932C202.175 1.92187 202.615 1.57209 203.162 1.31996C203.709 1.06783 204.316 0.941761 204.984 0.941761C205.683 0.941761 206.287 1.07848 206.795 1.35192C207.306 1.6218 207.7 1.98224 207.977 2.43324C208.258 2.88423 208.396 3.37784 208.393 3.91406C208.396 4.52486 208.226 5.04332 207.881 5.46946C207.54 5.8956 207.086 6.18146 206.518 6.32706V6.41229C207.242 6.52237 207.803 6.81001 208.201 7.27521C208.602 7.74041 208.801 8.31747 208.798 9.00639C208.801 9.60653 208.634 10.1445 208.297 10.6204C207.963 11.0962 207.507 11.4709 206.928 11.7443C206.349 12.0142 205.687 12.1491 204.941 12.1491Z" fill="#0D3E5A"/>
</svg>
