<svg width="1091" height="540" viewBox="0 0 1091 540" fill="none" xmlns="http://www.w3.org/2000/svg">
<g filter="url(#filter0_d_897_12)">
<rect x="4" width="1083" height="532" rx="8" fill="white"/>
</g>
<rect x="593" y="137" width="39" height="23" fill="#0076BE"/>
<path d="M660.544 148.928V160H659.088V151.744L655.408 160H654.384L650.688 151.728V160H649.232V148.928H650.8L654.896 158.08L658.992 148.928H660.544ZM662.469 155.584C662.469 154.688 662.651 153.904 663.013 153.232C663.376 152.549 663.872 152.021 664.501 151.648C665.141 151.275 665.851 151.088 666.629 151.088C667.397 151.088 668.064 151.253 668.629 151.584C669.195 151.915 669.616 152.331 669.893 152.832V151.232H671.365V160H669.893V158.368C669.605 158.88 669.173 159.307 668.597 159.648C668.032 159.979 667.371 160.144 666.613 160.144C665.835 160.144 665.131 159.952 664.501 159.568C663.872 159.184 663.376 158.645 663.013 157.952C662.651 157.259 662.469 156.469 662.469 155.584ZM669.893 155.6C669.893 154.939 669.76 154.363 669.493 153.872C669.227 153.381 668.864 153.008 668.405 152.752C667.957 152.485 667.461 152.352 666.917 152.352C666.373 152.352 665.877 152.48 665.429 152.736C664.981 152.992 664.624 153.365 664.357 153.856C664.091 154.347 663.957 154.923 663.957 155.584C663.957 156.256 664.091 156.843 664.357 157.344C664.624 157.835 664.981 158.213 665.429 158.48C665.877 158.736 666.373 158.864 666.917 158.864C667.461 158.864 667.957 158.736 668.405 158.48C668.864 158.213 669.227 157.835 669.493 157.344C669.76 156.843 669.893 156.261 669.893 155.6ZM675.282 148.16V160H673.826V148.16H675.282ZM685.763 155.28C685.763 155.557 685.747 155.851 685.715 156.16H678.707C678.761 157.024 679.054 157.701 679.587 158.192C680.131 158.672 680.787 158.912 681.555 158.912C682.185 158.912 682.707 158.768 683.123 158.48C683.55 158.181 683.849 157.787 684.019 157.296H685.587C685.353 158.139 684.883 158.827 684.179 159.36C683.475 159.883 682.601 160.144 681.555 160.144C680.723 160.144 679.977 159.957 679.315 159.584C678.665 159.211 678.153 158.683 677.779 158C677.406 157.307 677.219 156.507 677.219 155.6C677.219 154.693 677.401 153.899 677.763 153.216C678.126 152.533 678.633 152.011 679.283 151.648C679.945 151.275 680.702 151.088 681.555 151.088C682.387 151.088 683.123 151.269 683.763 151.632C684.403 151.995 684.894 152.496 685.235 153.136C685.587 153.765 685.763 154.48 685.763 155.28ZM684.259 154.976C684.259 154.421 684.137 153.947 683.891 153.552C683.646 153.147 683.31 152.843 682.883 152.64C682.467 152.427 682.003 152.32 681.491 152.32C680.755 152.32 680.126 152.555 679.603 153.024C679.091 153.493 678.798 154.144 678.723 154.976H684.259Z" fill="black"/>
<rect x="411" y="137" width="39" height="23" fill="#FDC854"/>
<path d="M470.536 148.848V150.032H465.688V153.792H469.624V154.976H465.688V160H464.232V148.848H470.536ZM480.295 155.28C480.295 155.557 480.279 155.851 480.247 156.16H473.239C473.292 157.024 473.585 157.701 474.119 158.192C474.663 158.672 475.319 158.912 476.087 158.912C476.716 158.912 477.239 158.768 477.655 158.48C478.081 158.181 478.38 157.787 478.551 157.296H480.119C479.884 158.139 479.415 158.827 478.711 159.36C478.007 159.883 477.132 160.144 476.087 160.144C475.255 160.144 474.508 159.957 473.847 159.584C473.196 159.211 472.684 158.683 472.311 158C471.937 157.307 471.751 156.507 471.751 155.6C471.751 154.693 471.932 153.899 472.295 153.216C472.657 152.533 473.164 152.011 473.815 151.648C474.476 151.275 475.233 151.088 476.087 151.088C476.919 151.088 477.655 151.269 478.295 151.632C478.935 151.995 479.425 152.496 479.767 153.136C480.119 153.765 480.295 154.48 480.295 155.28ZM478.791 154.976C478.791 154.421 478.668 153.947 478.423 153.552C478.177 153.147 477.841 152.843 477.415 152.64C476.999 152.427 476.535 152.32 476.023 152.32C475.287 152.32 474.657 152.555 474.135 153.024C473.623 153.493 473.329 154.144 473.255 154.976H478.791ZM492.76 151.072C493.443 151.072 494.051 151.216 494.584 151.504C495.118 151.781 495.539 152.203 495.848 152.768C496.158 153.333 496.312 154.021 496.312 154.832V160H494.872V155.04C494.872 154.165 494.654 153.499 494.216 153.04C493.79 152.571 493.208 152.336 492.472 152.336C491.715 152.336 491.112 152.581 490.664 153.072C490.216 153.552 489.992 154.251 489.992 155.168V160H488.552V155.04C488.552 154.165 488.334 153.499 487.896 153.04C487.47 152.571 486.888 152.336 486.152 152.336C485.395 152.336 484.792 152.581 484.344 153.072C483.896 153.552 483.672 154.251 483.672 155.168V160H482.216V151.232H483.672V152.496C483.96 152.037 484.344 151.685 484.824 151.44C485.315 151.195 485.854 151.072 486.44 151.072C487.176 151.072 487.827 151.237 488.392 151.568C488.958 151.899 489.379 152.384 489.656 153.024C489.902 152.405 490.307 151.925 490.872 151.584C491.438 151.243 492.067 151.072 492.76 151.072ZM498.157 155.584C498.157 154.688 498.338 153.904 498.701 153.232C499.063 152.549 499.559 152.021 500.189 151.648C500.829 151.275 501.538 151.088 502.317 151.088C503.085 151.088 503.751 151.253 504.317 151.584C504.882 151.915 505.303 152.331 505.581 152.832V151.232H507.053V160H505.581V158.368C505.293 158.88 504.861 159.307 504.285 159.648C503.719 159.979 503.058 160.144 502.301 160.144C501.522 160.144 500.818 159.952 500.189 159.568C499.559 159.184 499.063 158.645 498.701 157.952C498.338 157.259 498.157 156.469 498.157 155.584ZM505.581 155.6C505.581 154.939 505.447 154.363 505.181 153.872C504.914 153.381 504.551 153.008 504.093 152.752C503.645 152.485 503.149 152.352 502.605 152.352C502.061 152.352 501.565 152.48 501.117 152.736C500.669 152.992 500.311 153.365 500.045 153.856C499.778 154.347 499.645 154.923 499.645 155.584C499.645 156.256 499.778 156.843 500.045 157.344C500.311 157.835 500.669 158.213 501.117 158.48C501.565 158.736 502.061 158.864 502.605 158.864C503.149 158.864 503.645 158.736 504.093 158.48C504.551 158.213 504.914 157.835 505.181 157.344C505.447 156.843 505.581 156.261 505.581 155.6ZM510.969 148.16V160H509.513V148.16H510.969ZM521.451 155.28C521.451 155.557 521.435 155.851 521.403 156.16H514.395C514.448 157.024 514.741 157.701 515.275 158.192C515.819 158.672 516.475 158.912 517.243 158.912C517.872 158.912 518.395 158.768 518.811 158.48C519.237 158.181 519.536 157.787 519.707 157.296H521.275C521.04 158.139 520.571 158.827 519.867 159.36C519.163 159.883 518.288 160.144 517.243 160.144C516.411 160.144 515.664 159.957 515.003 159.584C514.352 159.211 513.84 158.683 513.467 158C513.093 157.307 512.907 156.507 512.907 155.6C512.907 154.693 513.088 153.899 513.451 153.216C513.813 152.533 514.32 152.011 514.971 151.648C515.632 151.275 516.389 151.088 517.243 151.088C518.075 151.088 518.811 151.269 519.451 151.632C520.091 151.995 520.581 152.496 520.923 153.136C521.275 153.765 521.451 154.48 521.451 155.28ZM519.947 154.976C519.947 154.421 519.824 153.947 519.579 153.552C519.333 153.147 518.997 152.843 518.571 152.64C518.155 152.427 517.691 152.32 517.179 152.32C516.443 152.32 515.813 152.555 515.291 153.024C514.779 153.493 514.485 154.144 514.411 154.976H519.947Z" fill="black"/>
<path d="M381.786 81.3854C382.687 81.5463 383.451 82.0209 384.079 82.8091C384.706 83.5974 385.02 84.4902 385.02 85.4876C385.02 86.3402 384.795 87.1124 384.344 87.8041C383.91 88.4798 383.274 89.0187 382.438 89.4209C381.601 89.807 380.628 90 379.518 90H372.81V73.2293H379.204C380.347 73.2293 381.328 73.4224 382.148 73.8085C382.969 74.1946 383.588 74.7174 384.006 75.377C384.425 76.0204 384.634 76.7443 384.634 77.5487C384.634 78.5139 384.376 79.3183 383.862 79.9617C383.347 80.6052 382.655 81.0798 381.786 81.3854ZM375.561 80.2754H378.963C379.864 80.2754 380.564 80.0743 381.062 79.6722C381.577 79.2539 381.835 78.6587 381.835 77.8865C381.835 77.1304 381.577 76.5433 381.062 76.125C380.564 75.6907 379.864 75.4735 378.963 75.4735H375.561V80.2754ZM379.277 87.7559C380.21 87.7559 380.942 87.5307 381.473 87.0802C382.003 86.6298 382.269 86.0024 382.269 85.198C382.269 84.3776 381.987 83.7261 381.424 83.2435C380.861 82.7609 380.113 82.5196 379.18 82.5196H375.561V87.7559H379.277ZM405.673 73.2293V90H402.922V78.5139L397.806 90H395.9L390.76 78.5139V90H388.009V73.2293H390.977L396.865 86.3804L402.729 73.2293H405.673ZM412.039 73.2293V90H409.288V73.2293H412.039ZM432.754 73.2293V75.4735H428.289V90H425.539V75.4735H421.05V73.2293H432.754ZM438.29 78.6346C438.693 77.9589 439.223 77.4361 439.883 77.0661C440.559 76.68 441.355 76.487 442.272 76.487V79.3343H441.572C440.494 79.3343 439.674 79.6078 439.111 80.1548C438.564 80.7017 438.29 81.6509 438.29 83.0022V90H435.539V76.7041H438.29V78.6346ZM443.884 83.2917C443.884 81.9565 444.157 80.7741 444.704 79.7446C445.267 78.715 446.023 77.9187 446.972 77.3557C447.937 76.7765 448.999 76.487 450.157 76.487C451.203 76.487 452.112 76.6961 452.884 77.1143C453.672 77.5165 454.3 78.0233 454.766 78.6346V76.7041H457.541V90H454.766V88.0213C454.3 88.6487 453.664 89.1715 452.86 89.5898C452.056 90.008 451.139 90.2172 450.109 90.2172C448.967 90.2172 447.921 89.9276 446.972 89.3485C446.023 88.7533 445.267 87.9328 444.704 86.8872C444.157 85.8254 443.884 84.627 443.884 83.2917ZM454.766 83.34C454.766 82.423 454.573 81.6267 454.187 80.9511C453.817 80.2754 453.327 79.7607 452.715 79.4067C452.104 79.0528 451.444 78.8759 450.737 78.8759C450.029 78.8759 449.369 79.0528 448.758 79.4067C448.147 79.7446 447.648 80.2513 447.262 80.927C446.892 81.5865 446.707 82.3748 446.707 83.2917C446.707 84.2087 446.892 85.013 447.262 85.7048C447.648 86.3965 448.147 86.9274 448.758 87.2974C449.385 87.6513 450.045 87.8283 450.737 87.8283C451.444 87.8283 452.104 87.6513 452.715 87.2974C453.327 86.9435 453.817 86.4287 454.187 85.753C454.573 85.0613 454.766 84.257 454.766 83.34ZM460.238 83.34C460.238 81.9726 460.511 80.7741 461.058 79.7446C461.621 78.6989 462.393 77.8946 463.375 77.3315C464.356 76.7685 465.482 76.487 466.753 76.487C468.361 76.487 469.689 76.873 470.734 77.6452C471.796 78.4013 472.512 79.4872 472.882 80.9028H469.914C469.673 80.2433 469.286 79.7285 468.756 79.3585C468.225 78.9885 467.557 78.8035 466.753 78.8035C465.627 78.8035 464.726 79.2057 464.05 80.01C463.391 80.7983 463.061 81.9083 463.061 83.34C463.061 84.7717 463.391 85.8898 464.05 86.6941C464.726 87.4985 465.627 87.9007 466.753 87.9007C468.345 87.9007 469.399 87.2009 469.914 85.8013H472.882C472.496 87.1526 471.772 88.2304 470.71 89.0348C469.648 89.823 468.329 90.2172 466.753 90.2172C465.482 90.2172 464.356 89.9357 463.375 89.3726C462.393 88.7935 461.621 87.9891 461.058 86.9596C460.511 85.9139 460.238 84.7074 460.238 83.34ZM480.884 83.3641L487.013 90H483.297L478.374 84.2811V90H475.623V72.1435H478.374V82.5196L483.2 76.7041H487.013L480.884 83.3641ZM490.384 74.9426C489.885 74.9426 489.467 74.7737 489.129 74.4359C488.792 74.098 488.623 73.6798 488.623 73.1811C488.623 72.6824 488.792 72.2641 489.129 71.9263C489.467 71.5885 489.885 71.4196 490.384 71.4196C490.867 71.4196 491.277 71.5885 491.615 71.9263C491.953 72.2641 492.122 72.6824 492.122 73.1811C492.122 73.6798 491.953 74.098 491.615 74.4359C491.277 74.7737 490.867 74.9426 490.384 74.9426ZM491.735 76.7041V90H488.985V76.7041H491.735ZM502.055 76.487C503.101 76.487 504.034 76.7041 504.855 77.1385C505.691 77.5728 506.343 78.2163 506.809 79.0689C507.276 79.9215 507.509 80.9511 507.509 82.1576V90H504.782V82.5678C504.782 81.3774 504.485 80.4685 503.889 79.8411C503.294 79.1976 502.482 78.8759 501.452 78.8759C500.423 78.8759 499.602 79.1976 498.991 79.8411C498.396 80.4685 498.098 81.3774 498.098 82.5678V90H495.347V76.7041H498.098V78.2243C498.548 77.6774 499.12 77.2511 499.811 76.9454C500.519 76.6398 501.267 76.487 502.055 76.487ZM516.375 76.487C517.404 76.487 518.313 76.6961 519.101 77.1143C519.906 77.5165 520.533 78.0233 520.984 78.6346V76.7041H523.759V90.2172C523.759 91.4398 523.501 92.5257 522.986 93.4748C522.472 94.44 521.724 95.1961 520.742 95.743C519.777 96.29 518.619 96.5635 517.268 96.5635C515.466 96.5635 513.97 96.1372 512.779 95.2846C511.589 94.448 510.913 93.3059 510.752 91.858H513.479C513.688 92.5498 514.131 93.1048 514.806 93.523C515.498 93.9574 516.318 94.1746 517.268 94.1746C518.378 94.1746 519.27 93.8367 519.946 93.1611C520.638 92.4854 520.984 91.5041 520.984 90.2172V87.9972C520.517 88.6246 519.882 89.1554 519.077 89.5898C518.289 90.008 517.388 90.2172 516.375 90.2172C515.216 90.2172 514.155 89.9276 513.19 89.3485C512.24 88.7533 511.484 87.9328 510.921 86.8872C510.374 85.8254 510.101 84.627 510.101 83.2917C510.101 81.9565 510.374 80.7741 510.921 79.7446C511.484 78.715 512.24 77.9187 513.19 77.3557C514.155 76.7765 515.216 76.487 516.375 76.487ZM520.984 83.34C520.984 82.423 520.791 81.6267 520.405 80.9511C520.035 80.2754 519.544 79.7607 518.933 79.4067C518.321 79.0528 517.662 78.8759 516.954 78.8759C516.246 78.8759 515.586 79.0528 514.975 79.4067C514.364 79.7446 513.865 80.2513 513.479 80.927C513.109 81.5865 512.924 82.3748 512.924 83.2917C512.924 84.2087 513.109 85.013 513.479 85.7048C513.865 86.3965 514.364 86.9274 514.975 87.2974C515.603 87.6513 516.262 87.8283 516.954 87.8283C517.662 87.8283 518.321 87.6513 518.933 87.2974C519.544 86.9435 520.035 86.4287 520.405 85.753C520.791 85.0613 520.984 84.257 520.984 83.34ZM542.617 81.3854C543.517 81.5463 544.282 82.0209 544.909 82.8091C545.536 83.5974 545.85 84.4902 545.85 85.4876C545.85 86.3402 545.625 87.1124 545.174 87.8041C544.74 88.4798 544.105 89.0187 543.268 89.4209C542.432 89.807 541.458 90 540.348 90H533.64V73.2293H540.035C541.177 73.2293 542.158 73.4224 542.979 73.8085C543.799 74.1946 544.418 74.7174 544.837 75.377C545.255 76.0204 545.464 76.7443 545.464 77.5487C545.464 78.5139 545.207 79.3183 544.692 79.9617C544.177 80.6052 543.485 81.0798 542.617 81.3854ZM536.391 80.2754H539.793C540.694 80.2754 541.394 80.0743 541.893 79.6722C542.407 79.2539 542.665 78.6587 542.665 77.8865C542.665 77.1304 542.407 76.5433 541.893 76.125C541.394 75.6907 540.694 75.4735 539.793 75.4735H536.391V80.2754ZM540.107 87.7559C541.04 87.7559 541.772 87.5307 542.303 87.0802C542.834 86.6298 543.099 86.0024 543.099 85.198C543.099 84.3776 542.818 83.7261 542.255 83.2435C541.692 82.7609 540.944 82.5196 540.011 82.5196H536.391V87.7559H540.107ZM547.922 83.2917C547.922 81.9565 548.196 80.7741 548.743 79.7446C549.306 78.715 550.062 77.9187 551.011 77.3557C551.976 76.7765 553.038 76.487 554.196 76.487C555.242 76.487 556.151 76.6961 556.923 77.1143C557.711 77.5165 558.339 78.0233 558.805 78.6346V76.7041H561.58V90H558.805V88.0213C558.339 88.6487 557.703 89.1715 556.899 89.5898C556.095 90.008 555.178 90.2172 554.148 90.2172C553.006 90.2172 551.96 89.9276 551.011 89.3485C550.062 88.7533 549.306 87.9328 548.743 86.8872C548.196 85.8254 547.922 84.627 547.922 83.2917ZM558.805 83.34C558.805 82.423 558.612 81.6267 558.226 80.9511C557.856 80.2754 557.366 79.7607 556.754 79.4067C556.143 79.0528 555.483 78.8759 554.776 78.8759C554.068 78.8759 553.408 79.0528 552.797 79.4067C552.186 79.7446 551.687 80.2513 551.301 80.927C550.931 81.5865 550.746 82.3748 550.746 83.2917C550.746 84.2087 550.931 85.013 551.301 85.7048C551.687 86.3965 552.186 86.9274 552.797 87.2974C553.424 87.6513 554.084 87.8283 554.776 87.8283C555.483 87.8283 556.143 87.6513 556.754 87.2974C557.366 86.9435 557.856 86.4287 558.226 85.753C558.612 85.0613 558.805 84.257 558.805 83.34ZM567.944 78.6346C568.346 77.9589 568.877 77.4361 569.537 77.0661C570.213 76.68 571.009 76.487 571.926 76.487V79.3343H571.226C570.148 79.3343 569.328 79.6078 568.765 80.1548C568.218 80.7017 567.944 81.6509 567.944 83.0022V90H565.193V76.7041H567.944V78.6346ZM592.86 78.0554C592.426 77.2189 591.823 76.5915 591.051 76.1733C590.278 75.7389 589.386 75.5217 588.372 75.5217C587.262 75.5217 586.273 75.7711 585.404 76.2698C584.535 76.7685 583.852 77.4763 583.353 78.3933C582.87 79.3102 582.629 80.372 582.629 81.5785C582.629 82.785 582.87 83.8548 583.353 84.7878C583.852 85.7048 584.535 86.4126 585.404 86.9113C586.273 87.41 587.262 87.6593 588.372 87.6593C589.868 87.6593 591.083 87.2411 592.016 86.4046C592.949 85.568 593.52 84.4339 593.729 83.0022H587.431V80.8063H596.673V82.9539C596.496 84.257 596.029 85.4554 595.273 86.5493C594.533 87.6433 593.56 88.52 592.354 89.1796C591.163 89.823 589.836 90.1448 588.372 90.1448C586.796 90.1448 585.356 89.7828 584.053 89.0589C582.75 88.3189 581.712 87.2974 580.94 85.9943C580.184 84.6913 579.806 83.2193 579.806 81.5785C579.806 79.9376 580.184 78.4657 580.94 77.1626C581.712 75.8596 582.75 74.8461 584.053 74.1222C585.372 73.3822 586.812 73.0122 588.372 73.0122C590.158 73.0122 591.742 73.4546 593.126 74.3393C594.525 75.208 595.539 76.4467 596.166 78.0554H592.86ZM602.137 78.6346C602.539 77.9589 603.07 77.4361 603.73 77.0661C604.405 76.68 605.202 76.487 606.118 76.487V79.3343H605.419C604.341 79.3343 603.52 79.6078 602.957 80.1548C602.41 80.7017 602.137 81.6509 602.137 83.0022V90H599.386V76.7041H602.137V78.6346ZM607.73 83.2917C607.73 81.9565 608.004 80.7741 608.551 79.7446C609.114 78.715 609.87 77.9187 610.819 77.3557C611.784 76.7765 612.846 76.487 614.004 76.487C615.05 76.487 615.959 76.6961 616.731 77.1143C617.519 77.5165 618.146 78.0233 618.613 78.6346V76.7041H621.388V90H618.613V88.0213C618.146 88.6487 617.511 89.1715 616.707 89.5898C615.902 90.008 614.985 90.2172 613.956 90.2172C612.814 90.2172 611.768 89.9276 610.819 89.3485C609.87 88.7533 609.114 87.9328 608.551 86.8872C608.004 85.8254 607.73 84.627 607.73 83.2917ZM618.613 83.34C618.613 82.423 618.42 81.6267 618.034 80.9511C617.664 80.2754 617.173 79.7607 616.562 79.4067C615.951 79.0528 615.291 78.8759 614.583 78.8759C613.875 78.8759 613.216 79.0528 612.604 79.4067C611.993 79.7446 611.494 80.2513 611.108 80.927C610.738 81.5865 610.553 82.3748 610.553 83.2917C610.553 84.2087 610.738 85.013 611.108 85.7048C611.494 86.3965 611.993 86.9274 612.604 87.2974C613.232 87.6513 613.891 87.8283 614.583 87.8283C615.291 87.8283 615.951 87.6513 616.562 87.2974C617.173 86.9435 617.664 86.4287 618.034 85.753C618.42 85.0613 618.613 84.257 618.613 83.34ZM627.752 78.6587C628.218 78.0474 628.854 77.5326 629.658 77.1143C630.463 76.6961 631.372 76.487 632.385 76.487C633.543 76.487 634.597 76.7765 635.546 77.3557C636.511 77.9187 637.267 78.715 637.814 79.7446C638.361 80.7741 638.635 81.9565 638.635 83.2917C638.635 84.627 638.361 85.8254 637.814 86.8872C637.267 87.9328 636.511 88.7533 635.546 89.3485C634.597 89.9276 633.543 90.2172 632.385 90.2172C631.372 90.2172 630.471 90.0161 629.682 89.6139C628.894 89.1957 628.251 88.6809 627.752 88.0696V96.3222H625.001V76.7041H627.752V78.6587ZM635.836 83.2917C635.836 82.3748 635.643 81.5865 635.257 80.927C634.887 80.2513 634.388 79.7446 633.76 79.4067C633.149 79.0528 632.49 78.8759 631.782 78.8759C631.09 78.8759 630.43 79.0528 629.803 79.4067C629.192 79.7607 628.693 80.2754 628.307 80.9511C627.937 81.6267 627.752 82.423 627.752 83.34C627.752 84.257 627.937 85.0613 628.307 85.753C628.693 86.4287 629.192 86.9435 629.803 87.2974C630.43 87.6513 631.09 87.8283 631.782 87.8283C632.49 87.8283 633.149 87.6513 633.76 87.2974C634.388 86.9274 634.887 86.3965 635.257 85.7048C635.643 85.013 635.836 84.2087 635.836 83.2917ZM648.232 76.487C649.246 76.487 650.147 76.7041 650.935 77.1385C651.739 77.5728 652.367 78.2163 652.817 79.0689C653.284 79.9215 653.517 80.9511 653.517 82.1576V90H650.79V82.5678C650.79 81.3774 650.493 80.4685 649.897 79.8411C649.302 79.1976 648.49 78.8759 647.46 78.8759C646.431 78.8759 645.61 79.1976 644.999 79.8411C644.404 80.4685 644.106 81.3774 644.106 82.5678V90H641.355V72.1435H644.106V78.2485C644.573 77.6854 645.16 77.2511 645.868 76.9454C646.591 76.6398 647.38 76.487 648.232 76.487ZM664.452 86.2598C665.997 84.9246 667.211 83.8307 668.096 82.978C668.997 82.1093 669.745 81.2085 670.34 80.2754C670.935 79.3424 671.233 78.4093 671.233 77.4763C671.233 76.5111 671 75.755 670.533 75.208C670.083 74.6611 669.367 74.3876 668.386 74.3876C667.436 74.3876 666.696 74.6933 666.166 75.3046C665.651 75.8998 665.377 76.7041 665.345 77.7176H662.691C662.739 75.8837 663.286 74.4841 664.332 73.5189C665.393 72.5376 666.737 72.047 668.361 72.047C670.115 72.047 671.482 72.5296 672.464 73.4948C673.461 74.46 673.96 75.747 673.96 77.3557C673.96 78.5139 673.662 79.632 673.067 80.7098C672.488 81.7715 671.788 82.7287 670.968 83.5813C670.163 84.4178 669.134 85.3911 667.879 86.5011L666.793 87.4663H674.442V89.7587H662.715V87.7559L664.452 86.2598ZM676.859 80.9752C676.859 78.1922 677.325 76.0204 678.258 74.46C679.208 72.8835 680.832 72.0952 683.133 72.0952C685.433 72.0952 687.05 72.8835 687.983 74.46C688.932 76.0204 689.407 78.1922 689.407 80.9752C689.407 83.7904 688.932 85.9943 687.983 87.587C687.05 89.1635 685.433 89.9517 683.133 89.9517C680.832 89.9517 679.208 89.1635 678.258 87.587C677.325 85.9943 676.859 83.7904 676.859 80.9752ZM686.704 80.9752C686.704 79.6722 686.616 78.5702 686.439 77.6693C686.278 76.7685 685.94 76.0365 685.425 75.4735C684.91 74.8943 684.146 74.6048 683.133 74.6048C682.119 74.6048 681.355 74.8943 680.84 75.4735C680.326 76.0365 679.98 76.7685 679.803 77.6693C679.642 78.5702 679.562 79.6722 679.562 80.9752C679.562 82.3265 679.642 83.4607 679.803 84.3776C679.964 85.2946 680.302 86.0346 680.816 86.5976C681.347 87.1607 682.119 87.4422 683.133 87.4422C684.146 87.4422 684.91 87.1607 685.425 86.5976C685.956 86.0346 686.302 85.2946 686.463 84.3776C686.624 83.4607 686.704 82.3265 686.704 80.9752ZM693.838 86.2598C695.382 84.9246 696.597 83.8307 697.481 82.978C698.382 82.1093 699.13 81.2085 699.725 80.2754C700.321 79.3424 700.618 78.4093 700.618 77.4763C700.618 76.5111 700.385 75.755 699.919 75.208C699.468 74.6611 698.752 74.3876 697.771 74.3876C696.822 74.3876 696.082 74.6933 695.551 75.3046C695.036 75.8998 694.763 76.7041 694.73 77.7176H692.076C692.124 75.8837 692.671 74.4841 693.717 73.5189C694.779 72.5376 696.122 72.047 697.747 72.047C699.5 72.047 700.868 72.5296 701.849 73.4948C702.846 74.46 703.345 75.747 703.345 77.3557C703.345 78.5139 703.047 79.632 702.452 80.7098C701.873 81.7715 701.173 82.7287 700.353 83.5813C699.549 84.4178 698.519 85.3911 697.264 86.5011L696.178 87.4663H703.828V89.7587H692.1V87.7559L693.838 86.2598ZM706.196 76.7524C706.293 75.2563 706.864 74.09 707.909 73.2535C708.971 72.417 710.322 71.9987 711.963 71.9987C713.089 71.9987 714.063 72.1998 714.883 72.602C715.703 73.0041 716.323 73.5511 716.741 74.2428C717.159 74.9346 717.368 75.7148 717.368 76.5835C717.368 77.5809 717.103 78.4335 716.572 79.1413C716.041 79.8491 715.406 80.3237 714.666 80.565V80.6615C715.615 80.9511 716.355 81.482 716.886 82.2541C717.417 83.0102 717.682 83.9835 717.682 85.1739C717.682 86.123 717.465 86.9676 717.031 87.7076C716.596 88.4476 715.953 89.0348 715.1 89.4691C714.248 89.8874 713.226 90.0965 712.036 90.0965C710.298 90.0965 708.866 89.6541 707.74 88.7693C706.63 87.8685 706.035 86.5815 705.955 84.9085H708.609C708.673 85.7611 709.003 86.4609 709.598 87.0078C710.194 87.5387 710.998 87.8041 712.011 87.8041C712.993 87.8041 713.749 87.5387 714.28 87.0078C714.811 86.4609 715.076 85.7611 715.076 84.9085C715.076 83.7824 714.714 82.9861 713.99 82.5196C713.282 82.037 712.188 81.7957 710.708 81.7957H710.081V79.5274H710.733C712.036 79.5113 713.025 79.2941 713.701 78.8759C714.392 78.4576 714.738 77.798 714.738 76.8972C714.738 76.125 714.489 75.5137 713.99 75.0633C713.491 74.5967 712.784 74.3635 711.867 74.3635C710.966 74.3635 710.266 74.5967 709.767 75.0633C709.269 75.5137 708.971 76.0767 708.875 76.7524H706.196Z" fill="#0D3E5A"/>
<path d="M122.181 409.55H1025.45" stroke="black"/>
<path d="M122.181 206.35V409.55" stroke="black"/>
<path d="M113.118 409.55H122.181" stroke="black"/>
<path d="M98.7747 408.292C98.7747 406.916 98.9987 405.844 99.4467 405.076C99.8947 404.3 100.679 403.912 101.799 403.912C102.911 403.912 103.691 404.3 104.139 405.076C104.587 405.844 104.811 406.916 104.811 408.292C104.811 409.692 104.587 410.78 104.139 411.556C103.691 412.332 102.911 412.72 101.799 412.72C100.679 412.72 99.8947 412.332 99.4467 411.556C98.9987 410.78 98.7747 409.692 98.7747 408.292ZM103.731 408.292C103.731 407.596 103.683 407.008 103.587 406.528C103.499 406.04 103.311 405.648 103.023 405.352C102.743 405.056 102.335 404.908 101.799 404.908C101.255 404.908 100.839 405.056 100.551 405.352C100.271 405.648 100.083 406.04 99.9867 406.528C99.8987 407.008 99.8547 407.596 99.8547 408.292C99.8547 409.012 99.8987 409.616 99.9867 410.104C100.083 410.592 100.271 410.984 100.551 411.28C100.839 411.576 101.255 411.724 101.799 411.724C102.335 411.724 102.743 411.576 103.023 411.28C103.311 410.984 103.499 410.592 103.587 410.104C103.683 409.616 103.731 409.012 103.731 408.292Z" fill="black"/>
<path d="M113.118 358.75H122.181" stroke="black"/>
<path d="M104.307 354.192H100.095V356.928C100.279 356.672 100.551 356.464 100.911 356.304C101.271 356.136 101.659 356.052 102.075 356.052C102.739 356.052 103.279 356.192 103.695 356.472C104.111 356.744 104.407 357.1 104.583 357.54C104.767 357.972 104.859 358.432 104.859 358.92C104.859 359.496 104.751 360.012 104.535 360.468C104.319 360.924 103.987 361.284 103.539 361.548C103.099 361.812 102.551 361.944 101.895 361.944C101.055 361.944 100.375 361.728 99.8547 361.296C99.3347 360.864 99.0187 360.288 98.9067 359.568H99.9747C100.079 360.024 100.299 360.38 100.635 360.636C100.971 360.892 101.395 361.02 101.907 361.02C102.539 361.02 103.015 360.832 103.335 360.456C103.655 360.072 103.815 359.568 103.815 358.944C103.815 358.32 103.655 357.84 103.335 357.504C103.015 357.16 102.543 356.988 101.919 356.988C101.495 356.988 101.123 357.092 100.803 357.3C100.491 357.5 100.263 357.776 100.119 358.128H99.0867V353.232H104.307V354.192Z" fill="black"/>
<path d="M113.118 307.95H122.181" stroke="black"/>
<path d="M94.6429 303.44V302.444H96.8989V311.12H95.7949V303.44H94.6429ZM98.7747 306.692C98.7747 305.316 98.9987 304.244 99.4467 303.476C99.8947 302.7 100.679 302.312 101.799 302.312C102.911 302.312 103.691 302.7 104.139 303.476C104.587 304.244 104.811 305.316 104.811 306.692C104.811 308.092 104.587 309.18 104.139 309.956C103.691 310.732 102.911 311.12 101.799 311.12C100.679 311.12 99.8947 310.732 99.4467 309.956C98.9987 309.18 98.7747 308.092 98.7747 306.692ZM103.731 306.692C103.731 305.996 103.683 305.408 103.587 304.928C103.499 304.44 103.311 304.048 103.023 303.752C102.743 303.456 102.335 303.308 101.799 303.308C101.255 303.308 100.839 303.456 100.551 303.752C100.271 304.048 100.083 304.44 99.9867 304.928C99.8987 305.408 99.8547 305.996 99.8547 306.692C99.8547 307.412 99.8987 308.016 99.9867 308.504C100.083 308.992 100.271 309.384 100.551 309.68C100.839 309.976 101.255 310.124 101.799 310.124C102.335 310.124 102.743 309.976 103.023 309.68C103.311 309.384 103.499 308.992 103.587 308.504C103.683 308.016 103.731 307.412 103.731 306.692Z" fill="black"/>
<path d="M113.118 257.149H122.181" stroke="black"/>
<path d="M94.643 252.64V251.644H96.899V260.32H95.795V252.64H94.643ZM104.307 252.592H100.095V255.328C100.279 255.072 100.551 254.864 100.911 254.704C101.271 254.536 101.659 254.452 102.075 254.452C102.739 254.452 103.279 254.592 103.695 254.872C104.111 255.144 104.407 255.5 104.583 255.94C104.767 256.372 104.859 256.832 104.859 257.32C104.859 257.896 104.751 258.412 104.535 258.868C104.319 259.324 103.987 259.684 103.539 259.948C103.099 260.212 102.551 260.344 101.895 260.344C101.055 260.344 100.375 260.128 99.8547 259.696C99.3347 259.264 99.0187 258.688 98.9067 257.968H99.9747C100.079 258.424 100.299 258.78 100.635 259.036C100.971 259.292 101.395 259.42 101.907 259.42C102.539 259.42 103.015 259.232 103.335 258.856C103.655 258.472 103.815 257.968 103.815 257.344C103.815 256.72 103.655 256.24 103.335 255.904C103.015 255.56 102.543 255.388 101.919 255.388C101.495 255.388 101.123 255.492 100.803 255.7C100.491 255.9 100.263 256.176 100.119 256.528H99.0867V251.632H104.307V252.592Z" fill="black"/>
<path d="M113.118 206.35H122.181" stroke="black"/>
<path d="M91.7404 213.978C92.7564 213.162 93.5524 212.494 94.1284 211.974C94.7044 211.446 95.1884 210.898 95.5804 210.33C95.9804 209.754 96.1804 209.19 96.1804 208.638C96.1804 208.118 96.0524 207.71 95.7964 207.414C95.5484 207.11 95.1444 206.958 94.5844 206.958C94.0404 206.958 93.6164 207.13 93.3124 207.474C93.0164 207.81 92.8564 208.262 92.8324 208.83H91.7764C91.8084 207.934 92.0804 207.242 92.5924 206.754C93.1044 206.266 93.7644 206.022 94.5724 206.022C95.3964 206.022 96.0484 206.25 96.5284 206.706C97.0164 207.162 97.2604 207.79 97.2604 208.59C97.2604 209.254 97.0604 209.902 96.6604 210.534C96.2684 211.158 95.8204 211.71 95.3164 212.19C94.8124 212.662 94.1684 213.214 93.3844 213.846H97.5124V214.758H91.7404V213.978ZM98.7747 210.426C98.7747 209.05 98.9987 207.978 99.4467 207.21C99.8947 206.434 100.679 206.046 101.799 206.046C102.911 206.046 103.691 206.434 104.139 207.21C104.587 207.978 104.811 209.05 104.811 210.426C104.811 211.826 104.587 212.914 104.139 213.69C103.691 214.466 102.911 214.854 101.799 214.854C100.679 214.854 99.8947 214.466 99.4467 213.69C98.9987 212.914 98.7747 211.826 98.7747 210.426ZM103.731 210.426C103.731 209.73 103.683 209.142 103.587 208.662C103.499 208.174 103.311 207.782 103.023 207.486C102.743 207.19 102.335 207.042 101.799 207.042C101.255 207.042 100.839 207.19 100.551 207.486C100.271 207.782 100.083 208.174 99.9867 208.662C99.8987 209.142 99.8547 209.73 99.8547 210.426C99.8547 211.146 99.8987 211.75 99.9867 212.238C100.083 212.726 100.271 213.118 100.551 213.414C100.839 213.71 101.255 213.858 101.799 213.858C102.335 213.858 102.743 213.71 103.023 213.414C103.311 213.118 103.499 212.726 103.587 212.238C103.683 211.75 103.731 211.146 103.731 210.426Z" fill="black"/>
<path d="M122.181 409.55H1025.45" stroke="black"/>
<path d="M122.181 358.75H1025.45" stroke="black"/>
<path d="M122.181 307.95H1025.45" stroke="black"/>
<path d="M122.181 257.15H1025.45" stroke="black"/>
<path d="M122.181 206.35H1025.45" stroke="black"/>
<path d="M235.089 206.35V409.55" stroke="black"/>
<path d="M460.906 206.35V409.55" stroke="black"/>
<path d="M686.723 206.35V409.55" stroke="black"/>
<path d="M912.539 206.35V409.55" stroke="black"/>
<path d="M122.181 206.35V409.55" stroke="black"/>
<path d="M1025.45 206.35V409.55" stroke="black"/>
<path d="M144.763 338.43H230.86V409.55H144.763V338.43Z" fill="#0076BE"/>
<path d="M370.579 284.243H456.677V409.55H370.579V284.243Z" fill="#0076BE"/>
<path d="M596.396 382.457H682.493V409.55H596.396V382.457Z" fill="#0076BE"/>
<path d="M822.213 307.95H908.31V409.55H822.213V307.95Z" fill="#0076BE"/>
<path d="M236.902 305.781H322.999V409.55H236.902V305.781Z" fill="#FDC854"/>
<path d="M462.719 348.807H548.816V409.55H462.719V348.807Z" fill="#FDC854"/>
<path d="M688.535 358.931H774.633V409.55H688.535V358.931Z" fill="#FDC854"/>
<path d="M914.602 358.988H1000.52V409.661H914.602V358.988Z" fill="#FDC854"/>
<path d="M204.187 424.708V430C204.187 430.744 204.367 431.296 204.727 431.656C205.095 432.016 205.603 432.196 206.251 432.196C206.891 432.196 207.391 432.016 207.751 431.656C208.119 431.296 208.303 430.744 208.303 430V424.708H209.395V429.988C209.395 430.684 209.255 431.272 208.975 431.752C208.695 432.224 208.315 432.576 207.835 432.808C207.363 433.04 206.831 433.156 206.239 433.156C205.647 433.156 205.111 433.04 204.631 432.808C204.159 432.576 203.783 432.224 203.503 431.752C203.231 431.272 203.095 430.684 203.095 429.988V424.708H204.187ZM214.421 426.376C215.221 426.376 215.869 426.62 216.365 427.108C216.861 427.588 217.109 428.284 217.109 429.196V433.072H216.029V429.352C216.029 428.696 215.865 428.196 215.537 427.852C215.209 427.5 214.761 427.324 214.193 427.324C213.617 427.324 213.157 427.504 212.813 427.864C212.477 428.224 212.309 428.748 212.309 429.436V433.072H211.217V426.496H212.309V427.432C212.525 427.096 212.817 426.836 213.185 426.652C213.561 426.468 213.973 426.376 214.421 426.376ZM218.484 429.76C218.484 429.088 218.62 428.5 218.892 427.996C219.164 427.484 219.536 427.088 220.008 426.808C220.488 426.528 221.024 426.388 221.616 426.388C222.128 426.388 222.604 426.508 223.044 426.748C223.484 426.98 223.82 427.288 224.052 427.672V424.192H225.156V433.072H224.052V431.836C223.836 432.228 223.516 432.552 223.092 432.808C222.668 433.056 222.172 433.18 221.604 433.18C221.02 433.18 220.488 433.036 220.008 432.748C219.536 432.46 219.164 432.056 218.892 431.536C218.62 431.016 218.484 430.424 218.484 429.76ZM224.052 429.772C224.052 429.276 223.952 428.844 223.752 428.476C223.552 428.108 223.28 427.828 222.936 427.636C222.6 427.436 222.228 427.336 221.82 427.336C221.412 427.336 221.04 427.432 220.704 427.624C220.368 427.816 220.1 428.096 219.9 428.464C219.7 428.832 219.6 429.264 219.6 429.76C219.6 430.264 219.7 430.704 219.9 431.08C220.1 431.448 220.368 431.732 220.704 431.932C221.04 432.124 221.412 432.22 221.82 432.22C222.228 432.22 222.6 432.124 222.936 431.932C223.28 431.732 223.552 431.448 223.752 431.08C223.952 430.704 224.052 430.268 224.052 429.772ZM233.002 429.532C233.002 429.74 232.99 429.96 232.966 430.192H227.71C227.75 430.84 227.97 431.348 228.37 431.716C228.778 432.076 229.27 432.256 229.846 432.256C230.318 432.256 230.71 432.148 231.022 431.932C231.342 431.708 231.566 431.412 231.694 431.044H232.87C232.694 431.676 232.342 432.192 231.814 432.592C231.286 432.984 230.63 433.18 229.846 433.18C229.222 433.18 228.662 433.04 228.166 432.76C227.678 432.48 227.294 432.084 227.014 431.572C226.734 431.052 226.594 430.452 226.594 429.772C226.594 429.092 226.73 428.496 227.002 427.984C227.274 427.472 227.654 427.08 228.142 426.808C228.638 426.528 229.206 426.388 229.846 426.388C230.47 426.388 231.022 426.524 231.502 426.796C231.982 427.068 232.35 427.444 232.606 427.924C232.87 428.396 233.002 428.932 233.002 429.532ZM231.874 429.304C231.874 428.888 231.782 428.532 231.598 428.236C231.414 427.932 231.162 427.704 230.842 427.552C230.53 427.392 230.182 427.312 229.798 427.312C229.246 427.312 228.774 427.488 228.382 427.84C227.998 428.192 227.778 428.68 227.722 429.304H231.874ZM235.535 427.564C235.727 427.188 235.999 426.896 236.351 426.688C236.711 426.48 237.147 426.376 237.659 426.376V427.504H237.371C236.147 427.504 235.535 428.168 235.535 429.496V433.072H234.443V426.496H235.535V427.564ZM247.68 426.496L245.628 433.072H244.5L242.916 427.852L241.332 433.072H240.204L238.14 426.496H239.256L240.768 432.016L242.4 426.496H243.516L245.112 432.028L246.6 426.496H247.68ZM254.764 429.532C254.764 429.74 254.752 429.96 254.728 430.192H249.472C249.512 430.84 249.732 431.348 250.132 431.716C250.54 432.076 251.032 432.256 251.608 432.256C252.08 432.256 252.472 432.148 252.784 431.932C253.104 431.708 253.328 431.412 253.456 431.044H254.632C254.456 431.676 254.104 432.192 253.576 432.592C253.048 432.984 252.392 433.18 251.608 433.18C250.984 433.18 250.424 433.04 249.928 432.76C249.44 432.48 249.056 432.084 248.776 431.572C248.496 431.052 248.356 430.452 248.356 429.772C248.356 429.092 248.492 428.496 248.764 427.984C249.036 427.472 249.416 427.08 249.904 426.808C250.4 426.528 250.968 426.388 251.608 426.388C252.232 426.388 252.784 426.524 253.264 426.796C253.744 427.068 254.112 427.444 254.368 427.924C254.632 428.396 254.764 428.932 254.764 429.532ZM253.636 429.304C253.636 428.888 253.544 428.532 253.36 428.236C253.176 427.932 252.924 427.704 252.604 427.552C252.292 427.392 251.944 427.312 251.56 427.312C251.008 427.312 250.536 427.488 250.144 427.84C249.76 428.192 249.54 428.68 249.484 429.304H253.636ZM256.769 425.428C256.561 425.428 256.385 425.356 256.241 425.212C256.097 425.068 256.025 424.892 256.025 424.684C256.025 424.476 256.097 424.3 256.241 424.156C256.385 424.012 256.561 423.94 256.769 423.94C256.969 423.94 257.137 424.012 257.273 424.156C257.417 424.3 257.489 424.476 257.489 424.684C257.489 424.892 257.417 425.068 257.273 425.212C257.137 425.356 256.969 425.428 256.769 425.428ZM257.297 426.496V433.072H256.205V426.496H257.297ZM261.87 426.388C262.438 426.388 262.934 426.512 263.358 426.76C263.79 427.008 264.11 427.32 264.318 427.696V426.496H265.422V433.216C265.422 433.816 265.294 434.348 265.038 434.812C264.782 435.284 264.414 435.652 263.934 435.916C263.462 436.18 262.91 436.312 262.278 436.312C261.414 436.312 260.694 436.108 260.118 435.7C259.542 435.292 259.202 434.736 259.098 434.032H260.178C260.298 434.432 260.546 434.752 260.922 434.992C261.298 435.24 261.75 435.364 262.278 435.364C262.878 435.364 263.366 435.176 263.742 434.8C264.126 434.424 264.318 433.896 264.318 433.216V431.836C264.102 432.22 263.782 432.54 263.358 432.796C262.934 433.052 262.438 433.18 261.87 433.18C261.286 433.18 260.754 433.036 260.274 432.748C259.802 432.46 259.43 432.056 259.158 431.536C258.886 431.016 258.75 430.424 258.75 429.76C258.75 429.088 258.886 428.5 259.158 427.996C259.43 427.484 259.802 427.088 260.274 426.808C260.754 426.528 261.286 426.388 261.87 426.388ZM264.318 429.772C264.318 429.276 264.218 428.844 264.018 428.476C263.818 428.108 263.546 427.828 263.202 427.636C262.866 427.436 262.494 427.336 262.086 427.336C261.678 427.336 261.306 427.432 260.97 427.624C260.634 427.816 260.366 428.096 260.166 428.464C259.966 428.832 259.866 429.264 259.866 429.76C259.866 430.264 259.966 430.704 260.166 431.08C260.366 431.448 260.634 431.732 260.97 431.932C261.306 432.124 261.678 432.22 262.086 432.22C262.494 432.22 262.866 432.124 263.202 431.932C263.546 431.732 263.818 431.448 264.018 431.08C264.218 430.704 264.318 430.268 264.318 429.772ZM270.531 426.376C271.027 426.376 271.475 426.484 271.875 426.7C272.275 426.908 272.587 427.224 272.811 427.648C273.043 428.072 273.159 428.588 273.159 429.196V433.072H272.079V429.352C272.079 428.696 271.915 428.196 271.587 427.852C271.259 427.5 270.811 427.324 270.243 427.324C269.667 427.324 269.207 427.504 268.863 427.864C268.527 428.224 268.359 428.748 268.359 429.436V433.072H267.267V424.192H268.359V427.432C268.575 427.096 268.871 426.836 269.247 426.652C269.631 426.468 270.059 426.376 270.531 426.376ZM276.275 427.396V431.272C276.275 431.592 276.343 431.82 276.479 431.956C276.615 432.084 276.851 432.148 277.187 432.148H277.991V433.072H277.007C276.399 433.072 275.943 432.932 275.639 432.652C275.335 432.372 275.183 431.912 275.183 431.272V427.396H274.331V426.496H275.183V424.84H276.275V426.496H277.991V427.396H276.275Z" fill="black"/>
<path d="M451.959 433.072H450.867L446.475 426.412V433.072H445.383V424.696H446.475L450.867 431.344V424.696H451.959V433.072ZM456.688 433.18C456.072 433.18 455.512 433.04 455.008 432.76C454.512 432.48 454.12 432.084 453.832 431.572C453.552 431.052 453.412 430.452 453.412 429.772C453.412 429.1 453.556 428.508 453.844 427.996C454.14 427.476 454.54 427.08 455.044 426.808C455.548 426.528 456.112 426.388 456.736 426.388C457.36 426.388 457.924 426.528 458.428 426.808C458.932 427.08 459.328 427.472 459.616 427.984C459.912 428.496 460.06 429.092 460.06 429.772C460.06 430.452 459.908 431.052 459.604 431.572C459.308 432.084 458.904 432.48 458.392 432.76C457.88 433.04 457.312 433.18 456.688 433.18ZM456.688 432.22C457.08 432.22 457.448 432.128 457.792 431.944C458.136 431.76 458.412 431.484 458.62 431.116C458.836 430.748 458.944 430.3 458.944 429.772C458.944 429.244 458.84 428.796 458.632 428.428C458.424 428.06 458.152 427.788 457.816 427.612C457.48 427.428 457.116 427.336 456.724 427.336C456.324 427.336 455.956 427.428 455.62 427.612C455.292 427.788 455.028 428.06 454.828 428.428C454.628 428.796 454.528 429.244 454.528 429.772C454.528 430.308 454.624 430.76 454.816 431.128C455.016 431.496 455.28 431.772 455.608 431.956C455.936 432.132 456.296 432.22 456.688 432.22ZM462.588 427.564C462.78 427.188 463.052 426.896 463.404 426.688C463.764 426.48 464.2 426.376 464.712 426.376V427.504H464.424C463.2 427.504 462.588 428.168 462.588 429.496V433.072H461.496V426.496H462.588V427.564ZM473.881 426.376C474.393 426.376 474.849 426.484 475.249 426.7C475.649 426.908 475.965 427.224 476.197 427.648C476.429 428.072 476.545 428.588 476.545 429.196V433.072H475.465V429.352C475.465 428.696 475.301 428.196 474.973 427.852C474.653 427.5 474.217 427.324 473.665 427.324C473.097 427.324 472.645 427.508 472.309 427.876C471.973 428.236 471.805 428.76 471.805 429.448V433.072H470.725V429.352C470.725 428.696 470.561 428.196 470.233 427.852C469.913 427.5 469.477 427.324 468.925 427.324C468.357 427.324 467.905 427.508 467.569 427.876C467.233 428.236 467.065 428.76 467.065 429.448V433.072H465.973V426.496H467.065V427.444C467.281 427.1 467.569 426.836 467.929 426.652C468.297 426.468 468.701 426.376 469.141 426.376C469.693 426.376 470.181 426.5 470.605 426.748C471.029 426.996 471.345 427.36 471.553 427.84C471.737 427.376 472.041 427.016 472.465 426.76C472.889 426.504 473.361 426.376 473.881 426.376ZM477.928 429.76C477.928 429.088 478.064 428.5 478.336 427.996C478.608 427.484 478.98 427.088 479.452 426.808C479.932 426.528 480.464 426.388 481.048 426.388C481.624 426.388 482.124 426.512 482.548 426.76C482.972 427.008 483.288 427.32 483.496 427.696V426.496H484.6V433.072H483.496V431.848C483.28 432.232 482.956 432.552 482.524 432.808C482.1 433.056 481.604 433.18 481.036 433.18C480.452 433.18 479.924 433.036 479.452 432.748C478.98 432.46 478.608 432.056 478.336 431.536C478.064 431.016 477.928 430.424 477.928 429.76ZM483.496 429.772C483.496 429.276 483.396 428.844 483.196 428.476C482.996 428.108 482.724 427.828 482.38 427.636C482.044 427.436 481.672 427.336 481.264 427.336C480.856 427.336 480.484 427.432 480.148 427.624C479.812 427.816 479.544 428.096 479.344 428.464C479.144 428.832 479.044 429.264 479.044 429.76C479.044 430.264 479.144 430.704 479.344 431.08C479.544 431.448 479.812 431.732 480.148 431.932C480.484 432.124 480.856 432.22 481.264 432.22C481.672 432.22 482.044 432.124 482.38 431.932C482.724 431.732 482.996 431.448 483.196 431.08C483.396 430.704 483.496 430.268 483.496 429.772ZM487.537 424.192V433.072H486.445V424.192H487.537Z" fill="black"/>
<path d="M662.023 433.156C661.247 433.156 660.539 432.976 659.899 432.616C659.259 432.248 658.751 431.74 658.375 431.092C658.007 430.436 657.823 429.7 657.823 428.884C657.823 428.068 658.007 427.336 658.375 426.688C658.751 426.032 659.259 425.524 659.899 425.164C660.539 424.796 661.247 424.612 662.023 424.612C662.807 424.612 663.519 424.796 664.159 425.164C664.799 425.524 665.303 426.028 665.671 426.676C666.039 427.324 666.223 428.06 666.223 428.884C666.223 429.708 666.039 430.444 665.671 431.092C665.303 431.74 664.799 432.248 664.159 432.616C663.519 432.976 662.807 433.156 662.023 433.156ZM662.023 432.208C662.607 432.208 663.131 432.072 663.595 431.8C664.067 431.528 664.435 431.14 664.699 430.636C664.971 430.132 665.107 429.548 665.107 428.884C665.107 428.212 664.971 427.628 664.699 427.132C664.435 426.628 664.071 426.24 663.607 425.968C663.143 425.696 662.615 425.56 662.023 425.56C661.431 425.56 660.903 425.696 660.439 425.968C659.975 426.24 659.607 426.628 659.335 427.132C659.071 427.628 658.939 428.212 658.939 428.884C658.939 429.548 659.071 430.132 659.335 430.636C659.607 431.14 659.975 431.528 660.439 431.8C660.911 432.072 661.439 432.208 662.023 432.208ZM670.112 432.064L672.152 426.496H673.316L670.736 433.072H669.464L666.884 426.496H668.06L670.112 432.064ZM680.391 429.532C680.391 429.74 680.379 429.96 680.355 430.192H675.099C675.139 430.84 675.359 431.348 675.759 431.716C676.167 432.076 676.659 432.256 677.235 432.256C677.707 432.256 678.099 432.148 678.411 431.932C678.731 431.708 678.955 431.412 679.083 431.044H680.259C680.083 431.676 679.731 432.192 679.203 432.592C678.675 432.984 678.019 433.18 677.235 433.18C676.611 433.18 676.051 433.04 675.555 432.76C675.067 432.48 674.683 432.084 674.403 431.572C674.123 431.052 673.983 430.452 673.983 429.772C673.983 429.092 674.119 428.496 674.391 427.984C674.663 427.472 675.043 427.08 675.531 426.808C676.027 426.528 676.595 426.388 677.235 426.388C677.859 426.388 678.411 426.524 678.891 426.796C679.371 427.068 679.739 427.444 679.995 427.924C680.259 428.396 680.391 428.932 680.391 429.532ZM679.263 429.304C679.263 428.888 679.171 428.532 678.987 428.236C678.803 427.932 678.551 427.704 678.231 427.552C677.919 427.392 677.571 427.312 677.187 427.312C676.635 427.312 676.163 427.488 675.771 427.84C675.387 428.192 675.167 428.68 675.111 429.304H679.263ZM682.924 427.564C683.116 427.188 683.388 426.896 683.74 426.688C684.1 426.48 684.536 426.376 685.048 426.376V427.504H684.76C683.536 427.504 682.924 428.168 682.924 429.496V433.072H681.832V426.496H682.924V427.564ZM695.069 426.496L693.017 433.072H691.889L690.305 427.852L688.721 433.072H687.593L685.529 426.496H686.645L688.157 432.016L689.789 426.496H690.905L692.501 432.028L693.989 426.496H695.069ZM702.153 429.532C702.153 429.74 702.141 429.96 702.117 430.192H696.861C696.901 430.84 697.121 431.348 697.521 431.716C697.929 432.076 698.421 432.256 698.997 432.256C699.469 432.256 699.861 432.148 700.173 431.932C700.493 431.708 700.717 431.412 700.845 431.044H702.021C701.845 431.676 701.493 432.192 700.965 432.592C700.437 432.984 699.781 433.18 698.997 433.18C698.373 433.18 697.813 433.04 697.317 432.76C696.829 432.48 696.445 432.084 696.165 431.572C695.885 431.052 695.745 430.452 695.745 429.772C695.745 429.092 695.881 428.496 696.153 427.984C696.425 427.472 696.805 427.08 697.293 426.808C697.789 426.528 698.357 426.388 698.997 426.388C699.621 426.388 700.173 426.524 700.653 426.796C701.133 427.068 701.501 427.444 701.757 427.924C702.021 428.396 702.153 428.932 702.153 429.532ZM701.025 429.304C701.025 428.888 700.933 428.532 700.749 428.236C700.565 427.932 700.313 427.704 699.993 427.552C699.681 427.392 699.333 427.312 698.949 427.312C698.397 427.312 697.925 427.488 697.533 427.84C697.149 428.192 696.929 428.68 696.873 429.304H701.025ZM704.158 425.428C703.95 425.428 703.774 425.356 703.63 425.212C703.486 425.068 703.414 424.892 703.414 424.684C703.414 424.476 703.486 424.3 703.63 424.156C703.774 424.012 703.95 423.94 704.158 423.94C704.358 423.94 704.526 424.012 704.662 424.156C704.806 424.3 704.878 424.476 704.878 424.684C704.878 424.892 704.806 425.068 704.662 425.212C704.526 425.356 704.358 425.428 704.158 425.428ZM704.686 426.496V433.072H703.594V426.496H704.686ZM709.259 426.388C709.827 426.388 710.323 426.512 710.747 426.76C711.179 427.008 711.499 427.32 711.707 427.696V426.496H712.811V433.216C712.811 433.816 712.683 434.348 712.427 434.812C712.171 435.284 711.803 435.652 711.323 435.916C710.851 436.18 710.299 436.312 709.667 436.312C708.803 436.312 708.083 436.108 707.507 435.7C706.931 435.292 706.591 434.736 706.487 434.032H707.567C707.687 434.432 707.935 434.752 708.311 434.992C708.687 435.24 709.139 435.364 709.667 435.364C710.267 435.364 710.755 435.176 711.131 434.8C711.515 434.424 711.707 433.896 711.707 433.216V431.836C711.491 432.22 711.171 432.54 710.747 432.796C710.323 433.052 709.827 433.18 709.259 433.18C708.675 433.18 708.143 433.036 707.663 432.748C707.191 432.46 706.819 432.056 706.547 431.536C706.275 431.016 706.139 430.424 706.139 429.76C706.139 429.088 706.275 428.5 706.547 427.996C706.819 427.484 707.191 427.088 707.663 426.808C708.143 426.528 708.675 426.388 709.259 426.388ZM711.707 429.772C711.707 429.276 711.607 428.844 711.407 428.476C711.207 428.108 710.935 427.828 710.591 427.636C710.255 427.436 709.883 427.336 709.475 427.336C709.067 427.336 708.695 427.432 708.359 427.624C708.023 427.816 707.755 428.096 707.555 428.464C707.355 428.832 707.255 429.264 707.255 429.76C707.255 430.264 707.355 430.704 707.555 431.08C707.755 431.448 708.023 431.732 708.359 431.932C708.695 432.124 709.067 432.22 709.475 432.22C709.883 432.22 710.255 432.124 710.591 431.932C710.935 431.732 711.207 431.448 711.407 431.08C711.607 430.704 711.707 430.268 711.707 429.772ZM717.92 426.376C718.416 426.376 718.864 426.484 719.264 426.7C719.664 426.908 719.976 427.224 720.2 427.648C720.432 428.072 720.548 428.588 720.548 429.196V433.072H719.468V429.352C719.468 428.696 719.304 428.196 718.976 427.852C718.648 427.5 718.2 427.324 717.632 427.324C717.056 427.324 716.596 427.504 716.252 427.864C715.916 428.224 715.748 428.748 715.748 429.436V433.072H714.656V424.192H715.748V427.432C715.964 427.096 716.26 426.836 716.636 426.652C717.02 426.468 717.448 426.376 717.92 426.376ZM723.664 427.396V431.272C723.664 431.592 723.732 431.82 723.868 431.956C724.004 432.084 724.24 432.148 724.576 432.148H725.38V433.072H724.396C723.788 433.072 723.332 432.932 723.028 432.652C722.724 432.372 722.572 431.912 722.572 431.272V427.396H721.72V426.496H722.572V424.84H723.664V426.496H725.38V427.396H723.664Z" fill="black"/>
<path d="M53 343.605V344.697L46.34 349.089H53V350.181H44.624V349.089L51.272 344.697H44.624V343.605H53ZM53.108 338.876C53.108 339.492 52.968 340.052 52.688 340.556C52.408 341.052 52.012 341.444 51.5 341.732C50.98 342.012 50.38 342.152 49.7 342.152C49.028 342.152 48.436 342.008 47.924 341.72C47.404 341.424 47.008 341.024 46.736 340.52C46.456 340.016 46.316 339.452 46.316 338.828C46.316 338.204 46.456 337.64 46.736 337.136C47.008 336.632 47.4 336.236 47.912 335.948C48.424 335.652 49.02 335.504 49.7 335.504C50.38 335.504 50.98 335.656 51.5 335.96C52.012 336.256 52.408 336.66 52.688 337.172C52.968 337.684 53.108 338.252 53.108 338.876ZM52.148 338.876C52.148 338.484 52.056 338.116 51.872 337.772C51.688 337.428 51.412 337.152 51.044 336.944C50.676 336.728 50.228 336.62 49.7 336.62C49.172 336.62 48.724 336.724 48.356 336.932C47.988 337.14 47.716 337.412 47.54 337.748C47.356 338.084 47.264 338.448 47.264 338.84C47.264 339.24 47.356 339.608 47.54 339.944C47.716 340.272 47.988 340.536 48.356 340.736C48.724 340.936 49.172 341.036 49.7 341.036C50.236 341.036 50.688 340.94 51.056 340.748C51.424 340.548 51.7 340.284 51.884 339.956C52.06 339.628 52.148 339.268 52.148 338.876ZM53.072 333.72C53.072 333.928 53 334.104 52.856 334.248C52.712 334.392 52.536 334.464 52.328 334.464C52.12 334.464 51.944 334.392 51.8 334.248C51.656 334.104 51.584 333.928 51.584 333.72C51.584 333.52 51.656 333.352 51.8 333.216C51.944 333.072 52.12 333 52.328 333C52.536 333 52.712 333.072 52.856 333.216C53 333.352 53.072 333.52 53.072 333.72ZM53.108 325.481C53.108 326.097 52.968 326.657 52.688 327.161C52.408 327.657 52.012 328.049 51.5 328.337C50.98 328.617 50.38 328.757 49.7 328.757C49.028 328.757 48.436 328.613 47.924 328.325C47.404 328.029 47.008 327.629 46.736 327.125C46.456 326.621 46.316 326.057 46.316 325.433C46.316 324.809 46.456 324.245 46.736 323.741C47.008 323.237 47.4 322.841 47.912 322.553C48.424 322.257 49.02 322.109 49.7 322.109C50.38 322.109 50.98 322.261 51.5 322.565C52.012 322.861 52.408 323.265 52.688 323.777C52.968 324.289 53.108 324.857 53.108 325.481ZM52.148 325.481C52.148 325.089 52.056 324.721 51.872 324.377C51.688 324.033 51.412 323.757 51.044 323.549C50.676 323.333 50.228 323.225 49.7 323.225C49.172 323.225 48.724 323.329 48.356 323.537C47.988 323.745 47.716 324.017 47.54 324.353C47.356 324.689 47.264 325.053 47.264 325.445C47.264 325.845 47.356 326.213 47.54 326.549C47.716 326.877 47.988 327.141 48.356 327.341C48.724 327.541 49.172 327.641 49.7 327.641C50.236 327.641 50.688 327.545 51.056 327.353C51.424 327.153 51.7 326.889 51.884 326.561C52.06 326.233 52.148 325.873 52.148 325.481ZM47.324 317.998V319.378H53V320.47H47.324V321.322H46.424V320.47H45.956C45.22 320.47 44.684 320.282 44.348 319.906C44.004 319.522 43.832 318.91 43.832 318.07H44.744C44.744 318.55 44.84 318.89 45.032 319.09C45.216 319.282 45.524 319.378 45.956 319.378H46.424V317.998H47.324ZM48.812 313.933C47.996 313.933 47.264 313.749 46.616 313.381C45.96 313.013 45.448 312.513 45.08 311.881C44.712 311.241 44.528 310.533 44.528 309.757C44.528 308.845 44.748 308.049 45.188 307.369C45.628 306.689 46.252 306.193 47.06 305.881V307.189C46.556 307.421 46.168 307.757 45.896 308.197C45.624 308.629 45.488 309.149 45.488 309.757C45.488 310.341 45.624 310.865 45.896 311.329C46.168 311.793 46.556 312.157 47.06 312.421C47.556 312.685 48.14 312.817 48.812 312.817C49.476 312.817 50.06 312.685 50.564 312.421C51.06 312.157 51.444 311.793 51.716 311.329C51.988 310.865 52.124 310.341 52.124 309.757C52.124 309.149 51.992 308.629 51.728 308.197C51.456 307.757 51.068 307.421 50.564 307.189V305.881C51.364 306.193 51.984 306.689 52.424 307.369C52.856 308.049 53.072 308.845 53.072 309.757C53.072 310.533 52.892 311.241 52.532 311.881C52.164 312.513 51.656 313.013 51.008 313.381C50.36 313.749 49.628 313.933 48.812 313.933ZM46.304 300.992C46.304 300.496 46.412 300.048 46.628 299.648C46.836 299.248 47.152 298.936 47.576 298.712C48 298.48 48.516 298.364 49.124 298.364H53V299.444H49.28C48.624 299.444 48.124 299.608 47.78 299.936C47.428 300.264 47.252 300.712 47.252 301.28C47.252 301.856 47.432 302.316 47.792 302.66C48.152 302.996 48.676 303.164 49.364 303.164H53V304.256H44.12L44.12 303.164H47.36C47.024 302.948 46.764 302.652 46.58 302.276C46.396 301.892 46.304 301.464 46.304 300.992ZM45.356 296.016C45.356 296.224 45.284 296.4 45.14 296.544C44.996 296.688 44.82 296.76 44.612 296.76C44.404 296.76 44.228 296.688 44.084 296.544C43.94 296.4 43.868 296.224 43.868 296.016C43.868 295.816 43.94 295.648 44.084 295.512C44.228 295.368 44.404 295.296 44.612 295.296C44.82 295.296 44.996 295.368 45.14 295.512C45.284 295.648 45.356 295.816 45.356 296.016ZM46.424 295.488H53L53 296.58H46.424V295.488ZM44.12 292.535H53V293.627H44.12V292.535ZM49.688 291.082C49.016 291.082 48.428 290.946 47.924 290.674C47.412 290.402 47.016 290.03 46.736 289.558C46.456 289.078 46.316 288.542 46.316 287.95C46.316 287.438 46.436 286.962 46.676 286.522C46.908 286.082 47.216 285.746 47.6 285.514H44.12V284.41H53V285.514H51.764C52.156 285.73 52.48 286.05 52.736 286.474C52.984 286.898 53.108 287.394 53.108 287.962C53.108 288.546 52.964 289.078 52.676 289.558C52.388 290.03 51.984 290.402 51.464 290.674C50.944 290.946 50.352 291.082 49.688 291.082ZM49.7 285.514C49.204 285.514 48.772 285.614 48.404 285.814C48.036 286.014 47.756 286.286 47.564 286.63C47.364 286.966 47.264 287.338 47.264 287.746C47.264 288.154 47.36 288.526 47.552 288.862C47.744 289.198 48.024 289.466 48.392 289.666C48.76 289.866 49.192 289.966 49.688 289.966C50.192 289.966 50.632 289.866 51.008 289.666C51.376 289.466 51.66 289.198 51.86 288.862C52.052 288.526 52.148 288.154 52.148 287.746C52.148 287.338 52.052 286.966 51.86 286.63C51.66 286.286 51.376 286.014 51.008 285.814C50.632 285.614 50.196 285.514 49.7 285.514ZM47.492 281.472C47.116 281.28 46.824 281.008 46.616 280.656C46.408 280.296 46.304 279.86 46.304 279.348H47.432V279.636C47.432 280.86 48.096 281.472 49.424 281.472H53V282.564H46.424V281.472H47.492ZM49.46 272.088C49.668 272.088 49.888 272.1 50.12 272.124V277.38C50.768 277.34 51.276 277.12 51.644 276.72C52.004 276.312 52.184 275.82 52.184 275.244C52.184 274.772 52.076 274.38 51.86 274.068C51.636 273.748 51.34 273.524 50.972 273.396V272.22C51.604 272.396 52.12 272.748 52.52 273.276C52.912 273.804 53.108 274.46 53.108 275.244C53.108 275.868 52.968 276.428 52.688 276.924C52.408 277.412 52.012 277.796 51.5 278.076C50.98 278.356 50.38 278.496 49.7 278.496C49.02 278.496 48.424 278.36 47.912 278.088C47.4 277.816 47.008 277.436 46.736 276.948C46.456 276.452 46.316 275.884 46.316 275.244C46.316 274.62 46.452 274.068 46.724 273.588C46.996 273.108 47.372 272.74 47.852 272.484C48.324 272.22 48.86 272.088 49.46 272.088ZM49.232 273.216C48.816 273.216 48.46 273.308 48.164 273.492C47.86 273.676 47.632 273.928 47.48 274.248C47.32 274.56 47.24 274.908 47.24 275.292C47.24 275.844 47.416 276.316 47.768 276.708C48.12 277.092 48.608 277.312 49.232 277.368V273.216ZM46.304 267.442C46.304 266.642 46.548 265.994 47.036 265.498C47.516 265.002 48.212 264.754 49.124 264.754H53V265.834H49.28C48.624 265.834 48.124 265.998 47.78 266.326C47.428 266.654 47.252 267.102 47.252 267.67C47.252 268.246 47.432 268.706 47.792 269.05C48.152 269.386 48.676 269.554 49.364 269.554H53V270.646H46.424V269.554H47.36C47.024 269.338 46.764 269.046 46.58 268.678C46.396 268.302 46.304 267.89 46.304 267.442ZM64.424 318.433H71V319.525H70.028C70.364 319.733 70.628 320.025 70.82 320.401C71.004 320.769 71.096 321.177 71.096 321.625C71.096 322.137 70.992 322.597 70.784 323.005C70.568 323.413 70.248 323.737 69.824 323.977C69.4 324.209 68.884 324.325 68.276 324.325H64.424V323.245H68.132C68.78 323.245 69.28 323.081 69.632 322.753C69.976 322.425 70.148 321.977 70.148 321.409C70.148 320.825 69.968 320.365 69.608 320.029C69.248 319.693 68.724 319.525 68.036 319.525H64.424V318.433ZM64.304 313.386C64.304 312.586 64.548 311.938 65.036 311.442C65.516 310.946 66.212 310.698 67.124 310.698H71V311.778H67.28C66.624 311.778 66.124 311.942 65.78 312.27C65.428 312.598 65.252 313.046 65.252 313.614C65.252 314.19 65.432 314.65 65.792 314.994C66.152 315.33 66.676 315.498 67.364 315.498H71V316.59H64.424V315.498H65.36C65.024 315.282 64.764 314.99 64.58 314.622C64.396 314.246 64.304 313.834 64.304 313.386ZM67.688 309.322C67.016 309.322 66.428 309.186 65.924 308.914C65.412 308.642 65.016 308.27 64.736 307.798C64.456 307.318 64.316 306.782 64.316 306.19C64.316 305.678 64.436 305.202 64.676 304.762C64.908 304.322 65.216 303.986 65.6 303.754H62.12V302.65H71V303.754H69.764C70.156 303.97 70.48 304.29 70.736 304.714C70.984 305.138 71.108 305.634 71.108 306.202C71.108 306.786 70.964 307.318 70.676 307.798C70.388 308.27 69.984 308.642 69.464 308.914C68.944 309.186 68.352 309.322 67.688 309.322ZM67.7 303.754C67.204 303.754 66.772 303.854 66.404 304.054C66.036 304.254 65.756 304.526 65.564 304.87C65.364 305.206 65.264 305.578 65.264 305.986C65.264 306.394 65.36 306.766 65.552 307.102C65.744 307.438 66.024 307.706 66.392 307.906C66.76 308.106 67.192 308.206 67.688 308.206C68.192 308.206 68.632 308.106 69.008 307.906C69.376 307.706 69.66 307.438 69.86 307.102C70.052 306.766 70.148 306.394 70.148 305.986C70.148 305.578 70.052 305.206 69.86 304.87C69.66 304.526 69.376 304.254 69.008 304.054C68.632 303.854 68.196 303.754 67.7 303.754ZM67.46 294.805C67.668 294.805 67.888 294.817 68.12 294.841V300.097C68.768 300.057 69.276 299.837 69.644 299.437C70.004 299.029 70.184 298.537 70.184 297.961C70.184 297.489 70.076 297.097 69.86 296.785C69.636 296.465 69.34 296.241 68.972 296.113V294.937C69.604 295.113 70.12 295.465 70.52 295.993C70.912 296.521 71.108 297.177 71.108 297.961C71.108 298.585 70.968 299.145 70.688 299.641C70.408 300.129 70.012 300.513 69.5 300.793C68.98 301.073 68.38 301.213 67.7 301.213C67.02 301.213 66.424 301.077 65.912 300.805C65.4 300.533 65.008 300.153 64.736 299.665C64.456 299.169 64.316 298.601 64.316 297.961C64.316 297.337 64.452 296.785 64.724 296.305C64.996 295.825 65.372 295.457 65.852 295.201C66.324 294.937 66.86 294.805 67.46 294.805ZM67.232 295.933C66.816 295.933 66.46 296.025 66.164 296.209C65.86 296.393 65.632 296.645 65.48 296.965C65.32 297.277 65.24 297.625 65.24 298.009C65.24 298.561 65.416 299.033 65.768 299.425C66.12 299.809 66.608 300.029 67.232 300.085V295.933ZM65.492 292.271C65.116 292.079 64.824 291.807 64.616 291.455C64.408 291.095 64.304 290.659 64.304 290.147H65.432V290.435C65.432 291.659 66.096 292.271 67.424 292.271H71V293.363H64.424V292.271H65.492ZM84.692 338.353C84.74 338.049 84.864 337.773 85.064 337.525C85.264 337.269 85.512 337.069 85.808 336.925C86.104 336.773 86.42 336.697 86.756 336.697C87.18 336.697 87.564 336.805 87.908 337.021C88.244 337.237 88.512 337.553 88.712 337.969C88.904 338.377 89 338.861 89 339.421V342.541H80.636V339.541C80.636 338.973 80.732 338.489 80.924 338.089C81.108 337.689 81.36 337.389 81.68 337.189C82 336.989 82.36 336.889 82.76 336.889C83.256 336.889 83.668 337.025 83.996 337.297C84.316 337.561 84.548 337.913 84.692 338.353ZM84.248 341.449V339.613C84.248 339.101 84.128 338.705 83.888 338.425C83.648 338.145 83.316 338.005 82.892 338.005C82.468 338.005 82.136 338.145 81.896 338.425C81.656 338.705 81.536 339.109 81.536 339.637V341.449H84.248ZM88.1 339.517C88.1 338.973 87.972 338.549 87.716 338.245C87.46 337.941 87.104 337.789 86.648 337.789C86.184 337.789 85.82 337.949 85.556 338.269C85.284 338.589 85.148 339.017 85.148 339.553V341.449H88.1V339.517ZM80.696 326.697H89V327.789H82.808L89 330.549V331.317L82.796 334.089H89V335.181H80.696V334.005L87.56 330.933L80.696 327.861V326.697ZM80.636 323.754H89V324.846H80.636V323.754ZM80.636 313.545H81.524V315.825H89V316.917H81.524V319.209H80.636V313.545ZM83.492 311.109C83.116 310.917 82.824 310.645 82.616 310.293C82.408 309.933 82.304 309.497 82.304 308.985H83.432V309.273C83.432 310.497 84.096 311.109 85.424 311.109H89V312.201H82.424V311.109H83.492ZM85.688 308.132C85.016 308.132 84.428 307.996 83.924 307.724C83.412 307.452 83.016 307.08 82.736 306.608C82.456 306.128 82.316 305.596 82.316 305.012C82.316 304.436 82.44 303.936 82.688 303.512C82.936 303.088 83.248 302.772 83.624 302.564H82.424V301.46H89V302.564H87.776C88.16 302.78 88.48 303.104 88.736 303.536C88.984 303.96 89.108 304.456 89.108 305.024C89.108 305.608 88.964 306.136 88.676 306.608C88.388 307.08 87.984 307.452 87.464 307.724C86.944 307.996 86.352 308.132 85.688 308.132ZM85.7 302.564C85.204 302.564 84.772 302.664 84.404 302.864C84.036 303.064 83.756 303.336 83.564 303.68C83.364 304.016 83.264 304.388 83.264 304.796C83.264 305.204 83.36 305.576 83.552 305.912C83.744 306.248 84.024 306.516 84.392 306.716C84.76 306.916 85.192 307.016 85.688 307.016C86.192 307.016 86.632 306.916 87.008 306.716C87.376 306.516 87.66 306.248 87.86 305.912C88.052 305.576 88.148 305.204 88.148 304.796C88.148 304.388 88.052 304.016 87.86 303.68C87.66 303.336 87.376 303.064 87.008 302.864C86.632 302.664 86.196 302.564 85.7 302.564ZM85.7 300.023C85.02 300.023 84.428 299.887 83.924 299.615C83.412 299.343 83.016 298.967 82.736 298.487C82.456 297.999 82.316 297.443 82.316 296.819C82.316 296.011 82.512 295.347 82.904 294.827C83.296 294.299 83.84 293.951 84.536 293.783V294.959C84.136 295.071 83.82 295.291 83.588 295.619C83.356 295.939 83.24 296.339 83.24 296.819C83.24 297.443 83.456 297.947 83.888 298.331C84.312 298.715 84.916 298.907 85.7 298.907C86.492 298.907 87.104 298.715 87.536 298.331C87.968 297.947 88.184 297.443 88.184 296.819C88.184 296.339 88.072 295.939 87.848 295.619C87.624 295.299 87.304 295.079 86.888 294.959V293.783C87.56 293.959 88.1 294.311 88.508 294.839C88.908 295.367 89.108 296.027 89.108 296.819C89.108 297.443 88.968 297.999 88.688 298.487C88.408 298.967 88.012 299.343 87.5 299.615C86.988 299.887 86.388 300.023 85.7 300.023ZM89 288.654L86.096 291.234H89V292.326H80.12V291.234H85.34L82.424 288.702V287.178L85.7 290.274L89 287.166V288.654ZM81.356 285.586C81.356 285.794 81.284 285.97 81.14 286.114C80.996 286.258 80.82 286.33 80.612 286.33C80.404 286.33 80.228 286.258 80.084 286.114C79.94 285.97 79.868 285.794 79.868 285.586C79.868 285.386 79.94 285.218 80.084 285.082C80.228 284.938 80.404 284.866 80.612 284.866C80.82 284.866 80.996 284.938 81.14 285.082C81.284 285.218 81.356 285.386 81.356 285.586ZM82.424 285.058H89V286.15H82.424V285.058ZM82.304 279.993C82.304 279.193 82.548 278.545 83.036 278.049C83.516 277.553 84.212 277.305 85.124 277.305H89V278.385H85.28C84.624 278.385 84.124 278.549 83.78 278.877C83.428 279.205 83.252 279.653 83.252 280.221C83.252 280.797 83.432 281.257 83.792 281.601C84.152 281.937 84.676 282.105 85.364 282.105H89V283.197H82.424V282.105H83.36C83.024 281.889 82.764 281.597 82.58 281.229C82.396 280.853 82.304 280.441 82.304 279.993ZM82.316 272.809C82.316 272.241 82.44 271.745 82.688 271.321C82.936 270.889 83.248 270.569 83.624 270.361H82.424V269.257H89.144C89.744 269.257 90.276 269.385 90.74 269.641C91.212 269.897 91.58 270.265 91.844 270.745C92.108 271.217 92.24 271.769 92.24 272.401C92.24 273.265 92.036 273.985 91.628 274.561C91.22 275.137 90.664 275.477 89.96 275.581V274.501C90.36 274.381 90.68 274.133 90.92 273.757C91.168 273.381 91.292 272.929 91.292 272.401C91.292 271.801 91.104 271.313 90.728 270.937C90.352 270.553 89.824 270.361 89.144 270.361H87.764C88.148 270.577 88.468 270.897 88.724 271.321C88.98 271.745 89.108 272.241 89.108 272.809C89.108 273.393 88.964 273.925 88.676 274.405C88.388 274.877 87.984 275.249 87.464 275.521C86.944 275.793 86.352 275.929 85.688 275.929C85.016 275.929 84.428 275.793 83.924 275.521C83.412 275.249 83.016 274.877 82.736 274.405C82.456 273.925 82.316 273.393 82.316 272.809ZM85.7 270.361C85.204 270.361 84.772 270.461 84.404 270.661C84.036 270.861 83.756 271.133 83.564 271.477C83.364 271.813 83.264 272.185 83.264 272.593C83.264 273.001 83.36 273.373 83.552 273.709C83.744 274.045 84.024 274.313 84.392 274.513C84.76 274.713 85.192 274.813 85.688 274.813C86.192 274.813 86.632 274.713 87.008 274.513C87.376 274.313 87.66 274.045 87.86 273.709C88.052 273.373 88.148 273.001 88.148 272.593C88.148 272.185 88.052 271.813 87.86 271.477C87.66 271.133 87.376 270.861 87.008 270.661C86.632 270.461 86.196 270.361 85.7 270.361Z" fill="black"/>
<defs>
<filter id="filter0_d_897_12" x="0" y="0" width="1091" height="540" filterUnits="userSpaceOnUse" color-interpolation-filters="sRGB">
<feFlood flood-opacity="0" result="BackgroundImageFix"/>
<feColorMatrix in="SourceAlpha" type="matrix" values="0 0 0 0 0 0 0 0 0 0 0 0 0 0 0 0 0 0 127 0" result="hardAlpha"/>
<feOffset dy="4"/>
<feGaussianBlur stdDeviation="2"/>
<feComposite in2="hardAlpha" operator="out"/>
<feColorMatrix type="matrix" values="0 0 0 0 0 0 0 0 0 0 0 0 0 0 0 0 0 0 0.25 0"/>
<feBlend mode="normal" in2="BackgroundImageFix" result="effect1_dropShadow_897_12"/>
<feBlend mode="normal" in="SourceGraphic" in2="effect1_dropShadow_897_12" result="shape"/>
</filter>
</defs>
</svg>
