<svg width="35" height="13" viewBox="0 0 35 13" fill="none" xmlns="http://www.w3.org/2000/svg">
<path d="M0.409091 0.363636H2.09091L6.04545 10.0227H6.18182L10.1364 0.363636H11.8182V12H10.5V3.15909H10.3864L6.75 12H5.47727L1.84091 3.15909H1.72727V12H0.409091V0.363636ZM17.0298 12.2045C16.4768 12.2045 15.9749 12.1004 15.5241 11.892C15.0734 11.6799 14.7154 11.375 14.4503 10.9773C14.1851 10.5758 14.0526 10.0909 14.0526 9.52273C14.0526 9.02273 14.151 8.61742 14.348 8.30682C14.545 7.99242 14.8082 7.74621 15.1378 7.56818C15.4673 7.39015 15.831 7.25758 16.2287 7.17045C16.6302 7.07955 17.0336 7.00758 17.4389 6.95455C17.9692 6.88636 18.3991 6.83523 18.7287 6.80114C19.062 6.76326 19.3045 6.70076 19.456 6.61364C19.6113 6.52652 19.6889 6.375 19.6889 6.15909V6.11364C19.6889 5.55303 19.5355 5.11742 19.2287 4.80682C18.9257 4.49621 18.4654 4.34091 17.848 4.34091C17.2079 4.34091 16.706 4.48106 16.3423 4.76136C15.9787 5.04167 15.723 5.34091 15.5753 5.65909L14.3026 5.20455C14.5298 4.67424 14.8329 4.26136 15.2116 3.96591C15.5942 3.66667 16.0109 3.45833 16.4616 3.34091C16.9162 3.2197 17.3632 3.15909 17.8026 3.15909C18.0829 3.15909 18.4048 3.19318 18.7685 3.26136C19.1359 3.32576 19.4901 3.46023 19.831 3.66477C20.1757 3.86932 20.4616 4.17803 20.6889 4.59091C20.9162 5.00379 21.0298 5.55682 21.0298 6.25V12H19.6889V10.8182H19.6207C19.5298 11.0076 19.3783 11.2102 19.1662 11.4261C18.9541 11.642 18.6719 11.8258 18.3196 11.9773C17.9673 12.1288 17.5374 12.2045 17.0298 12.2045ZM17.2344 11C17.7647 11 18.2116 10.8958 18.5753 10.6875C18.9427 10.4792 19.2192 10.2102 19.4048 9.88068C19.5942 9.55114 19.6889 9.20455 19.6889 8.84091V7.61364C19.6321 7.68182 19.5071 7.74432 19.3139 7.80114C19.1245 7.85417 18.9048 7.90151 18.6548 7.94318C18.4086 7.98106 18.1681 8.01515 17.9332 8.04545C17.7022 8.07197 17.5147 8.0947 17.3707 8.11364C17.0223 8.15909 16.6965 8.23295 16.3935 8.33523C16.0942 8.43371 15.8518 8.58333 15.6662 8.78409C15.4844 8.98106 15.3935 9.25 15.3935 9.59091C15.3935 10.0568 15.5658 10.4091 15.9105 10.6477C16.259 10.8826 16.7003 11 17.2344 11ZM24.8182 0.363636V12H23.4773V0.363636H24.8182ZM30.9332 12.1818C30.0923 12.1818 29.367 11.9962 28.7571 11.625C28.151 11.25 27.6832 10.7273 27.3537 10.0568C27.0279 9.38258 26.8651 8.59848 26.8651 7.70455C26.8651 6.81061 27.0279 6.02273 27.3537 5.34091C27.6832 4.6553 28.1416 4.12121 28.7287 3.73864C29.3196 3.35227 30.009 3.15909 30.7969 3.15909C31.2514 3.15909 31.7003 3.23485 32.1435 3.38636C32.5866 3.53788 32.9901 3.78409 33.3537 4.125C33.7173 4.46212 34.0071 4.90909 34.223 5.46591C34.4389 6.02273 34.5469 6.70833 34.5469 7.52273V8.09091H27.8196V6.93182H33.1832C33.1832 6.43939 33.0848 6 32.8878 5.61364C32.6946 5.22727 32.4181 4.92235 32.0582 4.69886C31.7022 4.47538 31.2817 4.36364 30.7969 4.36364C30.2628 4.36364 29.8007 4.49621 29.4105 4.76136C29.0241 5.02273 28.7268 5.36364 28.5185 5.78409C28.3101 6.20455 28.206 6.6553 28.206 7.13636V7.90909C28.206 8.56818 28.3196 9.12689 28.5469 9.58523C28.7779 10.0398 29.098 10.3864 29.5071 10.625C29.9162 10.8598 30.3916 10.9773 30.9332 10.9773C31.2855 10.9773 31.6037 10.928 31.8878 10.8295C32.1757 10.7273 32.4238 10.5758 32.6321 10.375C32.8404 10.1705 33.0014 9.91667 33.1151 9.61364L34.4105 9.97727C34.2741 10.4167 34.045 10.803 33.723 11.1364C33.401 11.4659 33.0033 11.7235 32.5298 11.9091C32.0563 12.0909 31.5241 12.1818 30.9332 12.1818Z" fill="black"/>
</svg>
