<svg width="75" height="18" viewBox="0 0 75 18" fill="none" xmlns="http://www.w3.org/2000/svg">
<path d="M5.176 17.09C4.732 17.09 4.414 16.994 4.222 16.802C4.03 16.598 3.934 16.22 3.934 15.668C3.934 15.296 3.97 14.822 4.042 14.246C4.126 13.658 4.258 12.854 4.438 11.834C4.75 9.95 4.996 8.318 5.176 6.938C5.284 6.074 5.338 5.354 5.338 4.778C5.338 4.238 5.14 3.968 4.744 3.968C4.432 3.968 4.054 4.13 3.61 4.454C3.178 4.766 2.698 5.27 2.17 5.966C2.002 6.194 1.816 6.308 1.612 6.308C1.444 6.308 1.294 6.23 1.162 6.074C1.042 5.906 0.982 5.72 0.982 5.516C0.982 5.324 1.018 5.132 1.09 4.94C1.174 4.736 1.306 4.508 1.486 4.256C2.062 3.452 2.704 2.834 3.412 2.402C4.12 1.958 4.828 1.736 5.536 1.736C6.196 1.736 6.7 1.946 7.048 2.366C7.408 2.786 7.588 3.398 7.588 4.202C7.588 4.526 7.558 4.91 7.498 5.354C7.438 5.786 7.384 6.14 7.336 6.416C7.288 6.692 7.252 6.884 7.228 6.992C7.912 5.036 8.68 3.674 9.532 2.906C10.384 2.126 11.32 1.736 12.34 1.736C13.12 1.736 13.732 2.012 14.176 2.564C14.632 3.116 14.86 3.896 14.86 4.904C14.86 5.3 14.806 5.792 14.698 6.38C15.298 4.724 16 3.536 16.804 2.816C17.608 2.096 18.532 1.736 19.576 1.736C20.416 1.736 21.058 2.006 21.502 2.546C21.958 3.086 22.186 3.842 22.186 4.814C22.186 5.342 22.108 5.984 21.952 6.74L20.854 11.888C20.734 12.488 20.674 13.004 20.674 13.436C20.674 13.94 20.788 14.318 21.016 14.57C21.256 14.822 21.586 14.948 22.006 14.948C22.402 14.948 22.786 14.816 23.158 14.552C23.542 14.288 23.992 13.85 24.508 13.238C24.652 13.07 24.814 12.986 24.994 12.986C25.15 12.986 25.27 13.058 25.354 13.202C25.45 13.346 25.498 13.544 25.498 13.796C25.498 14.264 25.384 14.636 25.156 14.912C24.532 15.668 23.914 16.22 23.302 16.568C22.69 16.916 22.048 17.09 21.376 17.09C20.356 17.09 19.558 16.79 18.982 16.19C18.406 15.578 18.118 14.762 18.118 13.742C18.118 13.034 18.262 12.008 18.55 10.664L19.27 7.37C19.294 7.262 19.336 7.07 19.396 6.794C19.456 6.518 19.504 6.26 19.54 6.02C19.576 5.768 19.594 5.522 19.594 5.282C19.594 4.862 19.51 4.55 19.342 4.346C19.186 4.13 18.958 4.022 18.658 4.022C18.094 4.022 17.5 4.388 16.876 5.12C16.264 5.84 15.676 7.04 15.112 8.72C14.56 10.4 14.11 12.584 13.762 15.272C13.678 15.992 13.528 16.478 13.312 16.73C13.108 16.97 12.772 17.09 12.304 17.09C11.896 17.09 11.596 16.994 11.404 16.802C11.224 16.61 11.134 16.25 11.134 15.722C11.134 15.23 11.2 14.588 11.332 13.796C11.464 12.992 11.632 12.05 11.836 10.97C12.388 8.066 12.664 6.194 12.664 5.354C12.664 4.898 12.574 4.562 12.394 4.346C12.226 4.13 11.968 4.022 11.62 4.022C11.032 4.022 10.426 4.358 9.802 5.03C9.178 5.69 8.566 6.872 7.966 8.576C7.378 10.268 6.886 12.56 6.49 15.452C6.406 16.064 6.28 16.49 6.112 16.73C5.956 16.97 5.644 17.09 5.176 17.09ZM32.0756 12.986C32.2316 12.986 32.3516 13.058 32.4356 13.202C32.5316 13.346 32.5796 13.544 32.5796 13.796C32.5796 14.276 32.4656 14.648 32.2376 14.912C31.7936 15.452 31.1636 15.95 30.3476 16.406C29.5436 16.862 28.6796 17.09 27.7556 17.09C26.4956 17.09 25.5176 16.748 24.8216 16.064C24.1256 15.38 23.7776 14.444 23.7776 13.256C23.7776 12.428 23.9516 11.66 24.2996 10.952C24.6476 10.232 25.1276 9.662 25.7396 9.242C26.3636 8.822 27.0656 8.612 27.8456 8.612C28.5416 8.612 29.0996 8.822 29.5196 9.242C29.9396 9.65 30.1496 10.208 30.1496 10.916C30.1496 11.744 29.8496 12.458 29.2496 13.058C28.6616 13.646 27.6596 14.114 26.2436 14.462C26.5436 15.014 27.1136 15.29 27.9536 15.29C28.4936 15.29 29.1056 15.104 29.7896 14.732C30.4856 14.348 31.0856 13.85 31.5896 13.238C31.7336 13.07 31.8956 12.986 32.0756 12.986ZM27.5396 10.376C27.0956 10.376 26.7176 10.634 26.4056 11.15C26.1056 11.666 25.9556 12.29 25.9556 13.022V13.058C26.6636 12.89 27.2216 12.638 27.6296 12.302C28.0376 11.966 28.2416 11.576 28.2416 11.132C28.2416 10.904 28.1756 10.724 28.0436 10.592C27.9236 10.448 27.7556 10.376 27.5396 10.376ZM41.2501 12.986C41.4061 12.986 41.5261 13.058 41.6101 13.202C41.7061 13.346 41.7541 13.544 41.7541 13.796C41.7541 14.276 41.6401 14.648 41.4121 14.912C40.9201 15.512 40.3801 16.028 39.7921 16.46C39.2041 16.88 38.6221 17.09 38.0461 17.09C37.1341 17.09 36.4381 16.556 35.9581 15.488C35.4541 16.124 35.0101 16.55 34.6261 16.766C34.2541 16.982 33.8161 17.09 33.3121 17.09C32.5801 17.09 31.9741 16.82 31.4941 16.28C31.0261 15.728 30.7921 15.014 30.7921 14.138C30.7921 13.178 30.9961 12.29 31.4041 11.474C31.8121 10.646 32.3701 9.974 33.0781 9.458C33.7981 8.93 34.6021 8.618 35.4901 8.522C35.7181 6.194 36.1501 4.208 36.7861 2.564C37.4341 0.907999 38.2801 0.079999 39.3241 0.079999C39.8401 0.079999 40.2661 0.313999 40.6021 0.782C40.9501 1.25 41.1241 1.958 41.1241 2.906C41.1241 4.25 40.7941 5.822 40.1341 7.622C39.4741 9.422 38.5921 11.27 37.4881 13.166C37.5361 13.862 37.6381 14.36 37.7941 14.66C37.9621 14.96 38.1721 15.11 38.4241 15.11C38.7481 15.11 39.0781 14.966 39.4141 14.678C39.7501 14.39 40.2001 13.91 40.7641 13.238C40.9081 13.07 41.0701 12.986 41.2501 12.986ZM39.1261 1.844C38.8981 1.844 38.6701 2.252 38.4421 3.068C38.2141 3.872 38.0161 4.928 37.8481 6.236C37.6921 7.544 37.5781 8.912 37.5061 10.34C38.8501 7.412 39.5221 5.06 39.5221 3.284C39.5221 2.828 39.4801 2.474 39.3961 2.222C39.3241 1.97 39.2341 1.844 39.1261 1.844ZM33.9421 15.272C34.1701 15.272 34.3981 15.182 34.6261 15.002C34.8541 14.81 35.1421 14.462 35.4901 13.958C35.3701 13.31 35.3101 12.584 35.3101 11.78C35.3101 11.492 35.3221 11.024 35.3461 10.376C34.6861 10.58 34.1341 11.024 33.6901 11.708C33.2581 12.38 33.0421 13.13 33.0421 13.958C33.0421 14.834 33.3421 15.272 33.9421 15.272ZM42.6478 7.424C42.1438 7.424 41.7658 7.31 41.5138 7.082C41.2618 6.842 41.1358 6.512 41.1358 6.092C41.1358 5.672 41.2978 5.324 41.6218 5.048C41.9578 4.76 42.3718 4.616 42.8638 4.616C43.3078 4.616 43.6678 4.724 43.9438 4.94C44.2198 5.156 44.3578 5.462 44.3578 5.858C44.3578 6.338 44.2018 6.722 43.8898 7.01C43.5778 7.286 43.1638 7.424 42.6478 7.424ZM42.5038 17.09C41.7238 17.09 41.1538 16.814 40.7938 16.262C40.4458 15.71 40.2718 14.978 40.2718 14.066C40.2718 13.526 40.3378 12.836 40.4698 11.996C40.6138 11.144 40.7938 10.352 41.0098 9.62C41.1178 9.236 41.2618 8.972 41.4418 8.828C41.6218 8.684 41.9098 8.612 42.3058 8.612C42.9178 8.612 43.2238 8.816 43.2238 9.224C43.2238 9.524 43.1098 10.22 42.8818 11.312C42.5938 12.632 42.4498 13.526 42.4498 13.994C42.4498 14.354 42.4978 14.63 42.5938 14.822C42.6898 15.014 42.8518 15.11 43.0798 15.11C43.2958 15.11 43.5658 14.96 43.8898 14.66C44.2138 14.36 44.6458 13.886 45.1858 13.238C45.3298 13.07 45.4918 12.986 45.6718 12.986C45.8278 12.986 45.9478 13.058 46.0318 13.202C46.1278 13.346 46.1758 13.544 46.1758 13.796C46.1758 14.276 46.0618 14.648 45.8338 14.912C44.6458 16.364 43.5358 17.09 42.5038 17.09ZM48.1575 17.09C46.9815 17.09 46.0635 16.76 45.4035 16.1C44.7555 15.428 44.4315 14.546 44.4315 13.454C44.4315 12.482 44.6235 11.63 45.0075 10.898C45.3915 10.166 45.8895 9.602 46.5015 9.206C47.1135 8.81 47.7555 8.612 48.4275 8.612C49.0875 8.612 49.5975 8.81 49.9575 9.206C50.3295 9.59 50.5155 10.088 50.5155 10.7C50.5155 11.204 50.4015 11.63 50.1735 11.978C49.9575 12.326 49.6695 12.5 49.3095 12.5C49.0815 12.5 48.8955 12.446 48.7515 12.338C48.6195 12.23 48.5535 12.08 48.5535 11.888C48.5535 11.804 48.5655 11.708 48.5895 11.6C48.6135 11.492 48.6315 11.414 48.6435 11.366C48.7035 11.186 48.7335 11.018 48.7335 10.862C48.7335 10.706 48.6915 10.586 48.6075 10.502C48.5355 10.418 48.4275 10.376 48.2835 10.376C48.0075 10.376 47.7495 10.502 47.5095 10.754C47.2695 10.994 47.0775 11.324 46.9335 11.744C46.7895 12.164 46.7175 12.626 46.7175 13.13C46.7175 14.522 47.3235 15.218 48.5355 15.218C49.0275 15.218 49.5555 15.056 50.1195 14.732C50.6955 14.396 51.2595 13.898 51.8115 13.238C51.9555 13.07 52.1175 12.986 52.2975 12.986C52.4535 12.986 52.5735 13.058 52.6575 13.202C52.7535 13.346 52.8015 13.544 52.8015 13.796C52.8015 14.252 52.6875 14.624 52.4595 14.912C51.8955 15.608 51.2175 16.148 50.4255 16.532C49.6455 16.904 48.8895 17.09 48.1575 17.09ZM60.5264 11.474C60.6824 11.474 60.8024 11.552 60.8864 11.708C60.9704 11.864 61.0124 12.062 61.0124 12.302C61.0124 12.878 60.8384 13.22 60.4904 13.328C59.7704 13.58 58.9784 13.724 58.1144 13.76C57.8864 14.768 57.4364 15.578 56.7644 16.19C56.0924 16.79 55.3304 17.09 54.4784 17.09C53.7584 17.09 53.1404 16.916 52.6244 16.568C52.1204 16.22 51.7364 15.758 51.4724 15.182C51.2084 14.606 51.0764 13.982 51.0764 13.31C51.0764 12.398 51.2504 11.588 51.5984 10.88C51.9464 10.16 52.4264 9.602 53.0384 9.206C53.6504 8.798 54.3284 8.594 55.0724 8.594C55.9844 8.594 56.7164 8.912 57.2684 9.548C57.8324 10.172 58.1624 10.946 58.2584 11.87C58.8224 11.834 59.4944 11.714 60.2744 11.51C60.3704 11.486 60.4544 11.474 60.5264 11.474ZM54.6224 15.182C55.0064 15.182 55.3364 15.026 55.6124 14.714C55.9004 14.402 56.0924 13.952 56.1884 13.364C55.8164 13.112 55.5284 12.782 55.3244 12.374C55.1324 11.966 55.0364 11.534 55.0364 11.078C55.0364 10.886 55.0544 10.694 55.0904 10.502H55.0004C54.5204 10.502 54.1184 10.736 53.7944 11.204C53.4824 11.66 53.3264 12.308 53.3264 13.148C53.3264 13.808 53.4524 14.312 53.7044 14.66C53.9684 15.008 54.2744 15.182 54.6224 15.182ZM60.7455 17.09C60.2895 17.09 59.9655 16.85 59.7735 16.37C59.5935 15.89 59.5035 15.122 59.5035 14.066C59.5035 12.506 59.7255 11.024 60.1695 9.62C60.2775 9.272 60.4515 9.02 60.6915 8.864C60.9435 8.696 61.2915 8.612 61.7355 8.612C61.9755 8.612 62.1435 8.642 62.2395 8.702C62.3355 8.762 62.3835 8.876 62.3835 9.044C62.3835 9.236 62.2935 9.668 62.1135 10.34C61.9935 10.82 61.8975 11.24 61.8255 11.6C61.7535 11.96 61.6935 12.404 61.6455 12.932C62.0415 11.9 62.4855 11.06 62.9775 10.412C63.4695 9.764 63.9495 9.302 64.4175 9.026C64.8975 8.75 65.3355 8.612 65.7315 8.612C66.5115 8.612 66.9015 9.002 66.9015 9.782C66.9015 9.938 66.8475 10.316 66.7395 10.916C66.6435 11.396 66.5955 11.696 66.5955 11.816C66.5955 12.236 66.7455 12.446 67.0455 12.446C67.3815 12.446 67.8135 12.182 68.3415 11.654C68.4975 11.498 68.6595 11.42 68.8275 11.42C68.9835 11.42 69.1035 11.492 69.1875 11.636C69.2835 11.768 69.3315 11.948 69.3315 12.176C69.3315 12.62 69.2115 12.968 68.9715 13.22C68.6355 13.568 68.2395 13.868 67.7835 14.12C67.3395 14.36 66.8655 14.48 66.3615 14.48C65.7255 14.48 65.2395 14.318 64.9035 13.994C64.5795 13.67 64.4175 13.232 64.4175 12.68C64.4175 12.5 64.4355 12.32 64.4715 12.14C64.4955 11.9 64.5075 11.738 64.5075 11.654C64.5075 11.462 64.4415 11.366 64.3095 11.366C64.1295 11.366 63.8895 11.57 63.5895 11.978C63.3015 12.374 63.0135 12.902 62.7255 13.562C62.4375 14.222 62.2035 14.918 62.0235 15.65C61.8915 16.214 61.7355 16.598 61.5555 16.802C61.3875 16.994 61.1175 17.09 60.7455 17.09ZM74.1029 13.526C74.2589 13.526 74.3789 13.598 74.4629 13.742C74.5589 13.886 74.6069 14.084 74.6069 14.336C74.6069 14.768 74.5049 15.14 74.3009 15.452C73.9649 15.968 73.5209 16.37 72.9689 16.658C72.4289 16.946 71.7809 17.09 71.0249 17.09C69.8729 17.09 68.9789 16.748 68.3429 16.064C67.7069 15.368 67.3889 14.432 67.3889 13.256C67.3889 12.428 67.5629 11.66 67.9109 10.952C68.2589 10.232 68.7389 9.662 69.3509 9.242C69.9749 8.822 70.6769 8.612 71.4569 8.612C72.1529 8.612 72.7109 8.822 73.1309 9.242C73.5509 9.65 73.7609 10.208 73.7609 10.916C73.7609 11.744 73.4609 12.458 72.8609 13.058C72.2729 13.646 71.2649 14.114 69.8369 14.462C70.1249 15.014 70.6109 15.29 71.2949 15.29C71.7869 15.29 72.1889 15.176 72.5009 14.948C72.8249 14.72 73.1969 14.336 73.6169 13.796C73.7609 13.616 73.9229 13.526 74.1029 13.526ZM71.1509 10.376C70.7069 10.376 70.3289 10.634 70.0169 11.15C69.7169 11.666 69.5669 12.29 69.5669 13.022V13.058C70.2749 12.89 70.8329 12.638 71.2409 12.302C71.6489 11.966 71.8529 11.576 71.8529 11.132C71.8529 10.904 71.7869 10.724 71.6549 10.592C71.5349 10.448 71.3669 10.376 71.1509 10.376Z" fill="black"/>
</svg>
