<svg width="22" height="20" viewBox="0 0 22 20" fill="none" xmlns="http://www.w3.org/2000/svg">
<path d="M11 20C13.9174 20 16.7153 18.9464 18.7782 17.0711C20.8411 15.1957 22 12.6522 22 10C22 7.34784 20.8411 4.8043 18.7782 2.92893C16.7153 1.05357 13.9174 0 11 0C8.08262 0 5.28473 1.05357 3.22183 2.92893C1.15893 4.8043 0 7.34784 0 10C0 12.6522 1.15893 15.1957 3.22183 17.0711C5.28473 18.9464 8.08262 20 11 20ZM9.28125 13.125H10.3125V10.625H9.28125C8.70977 10.625 8.25 10.207 8.25 9.6875C8.25 9.16797 8.70977 8.75 9.28125 8.75H11.3438C11.9152 8.75 12.375 9.16797 12.375 9.6875V13.125H12.7188C13.2902 13.125 13.75 13.543 13.75 14.0625C13.75 14.582 13.2902 15 12.7188 15H9.28125C8.70977 15 8.25 14.582 8.25 14.0625C8.25 13.543 8.70977 13.125 9.28125 13.125ZM11 5C11.3647 5 11.7144 5.1317 11.9723 5.36612C12.2301 5.60054 12.375 5.91848 12.375 6.25C12.375 6.58152 12.2301 6.89946 11.9723 7.13388C11.7144 7.3683 11.3647 7.5 11 7.5C10.6353 7.5 10.2856 7.3683 10.0277 7.13388C9.76987 6.89946 9.625 6.58152 9.625 6.25C9.625 5.91848 9.76987 5.60054 10.0277 5.36612C10.2856 5.1317 10.6353 5 11 5Z" fill="#0076BE"/>
</svg>
