<svg width="321" height="39" viewBox="0 0 321 39" fill="none" xmlns="http://www.w3.org/2000/svg">
<path d="M0.196023 30V0.90909H10.8494C12.9138 0.90909 14.6231 1.25 15.9773 1.93182C17.3314 2.60417 18.3447 3.51799 19.017 4.6733C19.6894 5.81913 20.0256 7.11174 20.0256 8.55114C20.0256 9.76326 19.803 10.786 19.358 11.6193C18.9129 12.4432 18.3163 13.1061 17.5682 13.608C16.8295 14.1004 16.0152 14.4602 15.125 14.6875V14.9716C16.0909 15.0189 17.0331 15.3314 17.9517 15.9091C18.8797 16.4773 19.6468 17.2869 20.2528 18.3381C20.8589 19.3892 21.1619 20.6676 21.1619 22.1733C21.1619 23.66 20.8116 24.9953 20.1108 26.179C19.4195 27.3532 18.3494 28.286 16.9006 28.9773C15.4517 29.6591 13.6004 30 11.3466 30H0.196023ZM4.58523 26.2358H10.9205C13.0227 26.2358 14.5284 25.8286 15.4375 25.0142C16.3466 24.1998 16.8011 23.1818 16.8011 21.9602C16.8011 21.0417 16.5691 20.1989 16.1051 19.4318C15.6411 18.6648 14.9782 18.054 14.1165 17.5994C13.2642 17.1449 12.2509 16.9176 11.0767 16.9176H4.58523V26.2358ZM4.58523 13.4943H10.4659C11.4508 13.4943 12.3362 13.3049 13.1222 12.9261C13.9176 12.5473 14.5473 12.017 15.0114 11.3352C15.4848 10.6439 15.7216 9.82955 15.7216 8.89205C15.7216 7.68939 15.3002 6.68087 14.4574 5.86648C13.6146 5.05208 12.322 4.64489 10.5795 4.64489H4.58523V13.4943ZM35.2173 30.4403C33.1719 30.4403 31.3868 29.9716 29.8622 29.0341C28.3376 28.0966 27.1539 26.785 26.3111 25.0994C25.4683 23.4138 25.0469 21.4441 25.0469 19.1903C25.0469 16.9271 25.4683 14.9479 26.3111 13.2528C27.1539 11.5578 28.3376 10.2415 29.8622 9.30398C31.3868 8.36648 33.1719 7.89773 35.2173 7.89773C37.2628 7.89773 39.0478 8.36648 40.5724 9.30398C42.0971 10.2415 43.2808 11.5578 44.1236 13.2528C44.9664 14.9479 45.3878 16.9271 45.3878 19.1903C45.3878 21.4441 44.9664 23.4138 44.1236 25.0994C43.2808 26.785 42.0971 28.0966 40.5724 29.0341C39.0478 29.9716 37.2628 30.4403 35.2173 30.4403ZM35.2315 26.875C36.5573 26.875 37.6558 26.5246 38.527 25.8239C39.3982 25.1231 40.0421 24.1903 40.4588 23.0256C40.8849 21.8608 41.098 20.5777 41.098 19.1761C41.098 17.7841 40.8849 16.5057 40.4588 15.3409C40.0421 14.1667 39.3982 13.2244 38.527 12.5142C37.6558 11.804 36.5573 11.4489 35.2315 11.4489C33.8963 11.4489 32.7884 11.804 31.9077 12.5142C31.0365 13.2244 30.3878 14.1667 29.9616 15.3409C29.545 16.5057 29.3366 17.7841 29.3366 19.1761C29.3366 20.5777 29.545 21.8608 29.9616 23.0256C30.3878 24.1903 31.0365 25.1231 31.9077 25.8239C32.7884 26.5246 33.8963 26.875 35.2315 26.875ZM58.2962 30.4261C56.5348 30.4261 54.9628 29.9763 53.5803 29.0767C52.2071 28.1676 51.1276 26.875 50.3416 25.1989C49.5651 23.5133 49.1768 21.4915 49.1768 19.1335C49.1768 16.7756 49.5698 14.7585 50.3558 13.0824C51.1513 11.4062 52.2403 10.1231 53.6229 9.23295C55.0054 8.3428 56.5727 7.89773 58.3246 7.89773C59.6787 7.89773 60.7678 8.125 61.5916 8.57955C62.425 9.02462 63.0689 9.54545 63.5234 10.142C63.9875 10.7386 64.3473 11.2642 64.603 11.7188H64.8587V0.90909H69.1058V30H64.9581V26.6051H64.603C64.3473 27.0691 63.978 27.5994 63.495 28.196C63.0215 28.7926 62.3681 29.3134 61.5348 29.7585C60.7015 30.2036 59.6219 30.4261 58.2962 30.4261ZM59.2337 26.804C60.4553 26.804 61.4875 26.482 62.3303 25.8381C63.1825 25.1847 63.8265 24.2803 64.2621 23.125C64.7071 21.9697 64.9297 20.625 64.9297 19.0909C64.9297 17.5758 64.7119 16.25 64.2763 15.1136C63.8407 13.9773 63.2015 13.0919 62.3587 12.4574C61.5159 11.8229 60.4742 11.5057 59.2337 11.5057C57.9553 11.5057 56.8899 11.8371 56.0376 12.5C55.1854 13.1629 54.5414 14.0672 54.1058 15.2131C53.6797 16.3589 53.4666 17.6515 53.4666 19.0909C53.4666 20.5492 53.6844 21.8608 54.12 23.0256C54.5556 24.1903 55.1996 25.1136 56.0518 25.7955C56.9136 26.4678 57.9742 26.804 59.2337 26.804ZM77.8523 38.1818C77.2178 38.1818 76.6402 38.1297 76.1193 38.0256C75.5985 37.9309 75.2102 37.8267 74.9545 37.7131L75.9773 34.233C76.7538 34.4413 77.4451 34.5313 78.0511 34.5028C78.6572 34.4744 79.1922 34.2472 79.6562 33.821C80.1297 33.3949 80.5464 32.6989 80.9062 31.733L81.4318 30.2841L73.4489 8.18182H77.9943L83.5199 25.1136H83.7472L89.2727 8.18182H93.8324L84.8409 32.9119C84.4242 34.0483 83.8939 35.0095 83.25 35.7955C82.6061 36.5909 81.839 37.1875 80.9489 37.5852C80.0587 37.983 79.0265 38.1818 77.8523 38.1818ZM108.751 0.90909H114.077L123.339 23.5227H123.68L132.941 0.90909H138.268V30H134.092V8.94886H133.822L125.242 29.9574H121.776L113.197 8.93466H112.927V30H108.751V0.90909ZM150.658 30.483C149.275 30.483 148.025 30.2273 146.908 29.7159C145.79 29.1951 144.905 28.4422 144.251 27.4574C143.607 26.4725 143.286 25.2652 143.286 23.8352C143.286 22.6042 143.522 21.5909 143.996 20.7955C144.469 20 145.108 19.3703 145.913 18.9062C146.718 18.4422 147.618 18.0919 148.612 17.8551C149.607 17.6184 150.62 17.4384 151.652 17.3153C152.959 17.1638 154.019 17.0407 154.834 16.946C155.648 16.8419 156.24 16.6761 156.609 16.4489C156.979 16.2216 157.163 15.8523 157.163 15.3409V15.2415C157.163 14.0009 156.813 13.0398 156.112 12.358C155.421 11.6761 154.389 11.3352 153.016 11.3352C151.586 11.3352 150.459 11.6525 149.635 12.2869C148.821 12.9119 148.257 13.608 147.945 14.375L143.953 13.4659C144.427 12.1402 145.118 11.0701 146.027 10.2557C146.946 9.43182 148.001 8.83523 149.195 8.46591C150.388 8.08712 151.643 7.89773 152.959 7.89773C153.83 7.89773 154.753 8.00189 155.729 8.21023C156.714 8.40909 157.632 8.77841 158.484 9.31818C159.346 9.85795 160.052 10.6297 160.601 11.6335C161.15 12.6278 161.425 13.9205 161.425 15.5114V30H157.277V27.017H157.107C156.832 27.5663 156.42 28.1061 155.871 28.6364C155.321 29.1667 154.616 29.607 153.754 29.9574C152.893 30.3078 151.86 30.483 150.658 30.483ZM151.581 27.0739C152.755 27.0739 153.759 26.8419 154.592 26.3778C155.435 25.9138 156.074 25.3078 156.51 24.5597C156.955 23.8021 157.178 22.9924 157.178 22.1307V19.3182C157.026 19.4697 156.732 19.6117 156.297 19.7443C155.871 19.8674 155.383 19.9763 154.834 20.071C154.285 20.1562 153.75 20.2367 153.229 20.3125C152.708 20.3788 152.272 20.4356 151.922 20.483C151.098 20.5871 150.345 20.7623 149.663 21.0085C148.991 21.2547 148.451 21.6098 148.044 22.0739C147.646 22.5284 147.447 23.1345 147.447 23.892C147.447 24.9432 147.836 25.7386 148.612 26.2784C149.389 26.8087 150.378 27.0739 151.581 27.0739ZM183.431 13.5085L179.582 14.1903C179.421 13.6979 179.165 13.2292 178.815 12.7841C178.474 12.339 178.01 11.9744 177.423 11.6903C176.835 11.4062 176.102 11.2642 175.221 11.2642C174.018 11.2642 173.014 11.5341 172.21 12.0739C171.405 12.6042 171.002 13.2907 171.002 14.1335C171.002 14.8627 171.272 15.4498 171.812 15.8949C172.352 16.34 173.223 16.7045 174.425 16.9886L177.891 17.7841C179.899 18.2481 181.395 18.9631 182.38 19.929C183.365 20.8949 183.857 22.1496 183.857 23.6932C183.857 25 183.478 26.1648 182.721 27.1875C181.973 28.2008 180.926 28.9962 179.582 29.5739C178.246 30.1515 176.698 30.4403 174.937 30.4403C172.494 30.4403 170.5 29.9195 168.957 28.8778C167.413 27.8267 166.466 26.3352 166.116 24.4034L170.221 23.7784C170.477 24.8485 171.002 25.6581 171.798 26.2074C172.593 26.7472 173.63 27.017 174.908 27.017C176.3 27.017 177.413 26.7282 178.246 26.1506C179.08 25.5634 179.496 24.8485 179.496 24.0057C179.496 23.3239 179.241 22.7509 178.729 22.2869C178.228 21.8229 177.456 21.4725 176.414 21.2358L172.721 20.4261C170.685 19.9621 169.179 19.2235 168.204 18.2102C167.238 17.197 166.755 15.9138 166.755 14.3608C166.755 13.0729 167.115 11.946 167.835 10.9801C168.554 10.0142 169.549 9.26136 170.817 8.72159C172.086 8.17235 173.54 7.89773 175.178 7.89773C177.536 7.89773 179.392 8.40909 180.746 9.43182C182.101 10.4451 182.996 11.804 183.431 13.5085ZM204.876 13.5085L201.027 14.1903C200.866 13.6979 200.61 13.2292 200.26 12.7841C199.919 12.339 199.455 11.9744 198.868 11.6903C198.281 11.4062 197.547 11.2642 196.666 11.2642C195.464 11.2642 194.46 11.5341 193.655 12.0739C192.85 12.6042 192.447 13.2907 192.447 14.1335C192.447 14.8627 192.717 15.4498 193.257 15.8949C193.797 16.34 194.668 16.7045 195.871 16.9886L199.337 17.7841C201.344 18.2481 202.84 18.9631 203.825 19.929C204.81 20.8949 205.303 22.1496 205.303 23.6932C205.303 25 204.924 26.1648 204.166 27.1875C203.418 28.2008 202.372 28.9962 201.027 29.5739C199.692 30.1515 198.143 30.4403 196.382 30.4403C193.939 30.4403 191.946 29.9195 190.402 28.8778C188.858 27.8267 187.911 26.3352 187.561 24.4034L191.666 23.7784C191.922 24.8485 192.447 25.6581 193.243 26.2074C194.038 26.7472 195.075 27.017 196.354 27.017C197.746 27.017 198.858 26.7282 199.692 26.1506C200.525 25.5634 200.942 24.8485 200.942 24.0057C200.942 23.3239 200.686 22.7509 200.175 22.2869C199.673 21.8229 198.901 21.4725 197.859 21.2358L194.166 20.4261C192.13 19.9621 190.625 19.2235 189.649 18.2102C188.683 17.197 188.2 15.9138 188.2 14.3608C188.2 13.0729 188.56 11.946 189.28 10.9801C190 10.0142 190.994 9.26136 192.263 8.72159C193.532 8.17235 194.985 7.89773 196.624 7.89773C198.982 7.89773 200.838 8.40909 202.192 9.43182C203.546 10.4451 204.441 11.804 204.876 13.5085ZM225.288 0.90909V30H220.899V0.90909H225.288ZM235.587 17.0455V30H231.339V8.18182H235.416V11.733H235.686C236.188 10.5777 236.974 9.64962 238.044 8.94886C239.124 8.24811 240.482 7.89773 242.121 7.89773C243.607 7.89773 244.91 8.21023 246.027 8.83523C247.144 9.45076 248.011 10.3693 248.626 11.5909C249.242 12.8125 249.55 14.3229 249.55 16.1222V30H245.303V16.6335C245.303 15.0521 244.891 13.8163 244.067 12.9261C243.243 12.0265 242.111 11.5767 240.672 11.5767C239.687 11.5767 238.811 11.7898 238.044 12.2159C237.286 12.642 236.685 13.267 236.24 14.0909C235.804 14.9053 235.587 15.8902 235.587 17.0455ZM263.413 30.4261C261.652 30.4261 260.08 29.9763 258.697 29.0767C257.324 28.1676 256.245 26.875 255.459 25.1989C254.682 23.5133 254.294 21.4915 254.294 19.1335C254.294 16.7756 254.687 14.7585 255.473 13.0824C256.268 11.4062 257.357 10.1231 258.74 9.23295C260.123 8.3428 261.69 7.89773 263.442 7.89773C264.796 7.89773 265.885 8.125 266.709 8.57955C267.542 9.02462 268.186 9.54545 268.641 10.142C269.105 10.7386 269.464 11.2642 269.72 11.7188H269.976V0.90909H274.223V30H270.075V26.6051H269.72C269.464 27.0691 269.095 27.5994 268.612 28.196C268.139 28.7926 267.485 29.3134 266.652 29.7585C265.819 30.2036 264.739 30.4261 263.413 30.4261ZM264.351 26.804C265.572 26.804 266.605 26.482 267.447 25.8381C268.3 25.1847 268.944 24.2803 269.379 23.125C269.824 21.9697 270.047 20.625 270.047 19.0909C270.047 17.5758 269.829 16.25 269.393 15.1136C268.958 13.9773 268.319 13.0919 267.476 12.4574C266.633 11.8229 265.591 11.5057 264.351 11.5057C263.072 11.5057 262.007 11.8371 261.155 12.5C260.303 13.1629 259.659 14.0672 259.223 15.2131C258.797 16.3589 258.584 17.6515 258.584 19.0909C258.584 20.5492 258.802 21.8608 259.237 23.0256C259.673 24.1903 260.317 25.1136 261.169 25.7955C262.031 26.4678 263.091 26.804 264.351 26.804ZM289.688 30.4403C287.539 30.4403 285.687 29.9811 284.134 29.0625C282.591 28.1345 281.397 26.8324 280.555 25.1562C279.721 23.4706 279.305 21.4962 279.305 19.233C279.305 16.9981 279.721 15.0284 280.555 13.3239C281.397 11.6193 282.572 10.2888 284.077 9.33239C285.593 8.37595 287.363 7.89773 289.39 7.89773C290.621 7.89773 291.814 8.10133 292.969 8.50852C294.125 8.91572 295.162 9.55492 296.08 10.4261C296.999 11.2973 297.723 12.429 298.254 13.821C298.784 15.2036 299.049 16.8845 299.049 18.8636V20.3693H281.705V17.1875H294.887C294.887 16.0701 294.66 15.0805 294.205 14.2188C293.751 13.3475 293.112 12.661 292.288 12.1591C291.473 11.6572 290.517 11.4062 289.418 11.4062C288.225 11.4062 287.183 11.6998 286.293 12.2869C285.413 12.8646 284.731 13.6222 284.248 14.5597C283.774 15.4877 283.538 16.4962 283.538 17.5852V20.071C283.538 21.5294 283.793 22.7699 284.305 23.7926C284.826 24.8153 285.55 25.5966 286.478 26.1364C287.406 26.6667 288.49 26.9318 289.731 26.9318C290.536 26.9318 291.27 26.8182 291.933 26.5909C292.595 26.3542 293.168 26.0038 293.651 25.5398C294.134 25.0758 294.504 24.5028 294.759 23.821L298.779 24.5455C298.457 25.7292 297.879 26.7661 297.046 27.6562C296.222 28.5369 295.185 29.2235 293.935 29.7159C292.695 30.1989 291.279 30.4403 289.688 30.4403ZM306.606 8.18182L311.421 16.6761L316.279 8.18182H320.924L314.12 19.0909L320.981 30H316.336L311.421 21.8466L306.521 30H301.862L308.651 19.0909L301.947 8.18182H306.606Z" fill="#0D3E5A"/>
</svg>
