<svg width="1009" height="254" viewBox="0 0 1009 254" fill="none" xmlns="http://www.w3.org/2000/svg">
<path d="M98.1812 209.55H1001.45" stroke="black"/>
<path d="M98.1812 6.34961V209.55" stroke="black"/>
<path d="M89.1182 209.55H98.1811" stroke="black"/>
<path d="M77.8158 211.84C77.1738 211.84 76.6269 211.665 76.1752 211.315C75.7235 210.963 75.3783 210.453 75.1397 209.786C74.9011 209.115 74.7817 208.305 74.7817 207.357C74.7817 206.413 74.9011 205.608 75.1397 204.94C75.3812 204.27 75.7278 203.759 76.1795 203.406C76.634 203.051 77.1795 202.874 77.8158 202.874C78.4522 202.874 78.9962 203.051 79.4479 203.406C79.9025 203.759 80.2491 204.27 80.4877 204.94C80.7292 205.608 80.8499 206.413 80.8499 207.357C80.8499 208.305 80.7306 209.115 80.492 209.786C80.2533 210.453 79.9082 210.963 79.4565 211.315C79.0047 211.665 78.4579 211.84 77.8158 211.84ZM77.8158 210.902C78.4522 210.902 78.9465 210.595 79.2988 209.982C79.6511 209.368 79.8272 208.493 79.8272 207.357C79.8272 206.601 79.7462 205.957 79.5843 205.426C79.4252 204.895 79.1951 204.49 78.894 204.212C78.5957 203.933 78.2363 203.794 77.8158 203.794C77.1851 203.794 76.6922 204.105 76.3371 204.727C75.982 205.347 75.8045 206.223 75.8045 207.357C75.8045 208.112 75.884 208.754 76.0431 209.283C76.2022 209.811 76.4309 210.213 76.7292 210.489C77.0303 210.764 77.3925 210.902 77.8158 210.902Z" fill="black"/>
<path d="M89.1182 158.75H98.1811" stroke="black"/>
<path d="M77.8958 161.039C77.3958 161.039 76.9455 160.94 76.5449 160.741C76.1443 160.542 75.8233 160.269 75.5818 159.923C75.3404 159.576 75.2083 159.181 75.1855 158.738H76.2083C76.248 159.133 76.427 159.46 76.7452 159.718C77.0662 159.974 77.4497 160.102 77.8958 160.102C78.2537 160.102 78.5719 160.018 78.8503 159.85C79.1316 159.683 79.3517 159.453 79.5108 159.16C79.6727 158.865 79.7537 158.531 79.7537 158.159C79.7537 157.778 79.6699 157.438 79.5023 157.14C79.3375 156.839 79.1102 156.602 78.8205 156.428C78.5307 156.255 78.1997 156.167 77.8276 156.164C77.5605 156.161 77.2864 156.203 77.0051 156.288C76.7239 156.37 76.4923 156.477 76.3105 156.607L75.3219 156.488L75.8503 152.193H80.3844V153.13H76.7367L76.4298 155.704H76.481C76.66 155.562 76.8844 155.444 77.1543 155.35C77.4242 155.257 77.7054 155.21 77.998 155.21C78.5321 155.21 79.008 155.338 79.4256 155.593C79.846 155.846 80.1756 156.193 80.4142 156.633C80.6557 157.073 80.7764 157.576 80.7764 158.142C80.7764 158.698 80.6514 159.195 80.4014 159.633C80.1543 160.068 79.8134 160.411 79.3787 160.664C78.9441 160.914 78.4497 161.039 77.8958 161.039Z" fill="black"/>
<path d="M89.1182 107.95H98.1811" stroke="black"/>
<path d="M72.4593 101.393V110.12H71.4025V102.501H71.3514L69.2207 103.916V102.842L71.4025 101.393H72.4593ZM77.8159 110.239C77.1738 110.239 76.6269 110.065 76.1752 109.715C75.7235 109.363 75.3784 108.853 75.1397 108.185C74.9011 107.515 74.7818 106.705 74.7818 105.756C74.7818 104.813 74.9011 104.008 75.1397 103.34C75.3812 102.67 75.7278 102.158 76.1795 101.806C76.634 101.451 77.1795 101.274 77.8159 101.274C78.4522 101.274 78.9963 101.451 79.448 101.806C79.9025 102.158 80.2491 102.67 80.4877 103.34C80.7292 104.008 80.8499 104.813 80.8499 105.756C80.8499 106.705 80.7306 107.515 80.492 108.185C80.2534 108.853 79.9082 109.363 79.4565 109.715C79.0048 110.065 78.4579 110.239 77.8159 110.239ZM77.8159 109.302C78.4522 109.302 78.9465 108.995 79.2988 108.381C79.6511 107.768 79.8272 106.893 79.8272 105.756C79.8272 105.001 79.7463 104.357 79.5843 103.826C79.4252 103.295 79.1951 102.89 78.894 102.612C78.5957 102.333 78.2363 102.194 77.8159 102.194C77.1852 102.194 76.6923 102.505 76.3372 103.127C75.982 103.747 75.8045 104.623 75.8045 105.756C75.8045 106.512 75.884 107.154 76.0431 107.683C76.2022 108.211 76.4309 108.613 76.7292 108.889C77.0303 109.164 77.3926 109.302 77.8159 109.302Z" fill="black"/>
<path d="M89.1183 57.1494H98.1812" stroke="black"/>
<path d="M72.6586 50.5926V59.3198H71.6017V51.7005H71.5506L69.4199 53.1153V52.0414L71.6017 50.5926H72.6586ZM77.8958 59.4391C77.3958 59.4391 76.9455 59.3397 76.5449 59.1408C76.1444 58.942 75.8233 58.6693 75.5819 58.3227C75.3404 57.9761 75.2083 57.5812 75.1856 57.138H76.2083C76.2481 57.5329 76.427 57.8596 76.7452 58.1181C77.0662 58.3738 77.4498 58.5016 77.8958 58.5016C78.2537 58.5016 78.5719 58.4178 78.8503 58.2502C79.1316 58.0826 79.3517 57.8525 79.5108 57.5599C79.6728 57.2644 79.7537 56.9306 79.7537 56.5585C79.7537 56.1778 79.6699 55.8383 79.5023 55.54C79.3375 55.2389 79.1103 55.0016 78.8205 54.8283C78.5307 54.6551 78.1998 54.567 77.8276 54.5641C77.5606 54.5613 77.2864 54.6025 77.0052 54.6877C76.7239 54.7701 76.4924 54.8766 76.3106 55.0073L75.3219 54.888L75.8503 50.5926H80.3844V51.5301H76.7367L76.4299 54.1039H76.481C76.66 53.9619 76.8844 53.844 77.1543 53.7502C77.4242 53.6565 77.7054 53.6096 77.9981 53.6096C78.5321 53.6096 79.008 53.7374 79.4256 53.9931C79.8461 54.246 80.1756 54.5926 80.4142 55.0329C80.6557 55.4732 80.7765 55.9761 80.7765 56.5414C80.7765 57.0982 80.6515 57.5954 80.4015 58.0329C80.1543 58.4676 79.8134 58.8113 79.3787 59.0641C78.9441 59.3141 78.4498 59.4391 77.8958 59.4391Z" fill="black"/>
<path d="M89.1183 6.34961H98.1812" stroke="black"/>
<path d="M67.7037 13.854V13.087L70.5843 9.93355C70.9224 9.56423 71.2008 9.24321 71.4196 8.97048C71.6383 8.69491 71.8003 8.43639 71.9054 8.19491C72.0133 7.95059 72.0673 7.69491 72.0673 7.42787C72.0673 7.12105 71.9934 6.85542 71.8457 6.63099C71.7008 6.40656 71.502 6.23326 71.2491 6.11111C70.9963 5.98895 70.7122 5.92787 70.3968 5.92787C70.0616 5.92787 69.769 5.99747 69.519 6.13667C69.2718 6.27304 69.0801 6.4648 68.9437 6.71196C68.8102 6.95912 68.7434 7.24889 68.7434 7.58128H67.7378C67.7378 7.06991 67.8557 6.62105 68.0914 6.23469C68.3272 5.84832 68.6483 5.54719 69.0545 5.33128C69.4636 5.11537 69.9224 5.00741 70.4309 5.00741C70.9423 5.00741 71.3954 5.11537 71.7903 5.33128C72.1852 5.54719 72.4949 5.83838 72.7193 6.20486C72.9437 6.57133 73.0559 6.979 73.0559 7.42787C73.0559 7.74889 72.9977 8.06281 72.8812 8.36963C72.7676 8.67361 72.5687 9.01309 72.2846 9.38809C72.0034 9.76025 71.6128 10.2148 71.1128 10.7517L69.1525 12.8483V12.9165H73.2093V13.854H67.7037ZM77.8159 13.9733C77.1738 13.9733 76.627 13.7986 76.1753 13.4492C75.7235 13.0969 75.3784 12.587 75.1397 11.9193C74.9011 11.2489 74.7818 10.4392 74.7818 9.49037C74.7818 8.54719 74.9011 7.74179 75.1397 7.07417C75.3812 6.40372 75.7278 5.89236 76.1795 5.54008C76.6341 5.18497 77.1795 5.00741 77.8159 5.00741C78.4522 5.00741 78.9963 5.18497 79.448 5.54008C79.9025 5.89236 80.2491 6.40372 80.4878 7.07417C80.7292 7.74179 80.85 8.54719 80.85 9.49037C80.85 10.4392 80.7307 11.2489 80.492 11.9193C80.2534 12.587 79.9082 13.0969 79.4565 13.4492C79.0048 13.7986 78.4579 13.9733 77.8159 13.9733ZM77.8159 13.0358C78.4522 13.0358 78.9466 12.729 79.2988 12.1154C79.6511 11.5017 79.8272 10.6267 79.8272 9.49037C79.8272 8.73469 79.7463 8.09122 79.5843 7.55997C79.4253 7.02872 79.1951 6.62389 78.894 6.34548C78.5957 6.06707 78.2363 5.92787 77.8159 5.92787C77.1852 5.92787 76.6923 6.23895 76.3372 6.86111C75.9821 7.48042 75.8045 8.35684 75.8045 9.49037C75.8045 10.246 75.8841 10.8881 76.0432 11.4165C76.2022 11.9449 76.4309 12.3469 76.7292 12.6225C77.0304 12.898 77.3926 13.0358 77.8159 13.0358Z" fill="black"/>
<path d="M98.1812 209.55H1001.45" stroke="black"/>
<path d="M98.1812 158.75H1001.45" stroke="black"/>
<path d="M98.1812 107.95H1001.45" stroke="black"/>
<path d="M98.1812 57.1499H1001.45" stroke="black"/>
<path d="M98.1812 6.3501H1001.45" stroke="black"/>
<path d="M211.089 6.3501V209.55" stroke="black"/>
<path d="M436.906 6.3501V209.55" stroke="black"/>
<path d="M662.723 6.3501V209.55" stroke="black"/>
<path d="M888.539 6.3501V209.55" stroke="black"/>
<path d="M98.1812 6.3501V209.55" stroke="black"/>
<path d="M1001.45 6.3501V209.55" stroke="black"/>
<path d="M120.763 138.43H206.86V209.55H120.763V138.43Z" fill="#0076BE"/>
<path d="M346.579 84.2432H432.677V209.55H346.579V84.2432Z" fill="#0076BE"/>
<path d="M572.396 182.457H658.493V209.55H572.396V182.457Z" fill="#0076BE"/>
<path d="M798.213 107.95H884.31V209.55H798.213V107.95Z" fill="#0076BE"/>
<path d="M212.902 105.781H298.999V209.55H212.902V105.781Z" fill="#FDC854"/>
<path d="M438.719 148.807H524.816V209.55H438.719V148.807Z" fill="#FDC854"/>
<path d="M664.535 158.931H750.633V209.55H664.535V158.931Z" fill="#FDC854"/>
<path d="M890.602 158.988H976.519V209.661H890.602V158.988Z" fill="#FDC854"/>
<path d="M186.555 223.345H187.612V229.123C187.612 229.72 187.472 230.253 187.19 230.721C186.912 231.187 186.518 231.555 186.01 231.825C185.501 232.092 184.905 232.226 184.22 232.226C183.535 232.226 182.939 232.092 182.43 231.825C181.922 231.555 181.527 231.187 181.246 230.721C180.967 230.253 180.828 229.72 180.828 229.123V223.345H181.885V229.038C181.885 229.464 181.979 229.844 182.166 230.176C182.354 230.506 182.621 230.765 182.967 230.956C183.317 231.143 183.734 231.237 184.22 231.237C184.706 231.237 185.123 231.143 185.473 230.956C185.822 230.765 186.089 230.506 186.274 230.176C186.462 229.844 186.555 229.464 186.555 229.038V223.345ZM190.592 228.135V232.072H189.586V225.527H190.558V226.55H190.643C190.796 226.217 191.029 225.95 191.342 225.748C191.654 225.544 192.058 225.442 192.552 225.442C192.995 225.442 193.383 225.532 193.715 225.714C194.048 225.893 194.306 226.166 194.491 226.532C194.676 226.896 194.768 227.356 194.768 227.913V232.072H193.762V227.981C193.762 227.467 193.629 227.067 193.362 226.78C193.095 226.49 192.728 226.345 192.262 226.345C191.941 226.345 191.654 226.415 191.402 226.554C191.152 226.693 190.954 226.896 190.809 227.163C190.664 227.43 190.592 227.754 190.592 228.135ZM199.077 232.209C198.532 232.209 198.05 232.071 197.633 231.795C197.215 231.517 196.888 231.125 196.653 230.619C196.417 230.111 196.299 229.51 196.299 228.817C196.299 228.129 196.417 227.532 196.653 227.027C196.888 226.521 197.217 226.131 197.637 225.855C198.057 225.579 198.543 225.442 199.094 225.442C199.521 225.442 199.857 225.513 200.104 225.655C200.354 225.794 200.545 225.953 200.675 226.132C200.809 226.308 200.913 226.453 200.986 226.567H201.072V223.345H202.077V232.072H201.106V231.067H200.986C200.913 231.186 200.807 231.336 200.671 231.518C200.535 231.697 200.34 231.858 200.087 232C199.834 232.139 199.498 232.209 199.077 232.209ZM199.214 231.305C199.617 231.305 199.958 231.2 200.236 230.99C200.515 230.777 200.726 230.483 200.871 230.108C201.016 229.73 201.089 229.294 201.089 228.8C201.089 228.311 201.018 227.883 200.876 227.517C200.734 227.148 200.523 226.861 200.245 226.656C199.967 226.449 199.623 226.345 199.214 226.345C198.788 226.345 198.432 226.454 198.148 226.673C197.867 226.889 197.655 227.183 197.513 227.555C197.374 227.925 197.305 228.339 197.305 228.8C197.305 229.265 197.376 229.689 197.518 230.069C197.663 230.447 197.876 230.748 198.157 230.973C198.441 231.194 198.793 231.305 199.214 231.305ZM206.803 232.209C206.172 232.209 205.628 232.069 205.171 231.791C204.717 231.51 204.366 231.118 204.119 230.615C203.874 230.109 203.752 229.521 203.752 228.851C203.752 228.18 203.874 227.589 204.119 227.078C204.366 226.564 204.709 226.163 205.15 225.876C205.593 225.586 206.11 225.442 206.701 225.442C207.042 225.442 207.378 225.498 207.711 225.612C208.043 225.726 208.346 225.91 208.619 226.166C208.891 226.419 209.109 226.754 209.271 227.172C209.432 227.589 209.513 228.104 209.513 228.714V229.14H204.468V228.271H208.491C208.491 227.902 208.417 227.572 208.269 227.282C208.124 226.993 207.917 226.764 207.647 226.596C207.38 226.429 207.065 226.345 206.701 226.345C206.3 226.345 205.954 226.444 205.661 226.643C205.371 226.839 205.148 227.095 204.992 227.41C204.836 227.726 204.758 228.064 204.758 228.425V229.004C204.758 229.498 204.843 229.917 205.013 230.261C205.187 230.602 205.427 230.862 205.734 231.041C206.04 231.217 206.397 231.305 206.803 231.305C207.067 231.305 207.306 231.268 207.519 231.194C207.735 231.118 207.921 231.004 208.077 230.854C208.234 230.7 208.354 230.51 208.44 230.282L209.411 230.555C209.309 230.885 209.137 231.175 208.896 231.425C208.654 231.672 208.356 231.865 208.001 232.004C207.646 232.14 207.246 232.209 206.803 232.209ZM211.043 232.072V225.527H212.015V226.515H212.083C212.202 226.192 212.418 225.929 212.731 225.727C213.043 225.525 213.396 225.425 213.788 225.425C213.861 225.425 213.954 225.426 214.065 225.429C214.175 225.432 214.259 225.436 214.316 225.442V226.464C214.282 226.456 214.204 226.443 214.082 226.426C213.962 226.406 213.836 226.396 213.702 226.396C213.384 226.396 213.1 226.463 212.85 226.596C212.603 226.727 212.407 226.909 212.262 227.142C212.12 227.372 212.049 227.635 212.049 227.93V232.072H211.043ZM217.097 232.072L215.102 225.527H216.159L217.574 230.538H217.642L219.04 225.527H220.114L221.494 230.521H221.562L222.977 225.527H224.034L222.04 232.072H221.051L219.619 227.044H219.517L218.085 232.072H217.097ZM227.885 232.209C227.255 232.209 226.71 232.069 226.253 231.791C225.799 231.51 225.448 231.118 225.201 230.615C224.956 230.109 224.834 229.521 224.834 228.851C224.834 228.18 224.956 227.589 225.201 227.078C225.448 226.564 225.791 226.163 226.232 225.876C226.675 225.586 227.192 225.442 227.783 225.442C228.124 225.442 228.46 225.498 228.793 225.612C229.125 225.726 229.428 225.91 229.701 226.166C229.973 226.419 230.191 226.754 230.353 227.172C230.514 227.589 230.595 228.104 230.595 228.714V229.14H225.55V228.271H229.573C229.573 227.902 229.499 227.572 229.351 227.282C229.206 226.993 228.999 226.764 228.729 226.596C228.462 226.429 228.147 226.345 227.783 226.345C227.382 226.345 227.036 226.444 226.743 226.643C226.453 226.839 226.23 227.095 226.074 227.41C225.918 227.726 225.84 228.064 225.84 228.425V229.004C225.84 229.498 225.925 229.917 226.095 230.261C226.269 230.602 226.509 230.862 226.816 231.041C227.122 231.217 227.479 231.305 227.885 231.305C228.149 231.305 228.388 231.268 228.601 231.194C228.817 231.118 229.003 231.004 229.159 230.854C229.316 230.7 229.436 230.51 229.522 230.282L230.493 230.555C230.391 230.885 230.219 231.175 229.978 231.425C229.736 231.672 229.438 231.865 229.083 232.004C228.728 232.14 228.328 232.209 227.885 232.209ZM232.125 232.072V225.527H233.131V232.072H232.125ZM232.637 224.436C232.441 224.436 232.272 224.369 232.13 224.236C231.99 224.102 231.921 223.942 231.921 223.754C231.921 223.567 231.99 223.406 232.13 223.273C232.272 223.139 232.441 223.072 232.637 223.072C232.833 223.072 233 223.139 233.139 223.273C233.282 223.406 233.353 223.567 233.353 223.754C233.353 223.942 233.282 224.102 233.139 224.236C233 224.369 232.833 224.436 232.637 224.436ZM237.615 234.663C237.129 234.663 236.712 234.601 236.362 234.476C236.013 234.354 235.722 234.192 235.489 233.99C235.258 233.791 235.075 233.578 234.939 233.351L235.74 232.788C235.831 232.907 235.946 233.044 236.085 233.197C236.224 233.354 236.415 233.488 236.656 233.602C236.9 233.719 237.22 233.777 237.615 233.777C238.143 233.777 238.579 233.649 238.923 233.393C239.267 233.138 239.439 232.737 239.439 232.192V230.862H239.354C239.28 230.981 239.175 231.129 239.038 231.305C238.905 231.479 238.712 231.633 238.459 231.77C238.209 231.903 237.871 231.97 237.445 231.97C236.916 231.97 236.442 231.845 236.021 231.595C235.604 231.345 235.273 230.981 235.028 230.504C234.787 230.027 234.666 229.447 234.666 228.765C234.666 228.095 234.784 227.511 235.02 227.014C235.256 226.514 235.584 226.128 236.004 225.855C236.425 225.579 236.91 225.442 237.462 225.442C237.888 225.442 238.226 225.513 238.476 225.655C238.729 225.794 238.922 225.953 239.055 226.132C239.192 226.308 239.297 226.453 239.371 226.567H239.473V225.527H240.445V232.26C240.445 232.822 240.317 233.28 240.061 233.632C239.808 233.987 239.467 234.247 239.038 234.412C238.612 234.579 238.138 234.663 237.615 234.663ZM237.581 231.067C237.984 231.067 238.325 230.974 238.604 230.79C238.882 230.605 239.094 230.339 239.239 229.993C239.383 229.646 239.456 229.231 239.456 228.748C239.456 228.277 239.385 227.861 239.243 227.5C239.101 227.139 238.891 226.856 238.612 226.652C238.334 226.447 237.99 226.345 237.581 226.345C237.155 226.345 236.8 226.453 236.516 226.669C236.234 226.885 236.023 227.175 235.881 227.538C235.741 227.902 235.672 228.305 235.672 228.748C235.672 229.203 235.743 229.605 235.885 229.954C236.03 230.301 236.243 230.574 236.524 230.773C236.808 230.969 237.16 231.067 237.581 231.067ZM243.291 228.135V232.072H242.285V223.345H243.291V226.55H243.376C243.53 226.211 243.76 225.943 244.067 225.744C244.376 225.542 244.788 225.442 245.302 225.442C245.748 225.442 246.139 225.531 246.474 225.71C246.81 225.886 247.07 226.157 247.254 226.524C247.442 226.888 247.535 227.351 247.535 227.913V232.072H246.53V227.981C246.53 227.461 246.395 227.059 246.125 226.775C245.858 226.488 245.487 226.345 245.013 226.345C244.683 226.345 244.388 226.415 244.126 226.554C243.868 226.693 243.663 226.896 243.513 227.163C243.365 227.43 243.291 227.754 243.291 228.135ZM252.222 225.527V226.379H248.83V225.527H252.222ZM249.818 223.959H250.824V230.197C250.824 230.481 250.865 230.694 250.948 230.836C251.033 230.976 251.141 231.069 251.272 231.118C251.405 231.163 251.546 231.186 251.693 231.186C251.804 231.186 251.895 231.18 251.966 231.169C252.037 231.155 252.094 231.143 252.137 231.135L252.341 232.038C252.273 232.064 252.178 232.089 252.056 232.115C251.934 232.143 251.779 232.157 251.591 232.157C251.307 232.157 251.029 232.096 250.756 231.974C250.486 231.852 250.262 231.666 250.083 231.416C249.907 231.166 249.818 230.851 249.818 230.47V223.959Z" fill="black"/>
<path d="M430.094 223.345V232.072H429.072L424.316 225.22H424.231V232.072H423.174V223.345H424.197L428.969 230.214H429.055V223.345H430.094ZM434.732 232.209C434.141 232.209 433.623 232.068 433.176 231.787C432.733 231.506 432.387 231.112 432.137 230.606C431.89 230.101 431.766 229.51 431.766 228.834C431.766 228.152 431.89 227.557 432.137 227.048C432.387 226.54 432.733 226.145 433.176 225.863C433.623 225.582 434.141 225.442 434.732 225.442C435.323 225.442 435.84 225.582 436.283 225.863C436.729 226.145 437.076 226.54 437.323 227.048C437.573 227.557 437.698 228.152 437.698 228.834C437.698 229.51 437.573 230.101 437.323 230.606C437.076 231.112 436.729 231.506 436.283 231.787C435.84 232.068 435.323 232.209 434.732 232.209ZM434.732 231.305C435.181 231.305 435.55 231.19 435.84 230.96C436.13 230.73 436.344 230.427 436.483 230.052C436.623 229.677 436.692 229.271 436.692 228.834C436.692 228.396 436.623 227.988 436.483 227.611C436.344 227.233 436.13 226.927 435.84 226.694C435.55 226.461 435.181 226.345 434.732 226.345C434.283 226.345 433.914 226.461 433.624 226.694C433.334 226.927 433.12 227.233 432.98 227.611C432.841 227.988 432.772 228.396 432.772 228.834C432.772 229.271 432.841 229.677 432.98 230.052C433.12 230.427 433.334 230.73 433.624 230.96C433.914 231.19 434.283 231.305 434.732 231.305ZM439.233 232.072V225.527H440.205V226.515H440.273C440.392 226.192 440.608 225.929 440.92 225.727C441.233 225.525 441.585 225.425 441.977 225.425C442.051 225.425 442.143 225.426 442.254 225.429C442.365 225.432 442.449 225.436 442.506 225.442V226.464C442.472 226.456 442.393 226.443 442.271 226.426C442.152 226.406 442.026 226.396 441.892 226.396C441.574 226.396 441.29 226.463 441.04 226.596C440.793 226.727 440.597 226.909 440.452 227.142C440.31 227.372 440.239 227.635 440.239 227.93V232.072H439.233ZM443.698 232.072V225.527H444.669V226.55H444.755C444.891 226.2 445.111 225.929 445.415 225.736C445.719 225.54 446.084 225.442 446.51 225.442C446.942 225.442 447.301 225.54 447.588 225.736C447.878 225.929 448.104 226.2 448.266 226.55H448.334C448.502 226.211 448.753 225.943 449.088 225.744C449.424 225.542 449.826 225.442 450.294 225.442C450.88 225.442 451.358 225.625 451.73 225.991C452.103 226.355 452.289 226.922 452.289 227.692V232.072H451.283V227.692C451.283 227.209 451.151 226.863 450.887 226.656C450.623 226.449 450.311 226.345 449.953 226.345C449.493 226.345 449.137 226.484 448.884 226.763C448.631 227.038 448.505 227.388 448.505 227.811V232.072H447.482V227.589C447.482 227.217 447.361 226.917 447.12 226.69C446.878 226.46 446.567 226.345 446.186 226.345C445.925 226.345 445.681 226.415 445.453 226.554C445.229 226.693 445.047 226.886 444.908 227.133C444.772 227.378 444.703 227.66 444.703 227.981V232.072H443.698ZM456.054 232.226C455.639 232.226 455.262 232.148 454.924 231.991C454.586 231.832 454.318 231.604 454.119 231.305C453.92 231.004 453.821 230.64 453.821 230.214C453.821 229.839 453.895 229.535 454.042 229.302C454.19 229.067 454.387 228.882 454.635 228.748C454.882 228.615 455.154 228.515 455.453 228.45C455.754 228.382 456.056 228.328 456.36 228.288C456.758 228.237 457.081 228.199 457.328 228.173C457.578 228.145 457.76 228.098 457.873 228.032C457.99 227.967 458.048 227.854 458.048 227.692V227.657C458.048 227.237 457.933 226.91 457.703 226.677C457.475 226.444 457.13 226.328 456.667 226.328C456.187 226.328 455.811 226.433 455.538 226.643C455.265 226.854 455.074 227.078 454.963 227.317L454.008 226.976C454.179 226.578 454.406 226.268 454.69 226.047C454.977 225.822 455.289 225.666 455.627 225.578C455.968 225.487 456.304 225.442 456.633 225.442C456.843 225.442 457.085 225.467 457.358 225.518C457.633 225.567 457.899 225.667 458.154 225.821C458.413 225.974 458.627 226.206 458.798 226.515C458.968 226.825 459.054 227.24 459.054 227.76V232.072H458.048V231.186H457.997C457.929 231.328 457.815 231.48 457.656 231.642C457.497 231.804 457.285 231.942 457.021 232.055C456.757 232.169 456.434 232.226 456.054 232.226ZM456.207 231.322C456.605 231.322 456.94 231.244 457.213 231.088C457.488 230.932 457.696 230.73 457.835 230.483C457.977 230.236 458.048 229.976 458.048 229.703V228.782C458.005 228.834 457.912 228.881 457.767 228.923C457.625 228.963 457.46 228.998 457.272 229.03C457.088 229.058 456.907 229.084 456.731 229.106C456.558 229.126 456.417 229.143 456.309 229.157C456.048 229.192 455.804 229.247 455.576 229.324C455.352 229.398 455.17 229.51 455.031 229.66C454.895 229.808 454.826 230.01 454.826 230.265C454.826 230.615 454.956 230.879 455.214 231.058C455.475 231.234 455.806 231.322 456.207 231.322ZM461.895 223.345V232.072H460.889V223.345H461.895Z" fill="black"/>
<path d="M643.333 227.709C643.333 228.629 643.166 229.425 642.834 230.095C642.502 230.765 642.046 231.282 641.466 231.646C640.887 232.01 640.225 232.192 639.48 232.192C638.736 232.192 638.074 232.01 637.495 231.646C636.915 231.282 636.459 230.765 636.127 230.095C635.794 229.425 635.628 228.629 635.628 227.709C635.628 226.788 635.794 225.993 636.127 225.322C636.459 224.652 636.915 224.135 637.495 223.771C638.074 223.407 638.736 223.226 639.48 223.226C640.225 223.226 640.887 223.407 641.466 223.771C642.046 224.135 642.502 224.652 642.834 225.322C643.166 225.993 643.333 226.788 643.333 227.709ZM642.31 227.709C642.31 226.953 642.183 226.315 641.931 225.795C641.681 225.275 641.341 224.882 640.912 224.615C640.486 224.348 640.009 224.214 639.48 224.214C638.952 224.214 638.473 224.348 638.044 224.615C637.618 224.882 637.279 225.275 637.026 225.795C636.776 226.315 636.651 226.953 636.651 227.709C636.651 228.464 636.776 229.102 637.026 229.622C637.279 230.142 637.618 230.535 638.044 230.802C638.473 231.069 638.952 231.203 639.48 231.203C640.009 231.203 640.486 231.069 640.912 230.802C641.341 230.535 641.681 230.142 641.931 229.622C642.183 229.102 642.31 228.464 642.31 227.709ZM650.326 225.527L647.905 232.072H646.882L644.462 225.527H645.553L647.36 230.743H647.428L649.235 225.527H650.326ZM654.163 232.209C653.532 232.209 652.988 232.069 652.531 231.791C652.076 231.51 651.725 231.118 651.478 230.615C651.234 230.109 651.112 229.521 651.112 228.851C651.112 228.18 651.234 227.589 651.478 227.078C651.725 226.564 652.069 226.163 652.509 225.876C652.953 225.586 653.47 225.442 654.061 225.442C654.401 225.442 654.738 225.498 655.071 225.612C655.403 225.726 655.705 225.91 655.978 226.166C656.251 226.419 656.468 226.754 656.63 227.172C656.792 227.589 656.873 228.104 656.873 228.714V229.14H651.828V228.271H655.85C655.85 227.902 655.776 227.572 655.629 227.282C655.484 226.993 655.276 226.764 655.007 226.596C654.74 226.429 654.424 226.345 654.061 226.345C653.66 226.345 653.313 226.444 653.021 226.643C652.731 226.839 652.508 227.095 652.352 227.41C652.196 227.726 652.117 228.064 652.117 228.425V229.004C652.117 229.498 652.203 229.917 652.373 230.261C652.546 230.602 652.786 230.862 653.093 231.041C653.4 231.217 653.757 231.305 654.163 231.305C654.427 231.305 654.666 231.268 654.879 231.194C655.095 231.118 655.281 231.004 655.437 230.854C655.593 230.7 655.714 230.51 655.799 230.282L656.771 230.555C656.669 230.885 656.497 231.175 656.255 231.425C656.014 231.672 655.715 231.865 655.36 232.004C655.005 232.14 654.606 232.209 654.163 232.209ZM658.403 232.072V225.527H659.375V226.515H659.443C659.562 226.192 659.778 225.929 660.09 225.727C660.403 225.525 660.755 225.425 661.147 225.425C661.221 225.425 661.313 225.426 661.424 225.429C661.535 225.432 661.619 225.436 661.676 225.442V226.464C661.642 226.456 661.563 226.443 661.441 226.426C661.322 226.406 661.196 226.396 661.062 226.396C660.744 226.396 660.46 226.463 660.21 226.596C659.963 226.727 659.767 226.909 659.622 227.142C659.48 227.372 659.409 227.635 659.409 227.93V232.072H658.403ZM664.456 232.072L662.462 225.527H663.519L664.933 230.538H665.002L666.399 225.527H667.473L668.854 230.521H668.922L670.337 225.527H671.394L669.399 232.072H668.411L666.979 227.044H666.877L665.445 232.072H664.456ZM675.245 232.209C674.614 232.209 674.07 232.069 673.613 231.791C673.158 231.51 672.807 231.118 672.56 230.615C672.316 230.109 672.194 229.521 672.194 228.851C672.194 228.18 672.316 227.589 672.56 227.078C672.807 226.564 673.151 226.163 673.591 225.876C674.035 225.586 674.552 225.442 675.143 225.442C675.484 225.442 675.82 225.498 676.153 225.612C676.485 225.726 676.788 225.91 677.06 226.166C677.333 226.419 677.55 226.754 677.712 227.172C677.874 227.589 677.955 228.104 677.955 228.714V229.14H672.91V228.271H676.932C676.932 227.902 676.859 227.572 676.711 227.282C676.566 226.993 676.359 226.764 676.089 226.596C675.822 226.429 675.506 226.345 675.143 226.345C674.742 226.345 674.395 226.444 674.103 226.643C673.813 226.839 673.59 227.095 673.434 227.41C673.278 227.726 673.199 228.064 673.199 228.425V229.004C673.199 229.498 673.285 229.917 673.455 230.261C673.628 230.602 673.868 230.862 674.175 231.041C674.482 231.217 674.839 231.305 675.245 231.305C675.509 231.305 675.748 231.268 675.961 231.194C676.177 231.118 676.363 231.004 676.519 230.854C676.675 230.7 676.796 230.51 676.881 230.282L677.853 230.555C677.751 230.885 677.579 231.175 677.337 231.425C677.096 231.672 676.797 231.865 676.442 232.004C676.087 232.14 675.688 232.209 675.245 232.209ZM679.485 232.072V225.527H680.491V232.072H679.485ZM679.996 224.436C679.8 224.436 679.631 224.369 679.489 224.236C679.35 224.102 679.28 223.942 679.28 223.754C679.28 223.567 679.35 223.406 679.489 223.273C679.631 223.139 679.8 223.072 679.996 223.072C680.192 223.072 680.36 223.139 680.499 223.273C680.641 223.406 680.712 223.567 680.712 223.754C680.712 223.942 680.641 224.102 680.499 224.236C680.36 224.369 680.192 224.436 679.996 224.436ZM684.975 234.663C684.489 234.663 684.071 234.601 683.722 234.476C683.372 234.354 683.081 234.192 682.848 233.99C682.618 233.791 682.435 233.578 682.299 233.351L683.1 232.788C683.191 232.907 683.306 233.044 683.445 233.197C683.584 233.354 683.774 233.488 684.016 233.602C684.26 233.719 684.58 233.777 684.975 233.777C685.503 233.777 685.939 233.649 686.283 233.393C686.627 233.138 686.799 232.737 686.799 232.192V230.862H686.713C686.639 230.981 686.534 231.129 686.398 231.305C686.264 231.479 686.071 231.633 685.818 231.77C685.568 231.903 685.23 231.97 684.804 231.97C684.276 231.97 683.801 231.845 683.381 231.595C682.963 231.345 682.632 230.981 682.388 230.504C682.147 230.027 682.026 229.447 682.026 228.765C682.026 228.095 682.144 227.511 682.379 227.014C682.615 226.514 682.943 226.128 683.364 225.855C683.784 225.579 684.27 225.442 684.821 225.442C685.247 225.442 685.585 225.513 685.835 225.655C686.088 225.794 686.281 225.953 686.415 226.132C686.551 226.308 686.656 226.453 686.73 226.567H686.833V225.527H687.804V232.26C687.804 232.822 687.676 233.28 687.421 233.632C687.168 233.987 686.827 234.247 686.398 234.412C685.972 234.579 685.497 234.663 684.975 234.663ZM684.941 231.067C685.344 231.067 685.685 230.974 685.963 230.79C686.242 230.605 686.453 230.339 686.598 229.993C686.743 229.646 686.816 229.231 686.816 228.748C686.816 228.277 686.745 227.861 686.602 227.5C686.46 227.139 686.25 226.856 685.972 226.652C685.693 226.447 685.35 226.345 684.941 226.345C684.514 226.345 684.159 226.453 683.875 226.669C683.594 226.885 683.382 227.175 683.24 227.538C683.101 227.902 683.031 228.305 683.031 228.748C683.031 229.203 683.102 229.605 683.245 229.954C683.389 230.301 683.602 230.574 683.884 230.773C684.168 230.969 684.52 231.067 684.941 231.067ZM690.651 228.135V232.072H689.645V223.345H690.651V226.55H690.736C690.889 226.211 691.12 225.943 691.426 225.744C691.736 225.542 692.148 225.442 692.662 225.442C693.108 225.442 693.499 225.531 693.834 225.71C694.169 225.886 694.429 226.157 694.614 226.524C694.801 226.888 694.895 227.351 694.895 227.913V232.072H693.889V227.981C693.889 227.461 693.754 227.059 693.485 226.775C693.218 226.488 692.847 226.345 692.372 226.345C692.043 226.345 691.747 226.415 691.486 226.554C691.227 226.693 691.023 226.896 690.872 227.163C690.725 227.43 690.651 227.754 690.651 228.135ZM699.582 225.527V226.379H696.189V225.527H699.582ZM697.178 223.959H698.184V230.197C698.184 230.481 698.225 230.694 698.307 230.836C698.393 230.976 698.501 231.069 698.631 231.118C698.765 231.163 698.905 231.186 699.053 231.186C699.164 231.186 699.255 231.18 699.326 231.169C699.397 231.155 699.454 231.143 699.496 231.135L699.701 232.038C699.633 232.064 699.538 232.089 699.415 232.115C699.293 232.143 699.138 232.157 698.951 232.157C698.667 232.157 698.388 232.096 698.116 231.974C697.846 231.852 697.621 231.666 697.442 231.416C697.266 231.166 697.178 230.851 697.178 230.47V223.959Z" fill="black"/>
</svg>
