<svg width="53" height="13" viewBox="0 0 53 13" fill="none" xmlns="http://www.w3.org/2000/svg">
<path d="M0.409091 12V0.363636H7.38636V1.61364H1.81818V5.54545H6.86364V6.79545H1.81818V12H0.409091ZM12.6364 12.1818C11.7955 12.1818 11.0701 11.9962 10.4602 11.625C9.85417 11.25 9.38636 10.7273 9.05682 10.0568C8.73106 9.38258 8.56818 8.59848 8.56818 7.70455C8.56818 6.81061 8.73106 6.02273 9.05682 5.34091C9.38636 4.6553 9.8447 4.12121 10.4318 3.73864C11.0227 3.35227 11.7121 3.15909 12.5 3.15909C12.9545 3.15909 13.4034 3.23485 13.8466 3.38636C14.2898 3.53788 14.6932 3.78409 15.0568 4.125C15.4205 4.46212 15.7102 4.90909 15.9261 5.46591C16.142 6.02273 16.25 6.70833 16.25 7.52273V8.09091H9.52273V6.93182H14.8864C14.8864 6.43939 14.7879 6 14.5909 5.61364C14.3977 5.22727 14.1212 4.92235 13.7614 4.69886C13.4053 4.47538 12.9848 4.36364 12.5 4.36364C11.9659 4.36364 11.5038 4.49621 11.1136 4.76136C10.7273 5.02273 10.4299 5.36364 10.2216 5.78409C10.0133 6.20455 9.90909 6.6553 9.90909 7.13636V7.90909C9.90909 8.56818 10.0227 9.12689 10.25 9.58523C10.4811 10.0398 10.8011 10.3864 11.2102 10.625C11.6193 10.8598 12.0947 10.9773 12.6364 10.9773C12.9886 10.9773 13.3068 10.928 13.5909 10.8295C13.8788 10.7273 14.1269 10.5758 14.3352 10.375C14.5436 10.1705 14.7045 9.91667 14.8182 9.61364L16.1136 9.97727C15.9773 10.4167 15.7481 10.803 15.4261 11.1364C15.1042 11.4659 14.7064 11.7235 14.233 11.9091C13.7595 12.0909 13.2273 12.1818 12.6364 12.1818ZM18.2898 12V3.27273H19.5852V4.63636H19.6989C19.8807 4.17045 20.1742 3.80871 20.5795 3.55114C20.9848 3.28977 21.4716 3.15909 22.0398 3.15909C22.6155 3.15909 23.0947 3.28977 23.4773 3.55114C23.8636 3.80871 24.1648 4.17045 24.3807 4.63636H24.4716C24.6951 4.18561 25.0303 3.82765 25.4773 3.5625C25.9242 3.29356 26.4602 3.15909 27.0852 3.15909C27.8655 3.15909 28.5038 3.40341 29 3.89205C29.4962 4.37689 29.7443 5.13258 29.7443 6.15909V12H28.4034V6.15909C28.4034 5.51515 28.2273 5.05492 27.875 4.77841C27.5227 4.50189 27.108 4.36364 26.6307 4.36364C26.017 4.36364 25.5417 4.54924 25.2045 4.92045C24.8674 5.28788 24.6989 5.75379 24.6989 6.31818V12H23.3352V6.02273C23.3352 5.52652 23.1742 5.12689 22.8523 4.82386C22.5303 4.51705 22.1155 4.36364 21.608 4.36364C21.2595 4.36364 20.9337 4.45644 20.6307 4.64205C20.3314 4.82765 20.089 5.08523 19.9034 5.41477C19.7216 5.74053 19.6307 6.11742 19.6307 6.54545V12H18.2898ZM34.7642 12.2045C34.2112 12.2045 33.7093 12.1004 33.2585 11.892C32.8078 11.6799 32.4498 11.375 32.1847 10.9773C31.9195 10.5758 31.7869 10.0909 31.7869 9.52273C31.7869 9.02273 31.8854 8.61742 32.0824 8.30682C32.2794 7.99242 32.5426 7.74621 32.8722 7.56818C33.2017 7.39015 33.5653 7.25758 33.9631 7.17045C34.3646 7.07955 34.768 7.00758 35.1733 6.95455C35.7036 6.88636 36.1335 6.83523 36.4631 6.80114C36.7964 6.76326 37.0388 6.70076 37.1903 6.61364C37.3456 6.52652 37.4233 6.375 37.4233 6.15909V6.11364C37.4233 5.55303 37.2699 5.11742 36.9631 4.80682C36.66 4.49621 36.1998 4.34091 35.5824 4.34091C34.9422 4.34091 34.4403 4.48106 34.0767 4.76136C33.7131 5.04167 33.4574 5.34091 33.3097 5.65909L32.0369 5.20455C32.2642 4.67424 32.5672 4.26136 32.946 3.96591C33.3286 3.66667 33.7453 3.45833 34.196 3.34091C34.6506 3.2197 35.0975 3.15909 35.5369 3.15909C35.8172 3.15909 36.1392 3.19318 36.5028 3.26136C36.8703 3.32576 37.2244 3.46023 37.5653 3.66477C37.91 3.86932 38.196 4.17803 38.4233 4.59091C38.6506 5.00379 38.7642 5.55682 38.7642 6.25V12H37.4233V10.8182H37.3551C37.2642 11.0076 37.1127 11.2102 36.9006 11.4261C36.6884 11.642 36.4063 11.8258 36.054 11.9773C35.7017 12.1288 35.2718 12.2045 34.7642 12.2045ZM34.9688 11C35.4991 11 35.946 10.8958 36.3097 10.6875C36.6771 10.4792 36.9536 10.2102 37.1392 9.88068C37.3286 9.55114 37.4233 9.20455 37.4233 8.84091V7.61364C37.3665 7.68182 37.2415 7.74432 37.0483 7.80114C36.8589 7.85417 36.6392 7.90151 36.3892 7.94318C36.143 7.98106 35.9025 8.01515 35.6676 8.04545C35.4366 8.07197 35.2491 8.0947 35.1051 8.11364C34.7566 8.15909 34.4309 8.23295 34.1278 8.33523C33.8286 8.43371 33.5862 8.58333 33.4006 8.78409C33.2188 8.98106 33.1278 9.25 33.1278 9.59091C33.1278 10.0568 33.3002 10.4091 33.6449 10.6477C33.9934 10.8826 34.4347 11 34.9688 11ZM42.5526 0.363636V12H41.2116V0.363636H42.5526ZM48.6676 12.1818C47.8267 12.1818 47.1013 11.9962 46.4915 11.625C45.8854 11.25 45.4176 10.7273 45.0881 10.0568C44.7623 9.38258 44.5994 8.59848 44.5994 7.70455C44.5994 6.81061 44.7623 6.02273 45.0881 5.34091C45.4176 4.6553 45.8759 4.12121 46.4631 3.73864C47.054 3.35227 47.7434 3.15909 48.5312 3.15909C48.9858 3.15909 49.4347 3.23485 49.8778 3.38636C50.321 3.53788 50.7244 3.78409 51.0881 4.125C51.4517 4.46212 51.7415 4.90909 51.9574 5.46591C52.1733 6.02273 52.2812 6.70833 52.2812 7.52273V8.09091H45.554V6.93182H50.9176C50.9176 6.43939 50.8191 6 50.6222 5.61364C50.429 5.22727 50.1525 4.92235 49.7926 4.69886C49.4366 4.47538 49.0161 4.36364 48.5312 4.36364C47.9972 4.36364 47.535 4.49621 47.1449 4.76136C46.7585 5.02273 46.4612 5.36364 46.2528 5.78409C46.0445 6.20455 45.9403 6.6553 45.9403 7.13636V7.90909C45.9403 8.56818 46.054 9.12689 46.2812 9.58523C46.5123 10.0398 46.8324 10.3864 47.2415 10.625C47.6506 10.8598 48.1259 10.9773 48.6676 10.9773C49.0199 10.9773 49.3381 10.928 49.6222 10.8295C49.91 10.7273 50.1581 10.5758 50.3665 10.375C50.5748 10.1705 50.7358 9.91667 50.8494 9.61364L52.1449 9.97727C52.0085 10.4167 51.7794 10.803 51.4574 11.1364C51.1354 11.4659 50.7377 11.7235 50.2642 11.9091C49.7907 12.0909 49.2585 12.1818 48.6676 12.1818Z" fill="black"/>
</svg>
