<svg width="28" height="121" viewBox="0 0 28 121" fill="none" xmlns="http://www.w3.org/2000/svg">
<path d="M1.27273 113.144H10V114.167L3.14773 118.922V119.007H10V120.064H1.27273L1.27273 119.042L8.14205 114.269V114.184H1.27273V113.144ZM10.1364 108.506C10.1364 109.097 9.99574 109.616 9.71449 110.062C9.43324 110.505 9.03977 110.852 8.53409 111.102C8.02841 111.349 7.4375 111.472 6.76136 111.472C6.07955 111.472 5.48437 111.349 4.97585 111.102C4.46733 110.852 4.07244 110.505 3.79119 110.062C3.50994 109.616 3.36932 109.097 3.36932 108.506C3.36932 107.915 3.50994 107.398 3.79119 106.955C4.07244 106.509 4.46733 106.163 4.97585 105.915C5.48437 105.665 6.07955 105.54 6.76136 105.54C7.4375 105.54 8.02841 105.665 8.53409 105.915C9.03977 106.163 9.43324 106.509 9.71449 106.955C9.99574 107.398 10.1364 107.915 10.1364 108.506ZM9.23295 108.506C9.23295 108.058 9.1179 107.688 8.88778 107.398C8.65767 107.109 8.35511 106.894 7.98011 106.755C7.60511 106.616 7.19886 106.546 6.76136 106.546C6.32386 106.546 5.91619 106.616 5.53835 106.755C5.16051 106.894 4.85511 107.109 4.62216 107.398C4.3892 107.688 4.27273 108.058 4.27273 108.506C4.27273 108.955 4.3892 109.325 4.62216 109.614C4.85511 109.904 5.16051 110.119 5.53835 110.258C5.91619 110.397 6.32386 110.467 6.76136 110.467C7.19886 110.467 7.60511 110.397 7.98011 110.258C8.35511 110.119 8.65767 109.904 8.88778 109.614C9.1179 109.325 9.23295 108.955 9.23295 108.506ZM10.0682 103.272C10.0682 103.483 9.9929 103.663 9.84233 103.814C9.69176 103.964 9.51136 104.039 9.30114 104.039C9.09091 104.039 8.91051 103.964 8.75994 103.814C8.60937 103.663 8.53409 103.483 8.53409 103.272C8.53409 103.062 8.60937 102.882 8.75994 102.731C8.91051 102.581 9.09091 102.505 9.30114 102.505C9.44034 102.505 9.56818 102.541 9.68466 102.612C9.80114 102.68 9.89489 102.772 9.96591 102.889C10.0341 103.002 10.0682 103.13 10.0682 103.272ZM10.1364 94.6665C10.1364 95.2575 9.99574 95.7759 9.71449 96.2219C9.43324 96.6651 9.03977 97.0117 8.53409 97.2617C8.02841 97.5089 7.4375 97.6325 6.76136 97.6325C6.07955 97.6325 5.48437 97.5089 4.97585 97.2617C4.46733 97.0117 4.07244 96.6651 3.79119 96.2219C3.50994 95.7759 3.36932 95.2575 3.36932 94.6665C3.36932 94.0756 3.50994 93.5586 3.79119 93.1154C4.07244 92.6694 4.46733 92.3228 4.97585 92.0756C5.48437 91.8256 6.07955 91.7006 6.76136 91.7006C7.4375 91.7006 8.02841 91.8256 8.53409 92.0756C9.03977 92.3228 9.43324 92.6694 9.71449 93.1154C9.99574 93.5586 10.1364 94.0756 10.1364 94.6665ZM9.23295 94.6665C9.23295 94.2177 9.1179 93.8484 8.88778 93.5586C8.65767 93.2688 8.35511 93.0543 7.98011 92.9151C7.60511 92.7759 7.19886 92.7063 6.76136 92.7063C6.32386 92.7063 5.91619 92.7759 5.53835 92.9151C5.16051 93.0543 4.85511 93.2688 4.62216 93.5586C4.3892 93.8484 4.27273 94.2177 4.27273 94.6665C4.27273 95.1154 4.3892 95.4847 4.62216 95.7745C4.85511 96.0643 5.16051 96.2788 5.53835 96.418C5.91619 96.5572 6.32386 96.6268 6.76136 96.6268C7.19886 96.6268 7.60511 96.5572 7.98011 96.418C8.35511 96.2788 8.65767 96.0643 8.88778 95.7745C9.1179 95.4847 9.23295 95.1154 9.23295 94.6665ZM3.45455 87.2507H4.30682V90.7791H3.45455V87.2507ZM10 89.7223H2.55114C2.17614 89.7223 1.86364 89.6342 1.61364 89.4581C1.36364 89.282 1.17614 89.0533 1.05114 88.772C0.926136 88.4908 0.863636 88.1939 0.863636 87.8814C0.863636 87.6342 0.883522 87.4325 0.923295 87.2763C0.963068 87.12 1 87.0036 1.03409 86.9268L1.90341 87.2166C1.88636 87.2678 1.86506 87.3388 1.83949 87.4297C1.81392 87.5178 1.80114 87.6342 1.80114 87.7791C1.80114 88.1115 1.88494 88.3516 2.05256 88.4993C2.22017 88.6442 2.46591 88.7166 2.78977 88.7166H10V89.7223ZM4 75.3072V76.364C3.69602 76.4265 3.42898 76.5359 3.19886 76.6921C2.96875 76.8455 2.77557 77.033 2.61932 77.2546C2.46023 77.4734 2.34091 77.7163 2.26136 77.9833C2.18182 78.2504 2.14205 78.5288 2.14205 78.8185C2.14205 79.3469 2.27557 79.8256 2.54261 80.2546C2.80966 80.6808 3.20313 81.0202 3.72301 81.2731C4.2429 81.5231 4.88068 81.6481 5.63636 81.6481C6.39205 81.6481 7.02983 81.5231 7.54972 81.2731C8.0696 81.0202 8.46307 80.6808 8.73011 80.2546C8.99716 79.8256 9.13068 79.3469 9.13068 78.8185C9.13068 78.5288 9.09091 78.2504 9.01136 77.9833C8.93182 77.7163 8.81392 77.4734 8.65767 77.2546C8.49858 77.033 8.30398 76.8455 8.07386 76.6921C7.84091 76.5359 7.57386 76.4265 7.27273 76.364V75.3072C7.71875 75.3867 8.1179 75.5316 8.47017 75.7418C8.82244 75.9521 9.12216 76.2134 9.36932 76.5259C9.61364 76.8384 9.79972 77.1893 9.92756 77.5785C10.0554 77.9648 10.1193 78.3782 10.1193 78.8185C10.1193 79.5629 9.9375 80.2248 9.57386 80.8043C9.21023 81.3839 8.69318 81.8398 8.02273 82.1722C7.35227 82.5046 6.55682 82.6708 5.63636 82.6708C4.71591 82.6708 3.92045 82.5046 3.25 82.1722C2.57955 81.8398 2.0625 81.3839 1.69886 80.8043C1.33523 80.2248 1.15341 79.5629 1.15341 78.8185C1.15341 78.3782 1.21733 77.9648 1.34517 77.5785C1.47301 77.1893 1.66051 76.8384 1.90767 76.5259C2.15199 76.2134 2.45028 75.9521 2.80256 75.7418C3.15199 75.5316 3.55114 75.3867 4 75.3072ZM6.0625 72.7301H10V73.7358H1.27273V72.7301H4.47727V72.6449C4.1392 72.4915 3.87074 72.2614 3.67188 71.9545C3.47017 71.6449 3.36932 71.233 3.36932 70.7188C3.36932 70.2727 3.45881 69.8821 3.63778 69.5469C3.81392 69.2116 4.08523 68.9517 4.4517 68.767C4.81534 68.5795 5.27841 68.4858 5.84091 68.4858H10V69.4915H5.90909C5.3892 69.4915 4.98722 69.6264 4.70313 69.8963C4.41619 70.1634 4.27273 70.5341 4.27273 71.0085C4.27273 71.3381 4.34233 71.6335 4.48153 71.8949C4.62074 72.1534 4.82386 72.358 5.09091 72.5085C5.35795 72.6562 5.68182 72.7301 6.0625 72.7301ZM10 66.646H3.45455V65.6403H10V66.646ZM2.36364 66.1346C2.36364 66.3306 2.29688 66.4996 2.16335 66.6417C2.02983 66.7809 1.86932 66.8505 1.68182 66.8505C1.49432 66.8505 1.33381 66.7809 1.20028 66.6417C1.06676 66.4996 1 66.3306 1 66.1346C1 65.9386 1.06676 65.771 1.20028 65.6317C1.33381 65.4897 1.49432 65.4187 1.68182 65.4187C1.86932 65.4187 2.02983 65.4897 2.16335 65.6317C2.29688 65.771 2.36364 65.9386 2.36364 66.1346ZM1.27273 62.7926H10V63.7983H1.27273V62.7926ZM10.1364 58.479C10.1364 59.0245 9.99858 59.506 9.72301 59.9237C9.4446 60.3413 9.05256 60.668 8.54688 60.9038C8.03835 61.1396 7.4375 61.2575 6.74432 61.2575C6.05682 61.2575 5.46023 61.1396 4.95455 60.9038C4.44886 60.668 4.05824 60.3398 3.78267 59.9194C3.5071 59.4989 3.36932 59.0131 3.36932 58.462C3.36932 58.0359 3.44034 57.6992 3.58239 57.4521C3.72159 57.2021 3.88068 57.0117 4.05966 56.881C4.2358 56.7475 4.38068 56.6438 4.49432 56.57V56.4847H1.27273V55.479H10V56.4506H8.99432V56.57C9.11364 56.6438 9.2642 56.7489 9.44602 56.8853C9.625 57.0217 9.78551 57.2163 9.92756 57.4691C10.0668 57.7219 10.1364 58.0586 10.1364 58.479ZM9.23295 58.3427C9.23295 57.9393 9.12784 57.5984 8.91761 57.32C8.70455 57.0415 8.41051 56.8299 8.03551 56.685C7.65767 56.5401 7.22159 56.4677 6.72727 56.4677C6.23864 56.4677 5.81108 56.5387 5.4446 56.6808C5.07528 56.8228 4.78835 57.033 4.58381 57.3114C4.37642 57.5898 4.27273 57.9336 4.27273 58.3427C4.27273 58.7688 4.3821 59.1239 4.60085 59.408C4.81676 59.6893 5.1108 59.9009 5.48295 60.043C5.85227 60.1822 6.26705 60.2518 6.72727 60.2518C7.19318 60.2518 7.61648 60.1808 7.99716 60.0387C8.375 59.8938 8.67614 59.6808 8.90057 59.3995C9.12216 59.1154 9.23295 58.7631 9.23295 58.3427ZM10 53.4975H3.45455V52.5259H4.44318V52.4577C4.11932 52.3384 3.85653 52.1225 3.65483 51.81C3.45312 51.4975 3.35227 51.1452 3.35227 50.7532C3.35227 50.6793 3.35369 50.587 3.35653 50.4762C3.35937 50.3654 3.36364 50.2816 3.36932 50.2248H4.39205C4.38352 50.2589 4.37074 50.337 4.35369 50.4592C4.33381 50.5785 4.32386 50.7049 4.32386 50.8384C4.32386 51.1566 4.39062 51.4407 4.52415 51.6907C4.65483 51.9379 4.83665 52.1339 5.0696 52.2788C5.29972 52.4208 5.5625 52.4918 5.85795 52.4918H10V53.4975ZM10.1364 46.4876C10.1364 47.1183 9.99716 47.6623 9.71875 48.1197C9.4375 48.5742 9.04545 48.9251 8.54261 49.1722C8.03693 49.4165 7.44886 49.5387 6.77841 49.5387C6.10795 49.5387 5.51705 49.4165 5.00568 49.1722C4.49148 48.9251 4.09091 48.5813 3.80398 48.141C3.5142 47.6978 3.36932 47.1808 3.36932 46.5898C3.36932 46.2489 3.42614 45.9123 3.53977 45.5799C3.65341 45.2475 3.83807 44.945 4.09375 44.6722C4.34659 44.3995 4.68182 44.1822 5.09943 44.0202C5.51705 43.8583 6.03125 43.7773 6.64205 43.7773H7.06818V48.8228H6.19886V44.8001C5.82955 44.8001 5.5 44.8739 5.21023 45.0217C4.92045 45.1665 4.69176 45.3739 4.52415 45.6438C4.35653 45.9109 4.27273 46.2262 4.27273 46.5898C4.27273 46.9904 4.37216 47.337 4.57102 47.6296C4.76705 47.9194 5.02273 48.1424 5.33807 48.2987C5.65341 48.4549 5.99148 48.533 6.35227 48.533H6.93182C7.42614 48.533 7.84517 48.4478 8.18892 48.2773C8.52983 48.104 8.78977 47.864 8.96875 47.5572C9.14489 47.2504 9.23295 46.8938 9.23295 46.4876C9.23295 46.2234 9.19602 45.9847 9.12216 45.7717C9.04545 45.5558 8.93182 45.3697 8.78125 45.2134C8.62784 45.0572 8.4375 44.9364 8.21023 44.8512L8.48295 43.8796C8.8125 43.9819 9.10227 44.1538 9.35227 44.3952C9.59943 44.6367 9.79261 44.935 9.93182 45.2901C10.0682 45.6452 10.1364 46.0444 10.1364 46.4876ZM6.0625 41.2418H10V42.2475H3.45455L3.45455 41.2759H4.47727V41.1907C4.14489 41.0373 3.87784 40.8043 3.67614 40.4918C3.47159 40.1793 3.36932 39.7759 3.36932 39.2816C3.36932 38.8384 3.46023 38.4506 3.64205 38.1183C3.82102 37.7859 4.09375 37.5273 4.46023 37.3427C4.82386 37.158 5.28409 37.0657 5.84091 37.0657H10V38.0714H5.90909C5.39489 38.0714 4.99432 38.2049 4.70739 38.4719C4.41761 38.739 4.27273 39.1055 4.27273 39.5714C4.27273 39.8924 4.34233 40.1793 4.48153 40.4322C4.62074 40.6822 4.82386 40.8796 5.09091 41.0245C5.35795 41.1694 5.68182 41.2418 6.0625 41.2418ZM7.32386 27.728H3.45455V26.7223H10V27.728H8.89205V27.7962C9.22443 27.9496 9.5071 28.1882 9.74006 28.5121C9.97017 28.8359 10.0852 29.245 10.0852 29.7393C10.0852 30.1484 9.99574 30.5121 9.81676 30.8303C9.63494 31.1484 9.36222 31.3984 8.99858 31.5803C8.6321 31.7621 8.17045 31.853 7.61364 31.853H3.45455V30.8473H7.54545C8.02273 30.8473 8.40341 30.7138 8.6875 30.4467C8.97159 30.1768 9.11364 29.8331 9.11364 29.4155C9.11364 29.1655 9.04972 28.9112 8.92188 28.6527C8.79403 28.3913 8.59801 28.1726 8.33381 27.9964C8.0696 27.8175 7.73295 27.728 7.32386 27.728ZM6.0625 23.8746H10V24.8803H3.45455V23.9087H4.47727V23.8235C4.14489 23.6701 3.87784 23.4371 3.67614 23.1246C3.47159 22.8121 3.36932 22.4087 3.36932 21.9144C3.36932 21.4712 3.46023 21.0835 3.64205 20.7511C3.82102 20.4187 4.09375 20.1602 4.46023 19.9755C4.82386 19.7908 5.28409 19.6985 5.84091 19.6985H10V20.7042H5.90909C5.39489 20.7042 4.99432 20.8377 4.70739 21.1048C4.41761 21.3718 4.27273 21.7383 4.27273 22.2042C4.27273 22.5252 4.34233 22.8121 4.48153 23.065C4.62074 23.315 4.82386 23.5124 5.09091 23.6573C5.35795 23.8022 5.68182 23.8746 6.0625 23.8746ZM10.1364 15.3892C10.1364 15.9347 9.99858 16.4162 9.72301 16.8338C9.4446 17.2514 9.05256 17.5781 8.54688 17.8139C8.03835 18.0497 7.4375 18.1676 6.74432 18.1676C6.05682 18.1676 5.46023 18.0497 4.95455 17.8139C4.44886 17.5781 4.05824 17.25 3.78267 16.8295C3.5071 16.4091 3.36932 15.9233 3.36932 15.3722C3.36932 14.946 3.44034 14.6094 3.58239 14.3622C3.72159 14.1122 3.88068 13.9219 4.05966 13.7912C4.2358 13.6577 4.38068 13.554 4.49432 13.4801V13.3949H1.27273V12.3892H10V13.3608H8.99432V13.4801C9.11364 13.554 9.2642 13.6591 9.44602 13.7955C9.625 13.9318 9.78551 14.1264 9.92756 14.3793C10.0668 14.6321 10.1364 14.9687 10.1364 15.3892ZM9.23295 15.2528C9.23295 14.8494 9.12784 14.5085 8.91761 14.2301C8.70455 13.9517 8.41051 13.7401 8.03551 13.5952C7.65767 13.4503 7.22159 13.3778 6.72727 13.3778C6.23864 13.3778 5.81108 13.4489 5.4446 13.5909C5.07528 13.733 4.78835 13.9432 4.58381 14.2216C4.37642 14.5 4.27273 14.8437 4.27273 15.2528C4.27273 15.679 4.3821 16.0341 4.60085 16.3182C4.81676 16.5994 5.1108 16.8111 5.48295 16.9531C5.85227 17.0923 6.26705 17.1619 6.72727 17.1619C7.19318 17.1619 7.61648 17.0909 7.99716 16.9489C8.375 16.804 8.67614 16.5909 8.90057 16.3097C9.12216 16.0256 9.23295 15.6733 9.23295 15.2528ZM10.1364 7.66335C10.1364 8.29403 9.99716 8.83807 9.71875 9.29545C9.4375 9.75 9.04545 10.1009 8.54261 10.348C8.03693 10.5923 7.44886 10.7145 6.77841 10.7145C6.10795 10.7145 5.51705 10.5923 5.00568 10.348C4.49148 10.1009 4.09091 9.7571 3.80398 9.31676C3.5142 8.87358 3.36932 8.35653 3.36932 7.76562C3.36932 7.42472 3.42614 7.08807 3.53977 6.75568C3.65341 6.4233 3.83807 6.12074 4.09375 5.84801C4.34659 5.57528 4.68182 5.35795 5.09943 5.19602C5.51705 5.03409 6.03125 4.95312 6.64205 4.95312H7.06818V9.99858H6.19886V5.97585C5.82955 5.97585 5.5 6.04972 5.21023 6.19744C4.92045 6.34233 4.69176 6.54972 4.52415 6.8196C4.35653 7.08665 4.27273 7.40199 4.27273 7.76562C4.27273 8.16619 4.37216 8.51278 4.57102 8.8054C4.76705 9.09517 5.02273 9.31818 5.33807 9.47443C5.65341 9.63068 5.99148 9.70881 6.35227 9.70881H6.93182C7.42614 9.70881 7.84517 9.62358 8.18892 9.45312C8.52983 9.27983 8.78977 9.03977 8.96875 8.73295C9.14489 8.42614 9.23295 8.0696 9.23295 7.66335C9.23295 7.39915 9.19602 7.16051 9.12216 6.94744C9.04545 6.73153 8.93182 6.54545 8.78125 6.3892C8.62784 6.23295 8.4375 6.11222 8.21023 6.02699L8.48295 5.0554C8.8125 5.15767 9.10227 5.32955 9.35227 5.57102C9.59943 5.8125 9.79261 6.1108 9.93182 6.46591C10.0682 6.82102 10.1364 7.22017 10.1364 7.66335ZM10 3.4233H3.45455V2.4517H4.44318V2.38352C4.11932 2.2642 3.85653 2.0483 3.65483 1.7358C3.45312 1.4233 3.35227 1.07102 3.35227 0.678977C3.35227 0.605114 3.35369 0.512784 3.35653 0.401989C3.35937 0.291193 3.36364 0.207386 3.36932 0.150568H4.39205C4.38352 0.184659 4.37074 0.262784 4.35369 0.384943C4.33381 0.504261 4.32386 0.630682 4.32386 0.764204C4.32386 1.08239 4.39062 1.36648 4.52415 1.61648C4.65483 1.86364 4.83665 2.05966 5.0696 2.20455C5.29972 2.34659 5.5625 2.41761 5.85795 2.41761H10V3.4233ZM25 94.5994H16.2727L16.2727 91.5483C16.2727 90.9403 16.3778 90.4389 16.5881 90.044C16.7955 89.6491 17.0753 89.3551 17.4276 89.1619C17.777 88.9687 18.1648 88.8722 18.5909 88.8722C18.9659 88.8722 19.2756 88.9389 19.5199 89.0724C19.7642 89.2031 19.9574 89.3764 20.0994 89.5923C20.2415 89.8054 20.3466 90.0369 20.4148 90.2869H20.5C20.517 90.0199 20.6108 89.7514 20.7813 89.4815C20.9517 89.2116 21.196 88.9858 21.5142 88.804C21.8324 88.6222 22.2216 88.5312 22.6818 88.5312C23.1193 88.5312 23.5128 88.6307 23.8622 88.8295C24.2116 89.0284 24.4886 89.3423 24.6932 89.7713C24.8977 90.2003 25 90.7585 25 91.446L25 94.5994ZM24.0625 93.5426L24.0625 91.446C24.0625 90.7557 23.929 90.2656 23.6619 89.9759C23.392 89.6832 23.0653 89.5369 22.6818 89.5369C22.3864 89.5369 22.1136 89.6122 21.8636 89.7628C21.6108 89.9134 21.4091 90.1278 21.2585 90.4062C21.1051 90.6847 21.0284 91.0142 21.0284 91.3949L21.0284 93.5426H24.0625ZM20.108 93.5426L20.108 91.5824C20.108 91.2642 20.0455 90.9773 19.9205 90.7216C19.7955 90.4631 19.6193 90.2585 19.392 90.108C19.1648 89.9545 18.8977 89.8778 18.5909 89.8778C18.2074 89.8778 17.8821 90.0114 17.6151 90.2784C17.3452 90.5455 17.2102 90.9687 17.2102 91.5483L17.2102 93.5426H20.108ZM16.2727 86.7947V85.5334L23.517 82.5675V82.4652L16.2727 79.4993V78.2379H25V79.2266H18.3693V79.3118L25 82.0391V82.9936L18.3693 85.7209V85.8061H25V86.7947H16.2727ZM16.2727 75.0621H25V76.119H16.2727V75.0621ZM17.2102 70.0455H16.2727V63.5H17.2102V66.2443H25V67.3011H17.2102V70.0455ZM25 62.685H18.4545V61.7134H19.4432V61.6452C19.1193 61.5259 18.8565 61.31 18.6548 60.9975C18.4531 60.685 18.3523 60.3327 18.3523 59.9407C18.3523 59.8668 18.3537 59.7745 18.3565 59.6637C18.3594 59.5529 18.3636 59.4691 18.3693 59.4123H19.392C19.3835 59.4464 19.3707 59.5245 19.3537 59.6467C19.3338 59.766 19.3239 59.8924 19.3239 60.0259C19.3239 60.3441 19.3906 60.6282 19.5241 60.8782C19.6548 61.1254 19.8366 61.3214 20.0696 61.4663C20.2997 61.6083 20.5625 61.6793 20.858 61.6793H25V62.685ZM25.1534 56.294C25.1534 56.7088 25.0753 57.0852 24.919 57.4233C24.7599 57.7614 24.5313 58.0298 24.233 58.2287C23.9318 58.4276 23.5682 58.527 23.142 58.527C22.767 58.527 22.4631 58.4531 22.2301 58.3054C21.9943 58.1577 21.8097 57.9602 21.6761 57.7131C21.5426 57.4659 21.4432 57.1932 21.3778 56.8949C21.3097 56.5937 21.2557 56.2912 21.2159 55.9872C21.1648 55.5895 21.1264 55.267 21.1009 55.0199C21.0724 54.7699 21.0256 54.5881 20.9602 54.4744C20.8949 54.358 20.7812 54.2997 20.6193 54.2997H20.5852C20.1648 54.2997 19.8381 54.4148 19.6051 54.6449C19.3722 54.8722 19.2557 55.2173 19.2557 55.6804C19.2557 56.1605 19.3608 56.5369 19.571 56.8097C19.7812 57.0824 20.0057 57.2741 20.2443 57.3849L19.9034 58.3395C19.5057 58.169 19.196 57.9418 18.9744 57.6577C18.75 57.3707 18.5937 57.0582 18.5057 56.7202C18.4148 56.3793 18.3693 56.044 18.3693 55.7145C18.3693 55.5043 18.3949 55.2628 18.446 54.9901C18.4943 54.7145 18.5952 54.4489 18.7486 54.1932C18.902 53.9347 19.1335 53.7202 19.4432 53.5497C19.7528 53.3793 20.1676 53.294 20.6875 53.294H25V54.2997H24.1136V54.3509C24.2557 54.419 24.4077 54.5327 24.5696 54.6918C24.7315 54.8509 24.8693 55.0625 24.983 55.3267C25.0966 55.5909 25.1534 55.9134 25.1534 56.294ZM24.25 56.1406C24.25 55.7429 24.1719 55.4077 24.0156 55.1349C23.8594 54.8594 23.6577 54.652 23.4105 54.5128C23.1634 54.3707 22.9034 54.2997 22.6307 54.2997H21.7102C21.7614 54.3423 21.8082 54.4361 21.8509 54.581C21.8906 54.723 21.9261 54.8878 21.9574 55.0753C21.9858 55.2599 22.0114 55.4403 22.0341 55.6165C22.054 55.7898 22.071 55.9304 22.0852 56.0384C22.1193 56.2997 22.1747 56.544 22.2514 56.7713C22.3253 56.9957 22.4375 57.1776 22.5881 57.3168C22.7358 57.4531 22.9375 57.5213 23.1932 57.5213C23.5426 57.5213 23.8068 57.392 23.9858 57.1335C24.1619 56.8722 24.25 56.5412 24.25 56.1406ZM25.1364 48.7994C25.1364 49.413 24.9915 49.9414 24.7017 50.3846C24.4119 50.8278 24.0128 51.1687 23.5043 51.4073C22.9957 51.646 22.4148 51.7653 21.7614 51.7653C21.0966 51.7653 20.5099 51.6431 20.0014 51.3988C19.4901 51.1516 19.0909 50.8079 18.804 50.3675C18.5142 49.9244 18.3693 49.4073 18.3693 48.8164C18.3693 48.3562 18.4545 47.9414 18.625 47.5721C18.7955 47.2028 19.0341 46.9002 19.3409 46.6644C19.6477 46.4286 20.0057 46.2823 20.4148 46.2255V47.2312C20.1165 47.3079 19.8523 47.4783 19.6222 47.7425C19.3892 48.0039 19.2727 48.3562 19.2727 48.7994C19.2727 49.1914 19.375 49.5352 19.5795 49.8306C19.7812 50.1232 20.0668 50.3519 20.4361 50.5167C20.8026 50.6786 21.233 50.7596 21.7273 50.7596C22.233 50.7596 22.6733 50.68 23.0483 50.521C23.4233 50.359 23.7145 50.1317 23.9219 49.8391C24.1293 49.5437 24.233 49.1971 24.233 48.7994C24.233 48.538 24.1875 48.3008 24.0966 48.0877C24.0057 47.8746 23.875 47.6942 23.7045 47.5465C23.5341 47.3988 23.3295 47.2937 23.0909 47.2312V46.2255C23.4773 46.2823 23.8253 46.4229 24.1349 46.6474C24.4418 46.869 24.6861 47.163 24.8679 47.5295C25.0469 47.8931 25.1364 48.3164 25.1364 48.7994ZM22.6136 43.8178L21.3693 43.8349V43.6303L18.4545 40.7667V39.5224L21.5398 42.5735V42.6587L22.6136 43.8178ZM25 44.7553H16.2727V43.7496H25V44.7553ZM25 40.5962L21.7614 43.1531L21.0625 42.4371L25 39.3178V40.5962ZM25 38.228H18.4545V37.2223H25V38.228ZM17.3636 37.7166C17.3636 37.9126 17.2969 38.0817 17.1634 38.2237C17.0298 38.3629 16.8693 38.4325 16.6818 38.4325C16.4943 38.4325 16.3338 38.3629 16.2003 38.2237C16.0668 38.0817 16 37.9126 16 37.7166C16 37.5206 16.0668 37.353 16.2003 37.2138C16.3338 37.0717 16.4943 37.0007 16.6818 37.0007C16.8693 37.0007 17.0298 37.0717 17.1634 37.2138C17.2969 37.353 17.3636 37.5206 17.3636 37.7166ZM21.0625 34.3746H25V35.3803H18.4545V34.4087H19.4773V34.3235C19.1449 34.1701 18.8778 33.9371 18.6761 33.6246C18.4716 33.3121 18.3693 32.9087 18.3693 32.4144C18.3693 31.9712 18.4602 31.5835 18.642 31.2511C18.821 30.9187 19.0938 30.6602 19.4602 30.4755C19.8239 30.2908 20.2841 30.1985 20.8409 30.1985H25V31.2042H20.9091C20.3949 31.2042 19.9943 31.3377 19.7074 31.6048C19.4176 31.8718 19.2727 32.2383 19.2727 32.7042C19.2727 33.0252 19.3423 33.3121 19.4815 33.565C19.6207 33.815 19.8239 34.0124 20.0909 34.1573C20.358 34.3022 20.6818 34.3746 21.0625 34.3746ZM27.5909 25.7188C27.5909 26.2045 27.5284 26.6222 27.4034 26.9716C27.2813 27.321 27.1193 27.6122 26.9176 27.8452C26.7188 28.0753 26.5057 28.2585 26.2784 28.3949L25.7159 27.5938C25.8352 27.5028 25.9716 27.3878 26.125 27.2486C26.2813 27.1094 26.4162 26.919 26.5298 26.6776C26.6463 26.4332 26.7045 26.1136 26.7045 25.7188C26.7045 25.1903 26.5767 24.7543 26.321 24.4105C26.0653 24.0668 25.6648 23.8949 25.1193 23.8949H23.7898V23.9801C23.9091 24.054 24.0568 24.1591 24.233 24.2955C24.4063 24.429 24.5611 24.6222 24.6974 24.875C24.831 25.125 24.8977 25.4631 24.8977 25.8892C24.8977 26.4176 24.7727 26.892 24.5227 27.3125C24.2727 27.7301 23.9091 28.0611 23.4318 28.3054C22.9545 28.5469 22.375 28.6676 21.6932 28.6676C21.0227 28.6676 20.4389 28.5497 19.9418 28.3139C19.4418 28.0781 19.0554 27.75 18.7827 27.3295C18.5071 26.9091 18.3693 26.4233 18.3693 25.8722C18.3693 25.446 18.4403 25.108 18.5824 24.858C18.7216 24.6051 18.8807 24.4119 19.0597 24.2784C19.2358 24.142 19.3807 24.0369 19.4943 23.9631V23.8608H18.4545V22.8892H25.1875C25.75 22.8892 26.2074 23.017 26.5597 23.2727C26.9148 23.5256 27.1747 23.8665 27.3395 24.2955C27.5071 24.7216 27.5909 25.196 27.5909 25.7188ZM23.9943 25.7528C23.9943 25.3494 23.902 25.0085 23.7173 24.7301C23.5327 24.4517 23.267 24.2401 22.9205 24.0952C22.5739 23.9503 22.1591 23.8778 21.6761 23.8778C21.2045 23.8778 20.7884 23.9489 20.4276 24.0909C20.0668 24.233 19.7841 24.4432 19.5795 24.7216C19.375 25 19.2727 25.3437 19.2727 25.7528C19.2727 26.179 19.3807 26.5341 19.5966 26.8182C19.8125 27.0994 20.1023 27.3111 20.4659 27.4531C20.8295 27.5923 21.233 27.6619 21.6761 27.6619C22.1307 27.6619 22.5327 27.5909 22.8821 27.4489C23.2287 27.304 23.5014 27.0909 23.7003 26.8097C23.8963 26.5256 23.9943 26.1733 23.9943 25.7528Z" fill="black"/>
</svg>
